<svg width="121" height="32" viewBox="0 0 121 32" fill="none" xmlns="http://www.w3.org/2000/svg">
<path d="M16.5946 2.03781C16.5859 2.01625 16.5825 1.99379 16.5846 1.97315C16.5867 1.9525 16.5943 1.93455 16.6065 1.92145C16.655 1.86944 16.7149 1.8928 16.7864 1.99153C16.8992 2.14845 17.1394 2.38029 17.507 2.68707C17.9354 3.04409 18.1898 3.25831 18.27 3.32971C19.4812 4.39373 20.6621 5.49125 21.8125 6.62229C21.8263 6.63552 21.8367 6.65195 21.8428 6.67008C21.8488 6.68827 21.8504 6.70763 21.8472 6.72651C21.8441 6.74539 21.8364 6.76325 21.8248 6.77851C21.8132 6.79376 21.7981 6.80592 21.7808 6.81403L19.2987 7.95387C19.2808 7.96197 19.2604 7.96283 19.2415 7.95621C19.2226 7.94955 19.2067 7.936 19.1969 7.91813C18.1683 6.04864 17.4055 4.03811 16.5946 2.03781Z" fill="#3298C9"/>
<path d="M23.4673 15.2565C23.4374 15.2641 23.406 15.2618 23.3776 15.2502C23.3492 15.2385 23.3255 15.218 23.3099 15.1917C22.0093 12.9883 20.8072 10.6008 19.4778 8.55106C19.4636 8.52909 19.4544 8.50434 19.4509 8.47837C19.4473 8.4524 19.4495 8.42589 19.4573 8.40061C19.4651 8.37538 19.4783 8.35197 19.496 8.33208C19.5137 8.31218 19.5355 8.29618 19.5598 8.28525L22.1251 7.14146C22.1571 7.12728 22.1925 7.12338 22.2262 7.13026C22.26 7.13714 22.2904 7.15448 22.3129 7.17981C23.1098 8.07016 23.8512 8.95789 24.5371 9.84296C25.5676 11.1732 26.4368 12.577 27.1446 14.0545C27.2249 14.222 27.18 14.3432 27.0098 14.4182C25.8144 14.9472 24.676 14.9496 23.4673 15.2565Z" fill="#3298C9"/>
<path d="M28.2106 16.8983C28.3887 17.7499 28.4728 18.5525 28.4631 19.3062C28.4605 19.5181 28.4631 19.6595 28.3706 19.7822C28.3572 19.7964 28.3401 19.8078 28.3203 19.8158C28.3006 19.8237 28.2785 19.828 28.2555 19.8285C27.2797 19.8506 26.3038 19.8281 25.3279 19.7611C25.2947 19.7588 25.2632 19.7461 25.2375 19.7247C25.2119 19.7034 25.1936 19.6744 25.1851 19.6421C24.8122 18.2104 24.2603 16.8683 23.5296 15.6156C23.459 15.494 23.4938 15.4349 23.634 15.4384C24.7912 15.4646 26.2305 15.2218 27.2466 14.6715C27.2662 14.661 27.2879 14.6549 27.3101 14.6536C27.3322 14.6523 27.3544 14.6558 27.375 14.6638C27.3957 14.6719 27.4143 14.6843 27.4295 14.7002C27.4448 14.7162 27.4564 14.7352 27.4634 14.7561L28.2106 16.8983Z" fill="#3298C9"/>
<path d="M28.4347 20.0334C28.41 20.6769 28.3034 21.3023 28.1147 21.9097C28.0187 22.1169 27.934 22.328 27.8608 22.5431C27.7683 22.8146 27.6832 23.0235 27.6056 23.1699C27.1895 23.958 26.6818 24.6848 26.0823 25.3504C25.1947 26.3146 24.111 27.3713 23.1124 27.9672C23.0689 27.9349 24.3997 26.667 25.2836 22.6449L25.3498 21.4879C25.3595 20.9986 25.3211 20.5134 25.2347 20.032C25.2332 20.0246 25.2335 20.0168 25.2356 20.0095C25.2378 20.0022 25.2416 19.9954 25.2468 19.9897C25.2521 19.9841 25.2587 19.9797 25.266 19.9769C25.2733 19.9742 25.2811 19.9732 25.2889 19.9738C26.3353 20.0814 27.3839 20.1013 28.4347 20.0334Z" fill="#3298C9"/>
<path d="M21.7767 5.89217C20.6165 4.7885 19.4273 3.71743 18.209 2.67897C17.9066 2.42067 17.487 2.12536 16.9502 1.79301C16.8479 1.72954 16.8528 1.67753 16.9647 1.63698C17 1.62464 17.0405 1.62112 17.0864 1.6264C18.3946 1.77891 19.4842 1.99973 20.3551 2.28888C20.7783 2.42993 21.1089 2.74949 21.3469 3.24756C21.4273 3.4167 22.6321 6.71068 21.7767 5.89217Z" fill="#76C4DC"/>
<path d="M21.5611 2.86554C21.4456 2.70333 21.4795 2.6619 21.6629 2.74124C22.2165 2.97925 22.7516 3.26576 23.2682 3.60074C23.7045 3.88372 24.1964 4.23589 24.7439 4.65727C25.6307 5.33873 26.4369 6.10785 27.1625 6.9647C27.3167 7.1463 27.4445 7.35345 27.5459 7.58619C27.6112 7.73697 27.676 7.88811 27.7403 8.03974C27.8055 8.19313 27.8483 8.34875 27.8685 8.50651C27.9691 9.30081 28.0131 10.1347 28.0008 11.0083C27.9902 11.77 27.8549 12.488 27.5948 13.1624C27.5789 13.2029 27.5582 13.2056 27.5327 13.1704C27.1924 12.6996 26.868 12.2187 26.5595 11.7277C26.1584 11.0894 25.8353 10.6077 25.5902 10.2824C24.6134 8.9839 23.5789 7.7471 22.4867 6.57201C22.3897 6.4671 22.3518 6.34411 22.373 6.20305C22.5282 5.16372 22.1636 3.70913 21.5611 2.86554Z" fill="#76C4DC"/>
<path d="M28.6761 16.4094C28.4927 15.5773 28.2151 14.7759 27.843 14.0055C27.7637 13.8415 27.7659 13.6784 27.8496 13.5162C28.0824 13.0666 28.2362 12.5959 28.3111 12.104C28.357 11.7998 28.387 11.3114 28.4011 10.6389C28.4143 9.97149 28.3724 9.30904 28.2755 8.65139C28.2631 8.56765 28.2786 8.56195 28.3218 8.63421C29.4439 10.511 30.1166 12.539 30.3396 14.7182C30.4454 15.7522 30.426 16.6924 30.2814 17.5387C30.2056 17.9794 30.0822 18.3554 29.9112 18.6666C29.7102 19.0333 29.4563 19.3458 29.1495 19.6041C29.027 19.7081 28.9732 19.6804 28.9882 19.5208C29.0787 18.5164 28.9219 17.3926 28.6761 16.4094Z" fill="#76C4DC"/>
<path d="M26.8431 25.1626C26.7814 25.1485 26.7374 25.1119 26.7109 25.0528C27.7692 23.853 28.8734 22.0439 28.8915 20.3904C28.8932 20.2176 28.9677 20.0849 29.1149 19.9923C29.3847 19.8222 29.5985 19.6018 29.7563 19.3312C29.81 19.2386 29.8506 19.1747 29.8779 19.1394C30.0798 18.8811 30.1543 18.9415 30.1014 19.3206C30.0917 19.392 30.074 19.47 30.0485 19.5546C29.4094 21.6686 28.3409 23.5379 26.8431 25.1626Z" fill="#76C4DC"/>
<path d="M15.2719 2.04985C15.2719 2.04985 15.4702 1.91762 15.4319 2.25613C14.717 4.20346 13.8671 6.09086 12.8825 7.91828C12.8789 7.92446 12.8507 7.9866 12.7978 8.10473C12.7026 8.31364 12.5594 8.35508 12.3681 8.22905C12.2182 8.13028 12.138 8.07828 12.1274 8.073C11.4777 7.7283 10.8258 7.38713 10.1717 7.04953C10.1479 7.03726 10.1274 7.0195 10.1118 6.99774C10.0962 6.97604 10.086 6.95092 10.082 6.92446C10.078 6.89801 10.0803 6.87097 10.0888 6.84558C10.0972 6.8202 10.1116 6.79721 10.1307 6.77844C11.5897 5.34596 13.1077 3.94869 14.6847 2.58671C15.2719 2.04985 15.2719 2.04985 15.2719 2.04985Z" fill="#498047"/>
<path d="M11.5909 10.338L8.71219 15.101C8.69929 15.1222 8.68035 15.1391 8.65779 15.1496C8.63523 15.1602 8.61001 15.164 8.58521 15.1605C7.40179 14.9898 6.26377 14.837 5.11149 14.4795C4.92019 14.4204 4.8554 14.2957 4.91711 14.1053C4.9841 13.9017 5.09254 13.6769 5.2424 13.4309C5.41518 13.1479 5.50419 13.0016 5.50953 12.9919C6.6899 10.9617 8.08009 9.08493 9.68014 7.36146C9.70377 7.33591 9.73529 7.31885 9.7699 7.31287C9.80452 7.30695 9.8403 7.31239 9.87188 7.32845L12.3962 8.60711C12.4118 8.61527 12.4237 8.6293 12.4291 8.6461C12.4345 8.66295 12.4332 8.68119 12.4253 8.69703L11.5909 10.338Z" fill="#498047"/>
<path d="M8.39643 15.3511C8.41414 15.3528 8.43115 15.3589 8.44593 15.3688C8.4607 15.3787 8.4727 15.3921 8.48091 15.4078C8.48907 15.4235 8.49313 15.441 8.4927 15.4586C8.49227 15.4762 8.48731 15.4934 8.47841 15.5085C7.67179 16.8934 7.06353 18.3334 6.65361 19.8285C6.64859 19.847 6.6375 19.8633 6.62219 19.8748C6.60683 19.8863 6.58811 19.8923 6.56897 19.892C3.2813 19.84 2.88236 20.1391 4.08827 16.3283C4.25577 15.8011 4.4215 15.2929 4.58547 14.8037C4.59344 14.78 4.60628 14.7583 4.62317 14.7399C4.64006 14.7215 4.6606 14.7069 4.68345 14.697C4.7063 14.6872 4.73095 14.6823 4.75577 14.6826C4.78058 14.683 4.80501 14.6887 4.82745 14.6992C5.78022 15.146 7.39265 15.2605 8.39643 15.3511Z" fill="#498047"/>
<path d="M3.87502 19.9905C4.76274 20.0778 5.64959 20.1139 6.53556 20.099C6.54927 20.0989 6.56287 20.1018 6.5753 20.1077C6.58772 20.1135 6.59866 20.1219 6.6073 20.1325C6.61594 20.1431 6.62207 20.1554 6.62522 20.1686C6.62836 20.1818 6.62842 20.1955 6.62543 20.2087C6.13268 24.1331 7.33268 26.3998 8.66602 27.7331C5.82634 26.7606 2.84228 19.7683 3.87502 19.9905Z" fill="#498047"/>
<path d="M15.016 1.92562C14.503 2.20771 13.9723 2.59118 13.424 3.07603C12.3132 4.05895 11.1928 5.07184 10.0626 6.11469C10.0574 6.11949 10.0511 6.12285 10.0441 6.12445C10.0373 6.12611 10.0301 6.12589 10.0233 6.12387C10.0165 6.12189 10.0103 6.11816 10.0054 6.11309C10.0005 6.10797 9.99699 6.10173 9.99518 6.09485C9.93614 5.86301 9.91582 5.6572 9.93438 5.47736C9.94051 5.41299 9.98814 5.21554 10.0772 4.88496C10.205 4.41245 10.4245 3.88353 10.7357 3.29818C10.9129 2.9632 11.1258 2.69785 11.3744 2.50215C11.5683 2.34876 11.8711 2.22049 12.2828 2.11736C12.9757 1.94457 13.818 1.78986 14.8098 1.65322C15.5526 1.5517 15.234 1.80712 15.016 1.92562Z" fill="#96C14F"/>
<path d="M4.24373 9.1388C4.25078 8.37533 4.4509 7.69261 4.84407 7.09053C5.0671 6.74845 5.53167 6.24115 6.2378 5.56851C7.50724 4.35993 8.95033 3.39817 10.5671 2.68324C10.687 2.63035 10.7108 2.65811 10.6385 2.76655C10.4093 3.11123 10.2074 3.46913 10.0328 3.84026C9.86447 4.19905 9.74724 4.58913 9.68111 5.01051C9.60004 5.52621 9.55551 6.04589 9.54756 6.56952C9.54671 6.61288 9.52975 6.65437 9.49999 6.68589C7.85764 8.434 6.38634 10.3157 5.08605 12.3309C4.93972 12.5583 4.81894 12.795 4.72374 13.0409C4.64351 13.2446 4.57872 13.2397 4.52935 13.0264C4.29486 12.0126 4.19657 10.9874 4.23447 9.95069C4.23536 9.94184 4.23844 9.67123 4.24373 9.1388Z" fill="#96C14F"/>
<path d="M2.08318 18.2745C1.65342 17.7852 1.61507 16.1729 1.7526 14.9423C2.00825 12.6626 2.6844 10.5174 3.78104 8.50652C3.8119 8.4501 3.84981 8.42188 3.89477 8.42188C3.90302 8.42172 3.91115 8.4238 3.91863 8.42796C3.92611 8.43212 3.93275 8.43831 3.93813 8.44604C3.94351 8.45383 3.94749 8.46295 3.94982 8.47292C3.95214 8.4829 3.95276 8.49346 3.95162 8.50391C3.92342 8.73484 3.89344 8.96583 3.8617 9.19676C3.65366 10.6804 3.81057 12.1226 4.33245 13.5234C4.39857 13.7006 4.38799 13.8733 4.30072 14.0417C3.51702 15.565 3.07713 17.2285 2.98104 19.0322C2.97222 19.1908 2.91492 19.2107 2.80913 19.0916C2.68181 18.9498 2.51294 18.7637 2.08318 18.2745Z" fill="#96C14F"/>
<path d="M1.97831 18.4795C2.24955 19.0301 2.92906 19.3721 3.10097 20.0676C3.76874 22.4134 4.80271 24.3082 6.27985 26.1489C5.51201 25.5107 4.83145 24.7984 4.23816 24.0121C3.72599 23.3342 3.28962 22.5712 2.92906 21.7232C2.52355 20.7693 2.19473 19.7458 1.94261 18.6527C1.92321 18.5717 1.93512 18.5139 1.97831 18.4795Z" fill="#96C14F"/>
<path d="M21.7697 13.5712C35.8911 36.3784 -4.76839 35.639 10.3665 13.5712C12.7988 9.3515 14.0693 6.85166 16.1681 2.13379C18.0247 6.68766 19.2262 9.19848 21.7697 13.5712Z" fill="url(#paint0_linear_1593_12501)"/>
<path d="M10.5762 26.1335V23.9829H12.0176V24.3259H10.9714V24.8722H11.8868V25.2064H10.9714V25.7906H12.0322V26.1335H10.5762ZM12.389 26.1335V24.5932H12.7726V24.8054H12.7872C12.8143 24.7453 12.8588 24.6901 12.9208 24.6397C12.9828 24.5893 13.0759 24.5642 13.1999 24.5642C13.2386 24.5642 13.2706 24.5671 13.2957 24.5729C13.3209 24.5768 13.3335 24.5787 13.3335 24.5787V24.9536C13.3335 24.9536 13.319 24.9516 13.2899 24.9478C13.2628 24.9439 13.2289 24.942 13.1882 24.942C13.0526 24.942 12.9499 24.9797 12.8802 25.0553C12.8104 25.1309 12.7755 25.2529 12.7755 25.4215V26.1335H12.389ZM14.0863 26.1626C13.9255 26.1626 13.8034 26.1132 13.7201 26.0144C13.6387 25.9155 13.598 25.7886 13.598 25.6337V24.5932H13.9816V25.5697C13.9816 25.653 14.0039 25.7198 14.0485 25.7702C14.093 25.8187 14.156 25.8429 14.2374 25.8429C14.3091 25.8429 14.3672 25.8245 14.4117 25.7877C14.4563 25.7508 14.4883 25.7034 14.5076 25.6453C14.529 25.5872 14.5396 25.5271 14.5396 25.4651V24.5932H14.9261V26.1335H14.5396V25.9126H14.5222C14.5028 25.9475 14.4747 25.9843 14.4379 26.023C14.4031 26.0618 14.3565 26.0947 14.2984 26.1219C14.2422 26.149 14.1715 26.1626 14.0863 26.1626ZM15.8029 26.1335L15.2304 24.5932H15.6227L16.0092 25.6917L16.3899 24.5932H16.7823L16.2068 26.1335H15.8029ZM17.6293 24.5642C17.7281 24.5642 17.8095 24.5806 17.8735 24.6136C17.9374 24.6446 17.9877 24.6795 18.0245 24.7182C18.0614 24.755 18.0866 24.785 18.1001 24.8083H18.1176V24.5932H18.5041V26.1335H18.1176V25.9185H18.1001C18.0866 25.9417 18.0614 25.9727 18.0245 26.0114C17.9877 26.0502 17.9374 26.0851 17.8735 26.1161C17.8095 26.147 17.7281 26.1626 17.6293 26.1626C17.515 26.1626 17.4153 26.1403 17.33 26.0957C17.2448 26.0492 17.1731 25.9882 17.1149 25.9126C17.0587 25.8352 17.0161 25.7489 16.9871 25.654C16.96 25.559 16.9464 25.4622 16.9464 25.3634C16.9464 25.2645 16.96 25.1677 16.9871 25.0728C17.0161 24.9778 17.0587 24.8925 17.1149 24.817C17.1731 24.7395 17.2448 24.6785 17.33 24.6339C17.4153 24.5874 17.515 24.5642 17.6293 24.5642ZM17.7311 24.881C17.6439 24.881 17.5703 24.9052 17.5102 24.9536C17.4521 25.0001 17.4084 25.0602 17.3794 25.1338C17.3504 25.2074 17.3358 25.284 17.3358 25.3634C17.3358 25.4428 17.3504 25.5193 17.3794 25.593C17.4084 25.6666 17.4521 25.7276 17.5102 25.7761C17.5703 25.8226 17.6439 25.8458 17.7311 25.8458C17.8183 25.8458 17.8909 25.8226 17.949 25.7761C18.0071 25.7276 18.0507 25.6666 18.0798 25.593C18.1089 25.5193 18.1234 25.4428 18.1234 25.3634C18.1234 25.284 18.1089 25.2074 18.0798 25.1338C18.0507 25.0602 18.0071 25.0001 17.949 24.9536C17.8909 24.9052 17.8183 24.881 17.7311 24.881ZM18.9002 26.1335V23.9248H19.2867V25.2035L19.8301 24.5932H20.2864L19.6471 25.2965L20.3068 26.1335H19.8447L19.2867 25.4244V26.1335H18.9002ZM21.1088 24.5642C21.2076 24.5642 21.289 24.5806 21.3529 24.6136C21.4168 24.6446 21.4672 24.6795 21.504 24.7182C21.5408 24.755 21.566 24.785 21.5796 24.8083H21.597V24.5932H21.9835V26.1335H21.597V25.9185H21.5796C21.566 25.9417 21.5408 25.9727 21.504 26.0114C21.4672 26.0502 21.4168 26.0851 21.3529 26.1161C21.289 26.147 21.2076 26.1626 21.1088 26.1626C20.9945 26.1626 20.8947 26.1403 20.8095 26.0957C20.7242 26.0492 20.6525 25.9882 20.5944 25.9126C20.5382 25.8352 20.4956 25.7489 20.4665 25.654C20.4394 25.559 20.4258 25.4622 20.4258 25.3634C20.4258 25.2645 20.4394 25.1677 20.4665 25.0728C20.4956 24.9778 20.5382 24.8925 20.5944 24.817C20.6525 24.7395 20.7242 24.6785 20.8095 24.6339C20.8947 24.5874 20.9945 24.5642 21.1088 24.5642ZM21.2105 24.881C21.1233 24.881 21.0497 24.9052 20.9896 24.9536C20.9315 25.0001 20.8879 25.0602 20.8588 25.1338C20.8298 25.2074 20.8153 25.284 20.8153 25.3634C20.8153 25.4428 20.8298 25.5193 20.8588 25.593C20.8879 25.6666 20.9315 25.7276 20.9896 25.7761C21.0497 25.8226 21.1233 25.8458 21.2105 25.8458C21.2977 25.8458 21.3704 25.8226 21.4284 25.7761C21.4866 25.7276 21.5302 25.6666 21.5593 25.593C21.5883 25.5193 21.6028 25.4428 21.6028 25.3634C21.6028 25.284 21.5883 25.2074 21.5593 25.1338C21.5302 25.0602 21.4866 25.0001 21.4284 24.9536C21.3704 24.9052 21.2977 24.881 21.2105 24.881Z" fill="white"/>
<path d="M41.6055 23.4666V8.50974H51.6306V10.8947H44.3543V14.6946H50.721V17.019H44.3543V21.0816H51.7317V23.4666H41.6055ZM53.9104 23.4666V12.7542H56.5781V14.2297H56.6794C56.8677 13.812 57.1781 13.428 57.609 13.0776C58.0405 12.7273 58.6869 12.5521 59.5493 12.5521C59.8192 12.5521 60.041 12.5723 60.2165 12.6127C60.3914 12.6397 60.4794 12.6531 60.4794 12.6531V15.2605C60.4794 15.2605 60.3781 15.2471 60.176 15.2201C59.9872 15.1931 59.7514 15.1797 59.4688 15.1797C58.5253 15.1797 57.8112 15.4424 57.3264 15.9679C56.841 16.4935 56.5984 17.3424 56.5984 18.5146V23.4666H53.9104ZM65.4112 23.6687C64.2928 23.6687 63.4437 23.3251 62.8645 22.6379C62.2986 21.9507 62.0154 21.0681 62.0154 19.9901V12.7542H64.6837V19.5455C64.6837 20.1249 64.8384 20.5897 65.1482 20.9401C65.4586 21.2769 65.8965 21.4454 66.4624 21.4454C66.961 21.4454 67.3653 21.3174 67.6752 21.0614C67.985 20.8054 68.2074 20.4752 68.3418 20.071C68.4901 19.6667 68.5642 19.249 68.5642 18.8178V12.7542H71.2522V23.4666H68.5642V21.9305H68.4432C68.3082 22.173 68.113 22.429 67.857 22.6985C67.6144 22.968 67.2912 23.1971 66.8869 23.3857C66.496 23.5744 66.0042 23.6687 65.4112 23.6687ZM77.0469 23.4666L73.065 12.7542H75.7936L78.4821 20.3944L81.1296 12.7542H83.8581L79.8565 23.4666H77.0469ZM89.4464 12.5521C90.1338 12.5521 90.6997 12.6666 91.1445 12.8957C91.5888 13.1113 91.9392 13.3538 92.1952 13.6233C92.4512 13.8794 92.6266 14.0882 92.721 14.2499H92.8421V12.7542H95.5301V23.4666H92.8421V21.9709H92.721C92.6266 22.1326 92.4512 22.3482 92.1952 22.6177C91.9392 22.8872 91.5888 23.1297 91.1445 23.3453C90.6997 23.5609 90.1338 23.6687 89.4464 23.6687C88.6512 23.6687 87.9573 23.5137 87.3648 23.2038C86.7717 22.8805 86.273 22.456 85.8688 21.9305C85.4784 21.3915 85.1818 20.7919 84.9797 20.1316C84.7909 19.4713 84.6965 18.7976 84.6965 18.1104C84.6965 17.4232 84.7909 16.7495 84.9797 16.0892C85.1818 15.4289 85.4784 14.8361 85.8688 14.3105C86.273 13.7715 86.7717 13.3471 87.3648 13.0372C87.9573 12.7138 88.6512 12.5521 89.4464 12.5521ZM90.1541 14.7552C89.5477 14.7552 89.0357 14.9237 88.6176 15.2605C88.2133 15.5839 87.9104 16.0016 87.7082 16.5137C87.5061 17.0257 87.4048 17.5579 87.4048 18.1104C87.4048 18.6629 87.5061 19.1951 87.7082 19.7072C87.9104 20.2192 88.2133 20.6437 88.6176 20.9805C89.0357 21.3039 89.5477 21.4656 90.1541 21.4656C90.76 21.4656 91.2656 21.3039 91.6698 20.9805C92.0741 20.6437 92.377 20.2192 92.5792 19.7072C92.7813 19.1951 92.8826 18.6629 92.8826 18.1104C92.8826 17.5579 92.7813 17.0257 92.5792 16.5137C92.377 16.0016 92.0741 15.5839 91.6698 15.2605C91.2656 14.9237 90.76 14.7552 90.1541 14.7552ZM97.9818 23.4666V8.10547H100.67V16.9987L104.45 12.7542H107.623L103.177 17.6455L107.765 23.4666H104.551L100.67 18.5349V23.4666H97.9818ZM113.039 12.5521C113.726 12.5521 114.292 12.6666 114.737 12.8957C115.182 13.1113 115.532 13.3538 115.788 13.6233C116.044 13.8794 116.219 14.0882 116.314 14.2499H116.435V12.7542H119.123V23.4666H116.435V21.9709H116.314C116.219 22.1326 116.044 22.3482 115.788 22.6177C115.532 22.8872 115.182 23.1297 114.737 23.3453C114.292 23.5609 113.726 23.6687 113.039 23.6687C112.244 23.6687 111.55 23.5137 110.957 23.2038C110.364 22.8805 109.866 22.456 109.462 21.9305C109.071 21.3915 108.774 20.7919 108.572 20.1316C108.384 19.4713 108.29 18.7976 108.29 18.1104C108.29 17.4232 108.384 16.7495 108.572 16.0892C108.774 15.4289 109.071 14.8361 109.462 14.3105C109.866 13.7715 110.364 13.3471 110.957 13.0372C111.55 12.7138 112.244 12.5521 113.039 12.5521ZM113.747 14.7552C113.14 14.7552 112.628 14.9237 112.211 15.2605C111.806 15.5839 111.503 16.0016 111.301 16.5137C111.099 17.0257 110.998 17.5579 110.998 18.1104C110.998 18.6629 111.099 19.1951 111.301 19.7072C111.503 20.2192 111.806 20.6437 112.211 20.9805C112.628 21.3039 113.14 21.4656 113.747 21.4656C114.353 21.4656 114.858 21.3039 115.262 20.9805C115.667 20.6437 115.97 20.2192 116.172 19.7072C116.374 19.1951 116.475 18.6629 116.475 18.1104C116.475 17.5579 116.374 17.0257 116.172 16.5137C115.97 16.0016 115.667 15.5839 115.262 15.2605C114.858 14.9237 114.353 14.7552 113.747 14.7552Z" fill="#5FD8FF"/>
<defs>
<linearGradient id="paint0_linear_1593_12501" x1="16.068" y1="2.13379" x2="16.6519" y2="31.0315" gradientUnits="userSpaceOnUse">
<stop stop-color="white"/>
<stop offset="1" stop-color="#85D0E3"/>
</linearGradient>
</defs>
</svg>
