<svg width="128" height="25" viewBox="0 0 128 25" fill="none" xmlns="http://www.w3.org/2000/svg">
<path d="M4.77765 16.5075C7.2987 16.5075 9.3424 14.4637 9.3424 11.9427C9.3424 9.42163 7.2987 7.37793 4.77765 7.37793C2.2566 7.37793 0.212891 9.42163 0.212891 11.9427C0.212891 14.4637 2.2566 16.5075 4.77765 16.5075Z" fill="url(#paint0_linear_1593_12556)"/>
<path d="M41.7718 17.3034C44.2928 17.3034 46.3366 15.2596 46.3366 12.7386C46.3366 10.2175 44.2928 8.17383 41.7718 8.17383C39.2507 8.17383 37.207 10.2175 37.207 12.7386C37.207 15.2596 39.2507 17.3034 41.7718 17.3034Z" fill="url(#paint1_linear_1593_12556)"/>
<path d="M4.06152 4.90936C3.42458 5.80108 3.99074 6.05942 4.35345 6.07707H8.17512C12.3789 2.53144 16.9685 4.29895 18.7377 5.62593C19.7356 6.4115 20.7989 5.95327 21.2059 5.62593C22.2675 4.2671 21.6482 3.1843 21.2059 2.81275C13.4989 -2.8985 6.56507 1.8308 4.06152 4.90936Z" fill="url(#paint2_linear_1593_12556)"/>
<path d="M42.5931 19.7872C43.2315 18.8964 42.6657 18.6372 42.303 18.6189L38.4814 18.6128C34.2719 22.1517 29.6852 20.3768 27.918 19.047C26.9214 18.2599 25.8573 18.7164 25.4499 19.0431C24.3861 20.4002 25.0036 21.484 25.4454 21.8562C33.1432 27.5798 40.0846 22.8617 42.5931 19.7872Z" fill="url(#paint3_linear_1593_12556)"/>
<path d="M4.06122 17.808C2.91472 17.8717 3.22966 18.6307 3.53044 19.0022C6.77882 23.928 12.0141 24.7171 14.2257 24.4959C12.7484 24.4516 10.7385 24.3897 14.5177 24.4959C18.2969 24.602 21.8779 21.4969 23.196 19.9311L30.6536 10.8547C31.2905 9.87806 30.919 8.89076 30.6536 8.51925C29.8892 7.3303 28.4419 7.75847 27.8139 8.12113L21.816 15.6318C20.6695 17.2453 18.9852 18.6926 18.2863 19.2146C13.5516 22.4842 8.98866 19.6392 7.29903 17.808C6.69746 17.7814 5.20772 17.7443 4.06122 17.808Z" fill="url(#paint4_linear_1593_12556)"/>
<path d="M42.0731 6.70974C43.2196 6.64474 42.9037 5.88609 42.6025 5.5149C39.3483 0.593021 34.1121 -0.189921 31.9008 0.0338403C33.3781 0.0763328 35.3881 0.13589 31.6088 0.0341843C27.8295 -0.0675214 24.2521 3.04179 22.9359 4.60916L15.489 13.6944C14.8532 14.6717 15.2259 15.6586 15.4917 16.0298C16.2575 17.2179 17.7042 16.788 18.3319 16.4245L24.321 8.90687C25.4655 7.29198 27.1482 5.84271 27.8464 5.31995C32.5772 2.04472 37.1435 4.88436 38.8353 6.71359C39.4369 6.73943 40.9267 6.77484 42.0731 6.70974Z" fill="url(#paint5_linear_1593_12556)"/>
<path d="M62.9186 8.78776H56.4436V12.2544H62.0603V14.1044H56.4436V19.2711H54.127V6.93776H62.9186V8.78776ZM65.2723 19.2711V10.1794H67.5389V19.2711H65.2723ZM66.4056 8.62943C65.928 8.62943 65.5697 8.52667 65.3306 8.32109C65.0973 8.11552 64.9806 7.82109 64.9806 7.43776C64.9806 7.05443 65.0973 6.76 65.3306 6.55443C65.5697 6.34885 65.928 6.24609 66.4056 6.24609C66.8832 6.24609 67.2389 6.34885 67.4723 6.55443C67.7113 6.76 67.8306 7.05443 67.8306 7.43776C67.8306 7.82109 67.7113 8.11552 67.4723 8.32109C67.2389 8.52667 66.8832 8.62943 66.4056 8.62943ZM73.9113 23.1044C73.378 23.1044 72.8363 23.0683 72.2863 22.9961C71.7421 22.9294 71.2197 22.8267 70.7197 22.6878V20.9044C71.7921 21.21 72.803 21.3628 73.753 21.3628C74.4306 21.3628 74.978 21.2794 75.3947 21.1128C75.8113 20.9517 76.1171 20.6933 76.3113 20.3378C76.5113 19.9878 76.6113 19.5211 76.6113 18.9378V18.2794H76.503C76.1863 18.6128 75.803 18.8711 75.353 19.0544C74.9087 19.2378 74.4113 19.3294 73.8613 19.3294C73.1556 19.3294 72.5197 19.1711 71.953 18.8544C71.3863 18.5322 70.9337 18.0405 70.5947 17.3794C70.2613 16.7183 70.0947 15.8961 70.0947 14.9128C70.0947 13.3294 70.5363 12.1211 71.4197 11.2878C72.3087 10.4544 73.6171 10.0378 75.3447 10.0378C75.9447 10.0378 76.5587 10.0822 77.1863 10.1711C77.8139 10.2544 78.378 10.3739 78.878 10.5294V18.5294C78.878 19.5961 78.6973 20.4655 78.3363 21.1378C77.9754 21.8155 77.4306 22.3128 76.703 22.6294C75.9754 22.9461 75.0447 23.1044 73.9113 23.1044ZM74.6447 17.4878C75.0171 17.4878 75.3754 17.4239 75.7197 17.2961C76.0639 17.1683 76.3613 16.9767 76.6113 16.7211V11.9378C76.1447 11.8267 75.6587 11.7711 75.153 11.7711C74.2306 11.7711 73.5363 12.0128 73.0697 12.4961C72.603 12.9739 72.3697 13.7155 72.3697 14.7211C72.3697 15.7155 72.5671 16.4267 72.9613 16.8544C73.3613 17.2767 73.9223 17.4878 74.6447 17.4878Z" fill="#235BD4"/>
<path d="M82.0391 19.2704V6.93704H84.3557V17.387H90.5807V19.2704H82.0391ZM92.6635 19.2704V10.1787H94.9302V19.2704H92.6635ZM93.7969 8.62871C93.3193 8.62871 92.9609 8.52595 92.7219 8.32038C92.4885 8.1148 92.3719 7.82038 92.3719 7.43704C92.3719 7.05371 92.4885 6.75928 92.7219 6.55371C92.9609 6.34814 93.3193 6.24538 93.7969 6.24538C94.2745 6.24538 94.6302 6.34814 94.8635 6.55371C95.1026 6.75928 95.2219 7.05371 95.2219 7.43704C95.2219 7.82038 95.1026 8.1148 94.8635 8.32038C94.6302 8.52595 94.2745 8.62871 93.7969 8.62871ZM97.9526 10.1787H99.8193L99.9693 11.1287H100.086C100.464 10.7787 100.905 10.5093 101.411 10.3204C101.917 10.1315 102.455 10.037 103.028 10.037C104.05 10.037 104.853 10.3315 105.436 10.9204C106.025 11.5037 106.319 12.4204 106.319 13.6704V19.2704H104.053V13.787C104.053 13.137 103.911 12.6731 103.628 12.3954C103.35 12.1176 102.939 11.9787 102.394 11.9787C101.989 11.9787 101.592 12.0565 101.203 12.212C100.814 12.3676 100.486 12.601 100.219 12.912V19.2704H97.9526V10.1787ZM115.855 19.2704L112.98 15.5287H111.53V19.2704H109.264V5.80371H111.53V13.687H112.964L115.614 10.1787H118.064L114.83 14.562L118.355 19.2704H115.855ZM122.608 19.437C121.486 19.437 120.478 19.3037 119.583 19.037V17.4037C120.522 17.6815 121.525 17.8204 122.592 17.8204C123.297 17.8204 123.806 17.726 124.117 17.537C124.428 17.3481 124.583 17.0704 124.583 16.7037C124.583 16.4148 124.503 16.1954 124.342 16.0454C124.181 15.8898 123.897 15.7731 123.492 15.6954L121.95 15.4454C121.044 15.2898 120.389 15.001 119.983 14.5787C119.583 14.1565 119.383 13.587 119.383 12.8704C119.383 12.2981 119.539 11.801 119.85 11.3787C120.161 10.951 120.636 10.6204 121.275 10.387C121.919 10.1537 122.725 10.037 123.692 10.037C124.142 10.037 124.586 10.0648 125.025 10.1204C125.464 10.176 125.864 10.2537 126.225 10.3537V11.987C125.436 11.7648 124.603 11.6537 123.725 11.6537C122.919 11.6537 122.35 11.7565 122.017 11.962C121.689 12.162 121.525 12.4398 121.525 12.7954C121.525 13.0565 121.603 13.2676 121.758 13.4287C121.919 13.5843 122.197 13.6981 122.592 13.7704L124.133 14.0287C125.028 14.1843 125.683 14.462 126.1 14.862C126.517 15.2565 126.725 15.8343 126.725 16.5954C126.725 17.1843 126.567 17.6926 126.25 18.1204C125.939 18.5426 125.475 18.8676 124.858 19.0954C124.242 19.3231 123.492 19.437 122.608 19.437Z" fill="black"/>
<defs>
<linearGradient id="paint0_linear_1593_12556" x1="11.6789" y1="11.3334" x2="0.278367" y2="11.1806" gradientUnits="userSpaceOnUse">
<stop stop-color="#0644CD"/>
<stop offset="1" stop-color="#2158D5"/>
</linearGradient>
<linearGradient id="paint1_linear_1593_12556" x1="46.3879" y1="12.222" x2="34.4434" y2="11.9442" gradientUnits="userSpaceOnUse">
<stop stop-color="#DC984D"/>
<stop offset="1" stop-color="#BF8243"/>
</linearGradient>
<linearGradient id="paint2_linear_1593_12556" x1="29.1676" y1="3.05511" x2="5.00096" y2="4.30511" gradientUnits="userSpaceOnUse">
<stop stop-color="#0644CD"/>
<stop offset="1" stop-color="#2158D5"/>
</linearGradient>
<linearGradient id="paint3_linear_1593_12556" x1="24.255" y1="20.514" x2="49.8613" y2="20.2086" gradientUnits="userSpaceOnUse">
<stop stop-color="#DC984D"/>
<stop offset="1" stop-color="#BF8243"/>
</linearGradient>
<linearGradient id="paint4_linear_1593_12556" x1="40.5124" y1="12.7501" x2="3.19517" y2="18.3334" gradientUnits="userSpaceOnUse">
<stop stop-color="#0644CD"/>
<stop offset="1" stop-color="#2158D5"/>
</linearGradient>
<linearGradient id="paint5_linear_1593_12556" x1="52.4304" y1="9.2741e-07" x2="12.0136" y2="1.73611" gradientUnits="userSpaceOnUse">
<stop stop-color="#BF8243"/>
<stop offset="1" stop-color="#DC984D"/>
</linearGradient>
</defs>
</svg>
