<svg width="44" height="32" viewBox="0 0 44 32" fill="none" xmlns="http://www.w3.org/2000/svg">
<path d="M1.22998 28.1515V30.2549H0V24.2845H2.32775C2.77535 24.2845 3.17079 24.367 3.51043 24.5308C3.85008 24.6945 4.11206 24.9286 4.29523 25.2294C4.4784 25.5315 4.56938 25.876 4.56938 26.2605C4.56938 26.8452 4.36925 27.3073 3.96893 27.6445C3.56864 27.9817 3.01552 28.1515 2.30713 28.1515H1.22998ZM1.22998 27.1545H2.32775C2.65284 27.1545 2.9015 27.078 3.07253 26.9252C3.24358 26.7724 3.32848 26.5528 3.32848 26.269C3.32848 25.9766 3.24237 25.7401 3.07011 25.5594C2.89786 25.3786 2.66012 25.2864 2.35565 25.2816H1.22998V27.1545ZM7.37869 30.3374C6.7273 30.3374 6.19843 30.1372 5.78966 29.7381C5.38086 29.339 5.17709 28.8078 5.17709 28.143V28.0278C5.17709 27.5826 5.26202 27.1848 5.43424 26.833C5.6065 26.4813 5.85152 26.2108 6.16691 26.0215C6.48227 25.8311 6.84256 25.7365 7.24646 25.7365C7.85418 25.7365 8.33091 25.9281 8.68026 26.3102C9.02838 26.6935 9.20304 27.2345 9.20304 27.9368V28.4208H6.37795C6.41677 28.7107 6.532 28.9436 6.7249 29.1183C6.91776 29.293 7.16157 29.3815 7.45632 29.3815C7.91242 29.3815 8.27024 29.2166 8.52618 28.8842L9.10842 29.5368C8.93011 29.7878 8.69117 29.9844 8.38669 30.1251C8.08346 30.267 7.74746 30.3374 7.37869 30.3374ZM7.24285 26.6959C7.00752 26.6959 6.81709 26.776 6.67152 26.9337C6.52474 27.0914 6.43133 27.3182 6.39008 27.6142H8.03856V27.5196C8.03373 27.2576 7.96214 27.0538 7.82509 26.9118C7.68922 26.7675 7.49392 26.6959 7.24285 26.6959ZM11.9165 30.3374C11.2664 30.3374 10.7363 30.1372 10.3275 29.7381C9.91994 29.339 9.71494 28.8078 9.71494 28.143V28.0278C9.71494 27.5826 9.80106 27.1848 9.97331 26.833C10.1443 26.4813 10.3894 26.2108 10.7047 26.0215C11.0213 25.8311 11.3804 25.7365 11.7843 25.7365C12.392 25.7365 12.87 25.9281 13.2181 26.3102C13.5662 26.6935 13.7409 27.2345 13.7409 27.9368V28.4208H10.9158C10.9546 28.7107 11.0699 28.9436 11.2627 29.1183C11.4556 29.293 11.6994 29.3815 11.9942 29.3815C12.4515 29.3815 12.8081 29.2166 13.064 28.8842L13.6463 29.5368C13.468 29.7878 13.229 29.9844 12.9258 30.1251C12.6213 30.267 12.2853 30.3374 11.9165 30.3374ZM11.7807 26.6959C11.5453 26.6959 11.3549 26.776 11.2093 26.9337C11.0626 27.0914 10.9692 27.3182 10.9279 27.6142H12.5764V27.5196C12.5716 27.2576 12.5 27.0538 12.3629 26.9118C12.2271 26.7675 12.033 26.6959 11.7807 26.6959ZM18.4061 28.0775C18.4061 28.7617 18.2508 29.3087 17.9403 29.7199C17.631 30.1311 17.2113 30.3374 16.6836 30.3374C16.236 30.3374 15.8733 30.1821 15.598 29.8691V31.9603H14.4129V25.819H15.5119L15.5531 26.2532C15.8406 25.9075 16.2142 25.7365 16.6751 25.7365C17.2222 25.7365 17.648 25.939 17.9512 26.343C18.2545 26.7481 18.4061 27.3049 18.4061 28.0157V28.0775ZM17.221 27.9902C17.221 27.5778 17.1482 27.26 17.0014 27.0344C16.8559 26.8112 16.6436 26.6984 16.3646 26.6984C15.9922 26.6984 15.7375 26.8415 15.598 27.1253V28.9424C15.7423 29.2347 16.0007 29.3815 16.3731 29.3815C16.9384 29.3815 17.221 28.9182 17.221 27.9902ZM21.7964 29.8036C21.5029 30.159 21.099 30.3374 20.5822 30.3374C20.1067 30.3374 19.744 30.2003 19.4941 29.9274C19.2443 29.6544 19.1157 29.2529 19.1108 28.7253V25.819H20.2959V28.684C20.2959 29.1462 20.507 29.3766 20.9267 29.3766C21.3282 29.3766 21.606 29.2372 21.7552 28.9582V25.819H22.9452V30.2549H21.8292L21.7964 29.8036ZM25.0885 30.2549H23.8986V23.957H25.0885V30.2549ZM31.6023 29.0249H29.4456L29.0356 30.2549H27.7292L29.9502 24.2845H31.0905L33.3248 30.2549H32.0173L31.6023 29.0249ZM29.778 28.0278H31.2712L30.5204 25.7935L29.778 28.0278ZM33.6317 28.0048C33.6317 27.3231 33.7942 26.7748 34.1168 26.3587C34.4419 25.9427 34.8787 25.7365 35.4269 25.7365C35.9133 25.7365 36.2931 25.9027 36.5635 26.2374L36.6122 25.819H37.6867V30.1057C37.6867 30.495 37.5981 30.8322 37.4224 31.1197C37.2464 31.406 36.9978 31.6243 36.6774 31.7759C36.3574 31.9252 35.9837 32.0004 35.5542 32.0004C35.2291 32.0004 34.9114 31.9361 34.6045 31.8063C34.2954 31.6765 34.0611 31.5091 33.9034 31.3041L34.4275 30.5836C34.7235 30.9135 35.08 31.0785 35.5008 31.0785C35.8163 31.0785 36.0602 30.9948 36.2362 30.8262C36.4106 30.6588 36.497 30.4198 36.497 30.1117V29.874C36.224 30.1833 35.865 30.3374 35.4195 30.3374C34.887 30.3374 34.4554 30.1287 34.1254 29.7114C33.7968 29.2942 33.6317 28.7422 33.6317 28.0533V28.0048ZM34.8166 28.0897C34.8166 28.4912 34.8979 28.8066 35.0582 29.0346C35.2195 29.2626 35.4403 29.3766 35.7216 29.3766C36.0832 29.3766 36.3414 29.2408 36.497 28.9715V27.1047C36.3392 26.8342 36.0832 26.6984 35.7302 26.6984C35.4464 26.6984 35.2221 26.8148 35.0605 27.0477C34.8979 27.2794 34.8166 27.6263 34.8166 28.0897ZM41.0893 26.9276C40.928 26.907 40.7846 26.8961 40.6634 26.8961C40.2134 26.8961 39.92 27.0477 39.7818 27.3509V30.2549H38.5965V25.819H39.7162L39.7475 26.3478C39.9853 25.9403 40.3142 25.7365 40.7363 25.7365C40.8672 25.7365 40.991 25.7547 41.105 25.7886L41.0893 26.9276ZM42.9088 30.2549H41.72V25.819H42.9088V30.2549ZM41.6496 24.6715C41.6496 24.4932 41.7104 24.3464 41.8291 24.2311C41.9482 24.1171 42.1107 24.0601 42.3142 24.0601C42.5168 24.0601 42.6784 24.1171 42.7984 24.2311C42.9184 24.3464 42.9792 24.4932 42.9792 24.6715C42.9792 24.8498 42.9171 24.999 42.7958 25.113C42.6746 25.2282 42.5146 25.2852 42.3142 25.2852C42.1142 25.2852 41.9552 25.2282 41.833 25.113C41.7114 24.999 41.6496 24.8498 41.6496 24.6715Z" fill="#05A155"/>
<path fill-rule="evenodd" clip-rule="evenodd" d="M15.1393 9.23965C14.5316 9.59018 13.7589 9.61568 13.1063 9.23965C12.455 8.86362 12.0911 8.18071 12.0898 7.47959C12.6988 7.12903 13.4714 7.10355 14.1228 7.47959C14.7742 7.85562 15.1393 8.53853 15.1393 9.23965Z" fill="#05A155"/>
<path fill-rule="evenodd" clip-rule="evenodd" d="M13.8163 12.9235C13.4657 13.5312 12.8083 13.9399 12.0562 13.9399C11.3041 13.9399 10.6467 13.5312 10.2949 12.9235C10.6467 12.317 11.3041 11.9082 12.0562 11.9082C12.8083 11.9082 13.4657 12.317 13.8163 12.9235Z" fill="#05A155"/>
<path fill-rule="evenodd" clip-rule="evenodd" d="M21.4891 5.46729C22.1708 5.07184 22.6305 4.33437 22.6305 3.48889C22.6305 2.64466 22.1708 1.90716 21.4891 1.51172C20.8062 1.90716 20.3477 2.64466 20.3477 3.48889C20.3477 4.33437 20.8062 5.07184 21.4891 5.46729Z" fill="#05A155"/>
<path fill-rule="evenodd" clip-rule="evenodd" d="M28.1367 9.08633C28.7444 9.43686 29.5171 9.46233 30.1697 9.08633C30.8211 8.7103 31.185 8.02739 31.1862 7.32627C30.5773 6.97571 29.8046 6.95023 29.1532 7.32627C28.5018 7.7023 28.1367 8.38521 28.1367 9.08633Z" fill="#05A155"/>
<path fill-rule="evenodd" clip-rule="evenodd" d="M29.1641 12.9235C29.5158 13.5312 30.1721 13.9399 30.9253 13.9399C31.6774 13.9399 32.3338 13.5312 32.6854 12.9235C32.3338 12.317 31.6774 11.9082 30.9253 11.9082C30.1721 11.9082 29.5158 12.317 29.1641 12.9235Z" fill="#05A155"/>
<path fill-rule="evenodd" clip-rule="evenodd" d="M18.9385 3.40122C19.4346 2.90511 19.659 2.16397 19.465 1.4374C19.2697 0.710813 18.7056 0.181948 18.0276 0C17.5314 0.497325 17.307 1.23725 17.5011 1.96383C17.6964 2.69041 18.2617 3.21926 18.9385 3.40122Z" fill="#05A155"/>
<path fill-rule="evenodd" clip-rule="evenodd" d="M14.52 5.95369C14.7007 5.27443 14.526 4.52115 13.9935 3.98989C13.4622 3.45737 12.7077 3.28269 12.0297 3.46342C11.8489 4.1415 12.0248 4.89475 12.5561 5.42726C13.0886 5.95856 13.8419 6.13443 14.52 5.95369Z" fill="#05A155"/>
<path fill-rule="evenodd" clip-rule="evenodd" d="M11.9677 10.3726C11.7845 9.69454 11.2556 9.12926 10.529 8.93518C9.80244 8.73992 9.06253 8.96552 8.56641 9.46165C8.74836 10.1385 9.27722 10.7037 10.0038 10.899C10.7304 11.0931 11.4703 10.8687 11.9677 10.3726Z" fill="#05A155"/>
<path fill-rule="evenodd" clip-rule="evenodd" d="M11.9677 15.4748C11.4703 14.9787 10.7304 14.7543 10.0038 14.9484C9.27722 15.1437 8.74836 15.7077 8.56641 16.3858C9.06253 16.8819 9.80244 17.1063 10.529 16.9122C11.2556 16.7169 11.7845 16.1529 11.9677 15.4748Z" fill="#05A155"/>
<path fill-rule="evenodd" clip-rule="evenodd" d="M24.0405 3.40122C24.7186 3.21926 25.2838 2.69041 25.4779 1.96383C25.6732 1.23725 25.4476 0.497325 24.9527 0C24.2746 0.181948 23.7094 0.710813 23.5153 1.4374C23.32 2.16397 23.5456 2.90511 24.0405 3.40122Z" fill="#05A155"/>
<path fill-rule="evenodd" clip-rule="evenodd" d="M28.462 5.95369C29.1401 6.13443 29.8934 5.95856 30.4246 5.42726C30.9572 4.89475 31.1318 4.1415 30.9511 3.46342C30.273 3.28269 29.5198 3.45737 28.9872 3.98989C28.4559 4.52115 28.2801 5.27443 28.462 5.95369Z" fill="#05A155"/>
<path fill-rule="evenodd" clip-rule="evenodd" d="M31.0117 10.3726C31.509 10.8687 32.2491 11.0931 32.9755 10.8978C33.7022 10.7037 34.2309 10.1385 34.413 9.46165C33.917 8.96552 33.1758 8.73992 32.4491 8.93518C31.7225 9.12926 31.1937 9.69454 31.0117 10.3726Z" fill="#05A155"/>
<path fill-rule="evenodd" clip-rule="evenodd" d="M31.0117 15.4748C31.1937 16.1529 31.7225 16.7169 32.4491 16.9122C33.1758 17.1063 33.917 16.8819 34.413 16.3858C34.2309 15.7077 33.7022 15.1437 32.9755 14.9484C32.2491 14.7543 31.509 14.9787 31.0117 15.4748Z" fill="#05A155"/>
<path fill-rule="evenodd" clip-rule="evenodd" d="M18.3025 7.56987C17.4461 7.56987 16.614 7.12471 16.1555 6.33019C15.6957 5.53569 15.7273 4.59198 16.1543 3.84961C17.0107 3.85083 17.844 4.29479 18.3025 5.09051C18.761 5.88503 18.7307 6.82875 18.3025 7.56987Z" fill="#05A155"/>
<path fill-rule="evenodd" clip-rule="evenodd" d="M24.6757 7.56987C25.5321 7.56987 26.3655 7.12471 26.824 6.33019C27.2825 5.53569 27.2522 4.59198 26.824 3.84961C25.9676 3.85083 25.1355 4.29479 24.677 5.09051C24.2173 5.88503 24.2488 6.82875 24.6757 7.56987Z" fill="#05A155"/>
<path fill-rule="evenodd" clip-rule="evenodd" d="M28.1367 16.7608C28.1367 17.462 28.5018 18.1449 29.1532 18.5209C29.8046 18.8969 30.5773 18.8714 31.1862 18.5209C31.185 17.8186 30.8211 17.1369 30.1697 16.7608C29.5171 16.3848 28.7444 16.4103 28.1367 16.7608Z" fill="#05A155"/>
<path fill-rule="evenodd" clip-rule="evenodd" d="M14.8444 16.7608C14.8432 17.462 14.4793 18.1449 13.8279 18.5209C13.1765 18.8969 12.4026 18.8714 11.7949 18.5209C11.7949 17.8186 12.16 17.1369 12.8114 16.7608C13.4628 16.3848 14.2367 16.4103 14.8444 16.7608Z" fill="#05A155"/>
<path d="M26.1233 16.0416H24.8849L23.6246 17.3006V21.0075H30.3312V21.8821H22.75V16.9392L24.5222 15.167H26.1233V16.0416Z" fill="#A05148"/>
<path d="M21.1855 15.2313L22.9444 13.4724V11.1447L23.8808 10.207L24.4958 10.8257L23.819 11.5025V13.6531L23.6904 13.9625L21.8042 15.8499L21.1855 15.2313Z" fill="#A05148"/>
<path d="M27.2006 12.3713L25.4806 14.0913H23.3809V13.2168H25.1191L26.5819 11.7539L27.2006 12.3713Z" fill="#A05148"/>
<path d="M26.8942 15.1529C26.8323 15.1529 26.7741 15.1638 26.7231 15.1856C26.6698 15.2075 26.6212 15.2402 26.5788 15.2827C26.4975 15.3639 26.4478 15.4755 26.4478 15.598C26.4478 15.6611 26.4599 15.7193 26.4805 15.7703C26.5024 15.8224 26.5363 15.8722 26.5788 15.9146C26.6212 15.9559 26.6698 15.9898 26.7231 16.0117C26.7741 16.0323 26.8323 16.0444 26.8942 16.0444C26.9572 16.0444 27.0143 16.0323 27.0664 16.0117C27.1186 15.9898 27.1671 15.9559 27.2095 15.9146C27.252 15.8722 27.286 15.8224 27.3078 15.7703C27.3284 15.7193 27.3406 15.6611 27.3406 15.598C27.3406 15.5374 27.3284 15.4792 27.3078 15.4282V15.427C27.286 15.3749 27.252 15.3251 27.2095 15.2827C27.1671 15.2402 27.1186 15.2075 27.0664 15.1856C27.0143 15.1638 26.9572 15.1529 26.8942 15.1529ZM26.4769 14.5876C26.6067 14.533 26.7486 14.5039 26.8942 14.5039C27.0409 14.5039 27.1816 14.533 27.3114 14.5876C27.4473 14.6434 27.5686 14.7247 27.668 14.8241C27.7675 14.9236 27.8488 15.0437 27.9046 15.1796H27.9058C27.9592 15.3093 27.9895 15.4513 27.9895 15.598C27.9895 15.7448 27.9592 15.8855 27.9058 16.0165C27.8488 16.1524 27.7675 16.2737 27.668 16.3731C27.5686 16.4726 27.4485 16.5539 27.3114 16.6097C27.1816 16.663 27.0409 16.6933 26.8942 16.6933C26.7486 16.6933 26.6067 16.663 26.4769 16.6097C26.341 16.5539 26.2197 16.4726 26.1203 16.3731C26.0208 16.2737 25.9395 16.1524 25.8825 16.0165C25.8291 15.8855 25.7988 15.7448 25.7988 15.598C25.7988 15.296 25.9213 15.0219 26.1203 14.8241C26.2197 14.7247 26.341 14.6434 26.4769 14.5876Z" fill="#A05148"/>
<path d="M27.434 11.0708C27.3721 11.0708 27.3139 11.083 27.2629 11.1048C27.2108 11.1254 27.161 11.1594 27.1186 11.2018C27.0761 11.2443 27.0434 11.2928 27.0215 11.3462C26.9997 11.3971 26.9888 11.4553 26.9888 11.5172C26.9888 11.5803 26.9997 11.6373 27.0215 11.6895C27.0434 11.7416 27.0761 11.7901 27.1186 11.8326C27.161 11.8751 27.2108 11.909 27.2629 11.9308C27.3139 11.9515 27.3721 11.9636 27.434 11.9636C27.497 11.9636 27.5553 11.9515 27.6062 11.9308C27.6584 11.909 27.7069 11.8751 27.7493 11.8326C27.7918 11.7901 27.8258 11.7416 27.8476 11.6895C27.8682 11.6373 27.8803 11.5803 27.8803 11.5172C27.8803 11.4553 27.8682 11.3971 27.8476 11.3462C27.8258 11.2928 27.7918 11.2443 27.7493 11.2018C27.7069 11.1594 27.6584 11.1254 27.6062 11.1048C27.5553 11.083 27.497 11.0708 27.434 11.0708ZM27.0167 10.5056C27.1465 10.4522 27.2884 10.4219 27.434 10.4219C27.5807 10.4219 27.7214 10.4522 27.8525 10.5056C27.9883 10.5626 28.1096 10.6439 28.2091 10.7433C28.3085 10.8428 28.3898 10.9641 28.4456 11.1C28.5002 11.2297 28.5293 11.3717 28.5293 11.5172C28.5293 11.664 28.5002 11.8047 28.4456 11.9345C28.3898 12.0715 28.3085 12.1916 28.2091 12.2911C28.1096 12.3906 27.9883 12.4718 27.8525 12.5289C27.7214 12.5822 27.5807 12.6126 27.434 12.6126C27.2884 12.6126 27.1465 12.5822 27.0167 12.5289C26.8808 12.4718 26.7595 12.3906 26.6601 12.2911C26.5606 12.1916 26.4793 12.0715 26.4235 11.9345C26.3689 11.8047 26.3398 11.664 26.3398 11.5172C26.3398 11.3717 26.3689 11.2297 26.4235 11.1C26.4793 10.9641 26.5606 10.8428 26.6601 10.7433C26.7595 10.6439 26.8808 10.5626 27.0167 10.5056Z" fill="#A05148"/>
<path d="M24.7321 9.52588C24.6702 9.52588 24.6132 9.53801 24.5623 9.55865H24.561C24.5077 9.58047 24.4592 9.61443 24.4167 9.65689C24.3742 9.69935 24.3403 9.74787 24.3184 9.80003C24.2978 9.85219 24.2857 9.90921 24.2857 9.97228C24.2857 10.0341 24.2978 10.0923 24.3184 10.1433C24.3403 10.1967 24.3742 10.2452 24.4167 10.2876C24.4968 10.3689 24.6083 10.4186 24.7321 10.4186C24.7952 10.4186 24.8521 10.4065 24.9043 10.3859C24.9565 10.3641 25.005 10.3301 25.0474 10.2876C25.0899 10.2452 25.1239 10.1967 25.1457 10.1433C25.1663 10.0923 25.1784 10.0341 25.1784 9.97228C25.1784 9.90921 25.1663 9.85219 25.1457 9.80003C25.1239 9.74787 25.0899 9.69935 25.0474 9.65689C25.005 9.61443 24.9565 9.58047 24.9043 9.55865C24.8521 9.53801 24.7952 9.52588 24.7321 9.52588ZM24.3136 8.96185V8.96063C24.4434 8.90726 24.5853 8.87695 24.7321 8.87695C24.8788 8.87695 25.0196 8.90726 25.1494 8.96063C25.2852 9.01766 25.4065 9.0989 25.506 9.19839C25.6054 9.29785 25.6867 9.41916 25.7437 9.555C25.7971 9.68479 25.8274 9.8255 25.8274 9.97228C25.8274 10.119 25.7971 10.2597 25.7437 10.3895C25.6867 10.5254 25.6054 10.6467 25.506 10.7462C25.4065 10.8456 25.2864 10.9269 25.1494 10.9839C25.0196 11.0373 24.8788 11.0676 24.7321 11.0676C24.43 11.0676 24.1559 10.9451 23.9582 10.7462C23.8587 10.6467 23.7774 10.5254 23.7204 10.3895C23.6671 10.2597 23.6367 10.119 23.6367 9.97228C23.6367 9.8255 23.6671 9.68479 23.7204 9.555C23.7774 9.41795 23.8587 9.29785 23.9582 9.19839C24.0576 9.0989 24.1777 9.01766 24.3136 8.96185Z" fill="#A05148"/>
<path d="M21.4821 7.50638C21.419 7.50638 21.3608 7.51851 21.3098 7.53912C21.2577 7.56097 21.2092 7.59493 21.1667 7.63739L21.1655 7.63617C21.1242 7.67861 21.0915 7.72715 21.0684 7.78053C21.0478 7.83147 21.0357 7.88968 21.0357 7.95275C21.0357 8.01461 21.0478 8.07285 21.0684 8.12379C21.0903 8.17717 21.1242 8.22568 21.1667 8.26814C21.2092 8.31057 21.2577 8.34334 21.3098 8.36517C21.3608 8.38699 21.419 8.39915 21.4821 8.39915C21.5439 8.39915 21.6022 8.38699 21.6531 8.36517C21.7053 8.34456 21.755 8.31057 21.7974 8.26814C21.8399 8.22568 21.8727 8.17717 21.8945 8.12379C21.9163 8.07285 21.9284 8.01461 21.9284 7.95275C21.9284 7.88968 21.9163 7.83147 21.8945 7.78053C21.8727 7.72715 21.8399 7.67861 21.7974 7.63617V7.63739C21.755 7.59493 21.7053 7.56097 21.6531 7.53912C21.6022 7.51851 21.5439 7.50638 21.4821 7.50638ZM21.0648 6.94113C21.1946 6.88776 21.3353 6.85742 21.4821 6.85742C21.6276 6.85742 21.7696 6.88776 21.8994 6.94113C22.0352 6.99691 22.1565 7.07941 22.256 7.17765V7.17886C22.3554 7.27953 22.4379 7.40085 22.4925 7.5355C22.5471 7.66526 22.5762 7.806 22.5762 7.95275C22.5762 8.09832 22.5471 8.24024 22.4925 8.37003C22.4367 8.50587 22.3554 8.62718 22.256 8.72664C22.1565 8.82609 22.0352 8.90737 21.8994 8.96318C21.7696 9.01777 21.6276 9.04686 21.4821 9.04686C21.3353 9.04686 21.1946 9.01777 21.0648 8.96318C20.9277 8.90737 20.8076 8.82609 20.7082 8.72664C20.6075 8.62718 20.5275 8.50587 20.4704 8.37003C20.4171 8.24024 20.3867 8.09832 20.3867 7.95275C20.3867 7.806 20.4171 7.66526 20.4704 7.5355C20.5262 7.40085 20.6075 7.27953 20.7082 7.17886V7.17765C20.8076 7.07941 20.9277 6.99691 21.0648 6.94113Z" fill="#A05148"/>
<path d="M21.0449 21.8824V8.72266H21.9219V21.8824H21.0449Z" fill="#A05148"/>
<path d="M12.6484 21.0085H19.343V18.7972L18.312 17.7662H17.5259V16.8916H18.6746L20.2176 18.4357V21.8831H12.6484V21.0085Z" fill="#A05148"/>
<path d="M16.7555 16.8726C16.6936 16.8726 16.6354 16.8847 16.5844 16.9065C16.5311 16.9272 16.4826 16.9611 16.4401 17.0036C16.3977 17.046 16.3637 17.0946 16.3419 17.148C16.3212 17.1989 16.3091 17.2571 16.3091 17.319C16.3091 17.382 16.3212 17.4391 16.3419 17.4912C16.3637 17.5434 16.3977 17.5919 16.4401 17.6344C16.4826 17.6768 16.5311 17.7108 16.5844 17.7326C16.6354 17.7532 16.6936 17.7654 16.7555 17.7654C16.8186 17.7654 16.8756 17.7532 16.9277 17.7326C16.9799 17.7108 17.0284 17.6768 17.0709 17.6344C17.1133 17.5919 17.1473 17.5434 17.1691 17.4912C17.1897 17.4391 17.2019 17.382 17.2019 17.319C17.2019 17.2571 17.1897 17.1989 17.1691 17.148C17.1473 17.0946 17.1133 17.046 17.0709 17.0036C17.0284 16.9611 16.9799 16.9272 16.9277 16.9065C16.8756 16.8847 16.8186 16.8726 16.7555 16.8726ZM16.3382 16.3073C16.468 16.254 16.6087 16.2236 16.7555 16.2236C16.9023 16.2236 17.043 16.254 17.1728 16.3073C17.3086 16.3643 17.4299 16.4456 17.5294 16.5451C17.6289 16.6446 17.7101 16.7658 17.7671 16.9017C17.8205 17.0315 17.8508 17.1734 17.8508 17.319C17.8508 17.4657 17.8205 17.6064 17.7671 17.7362C17.7101 17.8733 17.6289 17.9934 17.5294 18.0928C17.4299 18.1923 17.3086 18.2736 17.1728 18.3306C17.043 18.384 16.9023 18.4143 16.7555 18.4143C16.6087 18.4143 16.468 18.384 16.3382 18.3306C16.2024 18.2736 16.0811 18.1923 15.9816 18.0928C15.8821 17.9934 15.8009 17.8733 15.7438 17.7362C15.6905 17.6064 15.6602 17.4657 15.6602 17.319C15.6602 17.1734 15.6905 17.0315 15.7438 16.9017C15.8009 16.7658 15.8821 16.6446 15.9816 16.5451C16.0811 16.4456 16.2024 16.3643 16.3382 16.3073Z" fill="#A05148"/>
<path d="M21.1651 17.6308L18.9623 15.2909L18.8434 14.9925V12.5168L17.7578 10.9836L18.4686 10.4814L19.718 12.2463V14.8203L21.8007 17.0328L21.1651 17.6308Z" fill="#A05148"/>
<path d="M16.6699 13.7461L17.3783 14.5551H19.2803V15.4297H16.9853L16.0137 14.3198L16.6699 13.7461Z" fill="#A05148"/>
<path d="M15.9072 12.3598C16.0552 12.3695 16.1946 12.4095 16.3196 12.4714C16.4494 12.5357 16.5634 12.6242 16.658 12.7322C16.7514 12.8389 16.8254 12.9651 16.8715 13.1034C16.9164 13.2355 16.937 13.3787 16.9273 13.5255C16.9176 13.6723 16.8776 13.8117 16.8157 13.9367C16.7514 14.0665 16.6629 14.1817 16.5549 14.2751C16.447 14.3697 16.322 14.4437 16.1849 14.4898H16.1837C16.0515 14.5335 15.9084 14.5541 15.7616 14.5444C15.6148 14.5347 15.4753 14.4959 15.3504 14.434C15.2206 14.3697 15.1054 14.2799 15.012 14.172C14.9174 14.0652 14.8446 13.9403 14.7985 13.802L14.7973 13.8032C14.7524 13.6698 14.733 13.5267 14.7427 13.3799C14.7524 13.2319 14.7912 13.0924 14.8531 12.9675C14.9174 12.8377 15.0071 12.7225 15.1139 12.6291C15.2218 12.5345 15.348 12.4617 15.4838 12.4156H15.485C15.6185 12.3707 15.7604 12.3501 15.9072 12.3598ZM16.0333 13.0512C15.9824 13.0269 15.9254 13.01 15.8647 13.0063C15.804 13.0027 15.7458 13.0099 15.6925 13.0281C15.6354 13.0475 15.5833 13.0779 15.5408 13.1155C15.4972 13.1543 15.4608 13.2004 15.4341 13.2538C15.4086 13.3047 15.3928 13.3617 15.3892 13.4224C15.3856 13.483 15.3928 13.5412 15.4111 13.5946V13.5958C15.4304 13.6516 15.4596 13.7026 15.4984 13.7462C15.536 13.7899 15.5833 13.8263 15.6367 13.853C15.6876 13.8784 15.7446 13.8942 15.8053 13.8979C15.8659 13.9015 15.9241 13.8942 15.9775 13.876C16.0345 13.8566 16.0855 13.8263 16.1291 13.7887C16.1728 13.7511 16.2092 13.7038 16.2359 13.6504C16.2601 13.5995 16.2759 13.5425 16.2808 13.4818C16.2844 13.4212 16.2759 13.3617 16.2577 13.3084C16.2395 13.2525 16.2092 13.2016 16.1716 13.1579C16.1328 13.1143 16.0867 13.0779 16.0333 13.0512Z" fill="#A05148"/>
<path d="M17.8529 9.02474C17.9984 9.049 18.1331 9.10237 18.252 9.17757C18.3733 9.25399 18.4788 9.35466 18.5613 9.47233C18.6438 9.58877 18.7044 9.72218 18.736 9.8617C18.7675 9.99876 18.7724 10.1431 18.7481 10.2875C18.7226 10.433 18.6692 10.5677 18.5952 10.6865C18.5176 10.809 18.4169 10.9133 18.3017 10.9958H18.3005C18.1828 11.0783 18.0506 11.139 17.9099 11.1705C17.7741 11.2021 17.6297 11.2069 17.4841 11.1826C17.3386 11.1572 17.204 11.1038 17.0863 11.0286C16.9625 10.9509 16.857 10.8503 16.7745 10.7338H16.7758C16.6933 10.6186 16.6338 10.4852 16.6011 10.3445C16.5708 10.2074 16.5647 10.063 16.5902 9.91869C16.6144 9.77316 16.6678 9.6385 16.743 9.51962C16.8194 9.39834 16.9201 9.29281 17.0377 9.21031V9.20909C17.153 9.12785 17.2852 9.06839 17.4271 9.03565C17.5642 9.00532 17.7086 8.99927 17.8529 9.02474ZM17.9075 9.72461C17.8602 9.69431 17.8044 9.67367 17.7449 9.66276C17.6831 9.65306 17.6248 9.65428 17.5703 9.66762C17.5133 9.67975 17.4587 9.70522 17.4102 9.73917L17.4089 9.73796C17.3628 9.77072 17.3228 9.81437 17.2901 9.86532C17.2609 9.91265 17.2391 9.96724 17.2294 10.0279C17.2185 10.0885 17.2209 10.148 17.233 10.2025C17.2452 10.2596 17.2695 10.3129 17.3034 10.3602L17.3046 10.3614C17.3386 10.41 17.381 10.45 17.4308 10.4815C17.4781 10.5118 17.5327 10.5325 17.5933 10.5434C17.654 10.5531 17.7134 10.5519 17.768 10.5397C17.8262 10.5264 17.8796 10.5021 17.9269 10.4694V10.4682C17.9742 10.4342 18.0154 10.3906 18.047 10.3408C18.0773 10.2935 18.0991 10.2389 18.1088 10.1783C18.1198 10.1176 18.1173 10.0582 18.1052 10.0036C18.0919 9.94538 18.0676 9.89079 18.0336 9.84471C18.0009 9.79741 17.9584 9.75617 17.9075 9.72461Z" fill="#A05148"/>
</svg>
