<svg width="27" height="28" viewBox="0 0 27 28" fill="none" xmlns="http://www.w3.org/2000/svg">
<path d="M26.5433 25.1431C26.6681 25.2679 26.7671 25.4161 26.8347 25.5793C26.9023 25.7424 26.937 25.9172 26.937 26.0938C26.937 26.2703 26.9023 26.4452 26.8347 26.6083C26.7671 26.7714 26.6681 26.9196 26.5433 27.0445C26.4184 27.1693 26.2702 27.2684 26.1071 27.3359C25.9439 27.4035 25.7691 27.4383 25.5925 27.4383C25.416 27.4383 25.2412 27.4035 25.078 27.3359C24.9149 27.2684 24.7667 27.1693 24.6418 27.0445L13.4988 15.8997L2.35575 27.0445C2.10361 27.2966 1.76163 27.4383 1.40504 27.4383C1.04846 27.4383 0.706483 27.2966 0.454341 27.0445C0.202199 26.7923 0.0605469 26.4504 0.0605469 26.0938C0.0605469 25.7372 0.202199 25.3952 0.454341 25.1431L11.5991 14L0.454341 2.85697C0.202199 2.60483 0.0605469 2.26285 0.0605469 1.90626C0.0605469 1.54968 0.202199 1.2077 0.454341 0.955562C0.706483 0.703419 1.04846 0.561768 1.40504 0.561768C1.76163 0.561768 2.10361 0.703419 2.35575 0.955562L13.4988 12.1003L24.6418 0.955562C24.894 0.703419 25.236 0.561768 25.5925 0.561768C25.9491 0.561768 26.2911 0.703419 26.5433 0.955562C26.7954 1.2077 26.937 1.54968 26.937 1.90626C26.937 2.26285 26.7954 2.60483 26.5433 2.85697L15.3985 14L26.5433 25.1431Z" fill="black"/>
</svg>
