<svg width="14" height="19" viewBox="0 0 14 19" fill="none" xmlns="http://www.w3.org/2000/svg">
<path d="M7.00024 0.703125C5.21076 0.705499 3.49525 1.41742 2.2299 2.68278C0.964539 3.94813 0.252618 5.66364 0.250244 7.45312C0.250244 12.2991 6.53899 18.3684 6.80618 18.6244C6.85815 18.6749 6.92777 18.7031 7.00024 18.7031C7.07272 18.7031 7.14234 18.6749 7.19431 18.6244C7.46149 18.3684 13.7502 12.2991 13.7502 7.45312C13.7479 5.66364 13.0359 3.94813 11.7706 2.68278C10.5052 1.41742 8.78973 0.705499 7.00024 0.703125ZM7.00024 10.5469C6.38836 10.5469 5.79021 10.3654 5.28145 10.0255C4.77268 9.68554 4.37615 9.20236 4.14199 8.63705C3.90783 8.07174 3.84657 7.44969 3.96594 6.84956C4.08531 6.24944 4.37996 5.69818 4.81263 5.26551C5.2453 4.83284 5.79655 4.53819 6.39668 4.41882C6.99681 4.29945 7.61886 4.36071 8.18417 4.59487C8.74948 4.82903 9.23266 5.22556 9.5726 5.73433C9.91255 6.24309 10.094 6.84124 10.094 7.45312C10.0935 8.27349 9.7674 9.06011 9.18731 9.64019C8.60723 10.2203 7.82061 10.5464 7.00024 10.5469Z" fill="#121212"/>
</svg>
