<svg width="18" height="13" viewBox="0 0 18 13" fill="none" xmlns="http://www.w3.org/2000/svg">
<path fill-rule="evenodd" clip-rule="evenodd" d="M17.4304 1.29199L10.4394 8.28345C9.64422 9.07819 8.3552 9.07819 7.56004 8.28345L0.569 1.29199C0.491231 1.45485 0.449707 1.6344 0.449707 1.81843V11.5899C0.449707 11.9139 0.578368 12.2246 0.807585 12.4534C1.0364 12.6826 1.34705 12.8113 1.67114 12.8113H16.3283C16.6524 12.8113 16.963 12.6826 17.1918 12.4534C17.421 12.2246 17.5497 11.9139 17.5497 11.5899V1.81843C17.5497 1.6344 17.5082 1.45485 17.4304 1.29199Z" fill="#121212"/>
<path fill-rule="evenodd" clip-rule="evenodd" d="M16.8548 0.715972C16.6919 0.638209 16.5124 0.59668 16.3284 0.59668C12.9218 0.59668 5.07778 0.59668 1.67121 0.59668C1.48718 0.59668 1.30763 0.638209 1.14478 0.715972L8.13623 7.70702C8.61299 8.18419 9.38657 8.18419 9.86333 7.70702L16.8548 0.715972Z" fill="#121212"/>
</svg>
