<svg width="16" height="17" viewBox="0 0 16 17" fill="none" xmlns="http://www.w3.org/2000/svg">
<path d="M14.6114 11.1662C13.6472 11.1662 12.7004 11.0154 11.8031 10.7189C11.3635 10.5689 10.823 10.7065 10.5547 10.9821L8.78378 12.3189C6.73001 11.2226 5.46493 9.95796 4.3836 7.9196L5.68112 6.19481C6.01823 5.85816 6.13914 5.36638 5.99428 4.90496C5.69651 4.00302 5.54524 3.05667 5.54524 2.09198C5.54528 1.39508 4.97832 0.828125 4.28147 0.828125H1.38906C0.692202 0.828125 0.125244 1.39508 0.125244 2.09194C0.125244 10.0797 6.62366 16.5781 14.6114 16.5781C15.3083 16.5781 15.8752 16.0112 15.8752 15.3143V12.43C15.8752 11.7332 15.3082 11.1662 14.6114 11.1662Z" fill="#121212"/>
</svg>
