<svg width="29" height="55" viewBox="0 0 29 55" fill="none" xmlns="http://www.w3.org/2000/svg">
<path d="M28.0284 19.5665C28.0284 23.7177 27.2813 27.7028 25.787 31.5219C24.2927 35.507 22.5494 38.7449 20.557 41.2356C18.7307 43.7263 16.6553 46.0509 14.3309 48.2095C12.0065 50.3681 10.2631 51.8626 9.10088 52.6928C7.93866 53.523 7.10851 54.0211 6.61042 54.1872L0.633291 47.9604L3.8709 44.4735C5.19915 42.813 6.85946 40.1563 8.85184 36.5032C11.1762 32.6842 12.1724 29.4463 11.8404 26.7895C8.51977 26.2914 5.69724 24.797 3.37281 22.3063C1.2144 19.6495 0.135193 16.5777 0.135193 13.0907C0.135193 9.60374 1.38043 6.61492 3.8709 4.12422C6.52739 1.63353 9.76503 0.388184 13.5837 0.388184C17.7345 0.388184 21.1381 2.13166 23.7946 5.61863C26.6171 9.1056 28.0284 13.7549 28.0284 19.5665Z" fill="#BEF941"/>
</svg>
