<svg width="14" height="15" viewBox="0 0 14 15" fill="none" xmlns="http://www.w3.org/2000/svg">
<g id="solar:arrow-right-outline">
<path id="Vector" fill-rule="evenodd" clip-rule="evenodd" d="M7.96576 2.73272C8.05818 2.64042 8.18345 2.58858 8.31406 2.58858C8.44468 2.58858 8.56995 2.64042 8.66236 2.73272L12.6054 6.67573C12.6977 6.76814 12.7495 6.89341 12.7495 7.02402C12.7495 7.15464 12.6977 7.27991 12.6054 7.37232L8.66236 11.3153C8.61724 11.3638 8.56283 11.4026 8.50237 11.4295C8.44191 11.4565 8.37664 11.471 8.31046 11.4721C8.24429 11.4733 8.17855 11.4611 8.11718 11.4363C8.05581 11.4115 8.00006 11.3746 7.95325 11.3278C7.90645 11.281 7.86955 11.2253 7.84477 11.1639C7.81998 11.1025 7.8078 11.0368 7.80897 10.9706C7.81014 10.9045 7.82462 10.8392 7.85156 10.7787C7.8785 10.7183 7.91734 10.6639 7.96576 10.6187L11.0676 7.5169H1.74239C1.61167 7.5169 1.4863 7.46497 1.39387 7.37254C1.30144 7.28011 1.24951 7.15474 1.24951 7.02402C1.24951 6.89331 1.30144 6.76794 1.39387 6.67551C1.4863 6.58308 1.61167 6.53115 1.74239 6.53115H11.0676L7.96576 3.42932C7.87347 3.3369 7.82162 3.21163 7.82162 3.08102C7.82162 2.95041 7.87347 2.82513 7.96576 2.73272Z" fill="#3C3C3C"/>
</g>
</svg>
