<svg width="16" height="16" viewBox="0 0 16 16" fill="none" xmlns="http://www.w3.org/2000/svg">
<path d="M7.99805 1.00031C4.1384 1.00031 0.998047 4.14066 0.998047 8.0003C0.998047 11.86 4.1384 15.0003 7.99805 15.0003C11.8577 15.0003 14.998 11.86 14.998 8.0003C14.998 4.14066 11.8577 1.00031 7.99805 1.00031ZM11.9103 6.1582L7.43664 10.5968C7.17349 10.86 6.75243 10.8775 6.47173 10.6143L4.10331 8.45645C3.82261 8.19329 3.80506 7.75469 4.05068 7.47399C4.31384 7.19329 4.75243 7.17574 5.03313 7.4389L6.91033 9.1582L10.9103 5.1582C11.191 4.8775 11.6296 4.8775 11.9103 5.1582C12.191 5.4389 12.191 5.8775 11.9103 6.1582Z" fill="#0674B7"/>
</svg>
