<svg width="452" height="450" viewBox="0 0 452 450" fill="none" xmlns="http://www.w3.org/2000/svg">
<mask id="mask0_1934_12720" style="mask-type:luminance" maskUnits="userSpaceOnUse" x="0" y="0" width="451" height="449">
<path d="M343.399 422.678C248.583 477.765 132.933 437.518 69.6361 374.248C-13.2913 291.353 -20.1519 155.144 38.4092 74.3925C62.7582 40.8173 113.593 -5.69719 167.868 0.57326C213.871 5.88716 220.006 44.132 296.599 104.055C383.444 172 420.976 158.367 441.243 201.233C471.444 265.108 425.687 374.873 343.402 422.676L343.399 422.678Z" fill="white"/>
</mask>
<g mask="url(#mask0_1934_12720)">
<path d="M455.515 227.844L296.442 329.177C291.797 332.138 290.43 338.303 293.388 342.95L345.192 424.27C348.153 428.915 354.317 430.282 358.965 427.324L455.515 365.819V227.844Z" fill="white"/>
<path d="M353.621 429.423C350.144 429.423 346.738 427.705 344.736 424.562L292.933 343.243C289.817 338.352 291.263 331.84 296.151 328.725L455.224 227.392C455.391 227.286 455.601 227.279 455.775 227.375C455.947 227.471 456.055 227.65 456.055 227.849V365.824C456.055 366.008 455.962 366.18 455.805 366.279L359.254 427.783C357.508 428.895 355.554 429.426 353.621 429.426V429.423ZM454.973 228.828L296.732 329.632C292.345 332.428 291.049 338.271 293.842 342.658L345.646 423.977C348.442 428.364 354.285 429.659 358.674 426.866L454.973 365.519V228.825V228.828Z" fill="black"/>
<path d="M303.512 344.622C303.335 344.622 303.16 344.534 303.057 344.374C302.897 344.123 302.971 343.789 303.222 343.629C311.25 338.504 319.287 333.355 327.332 328.199C346.49 315.921 366.303 303.225 385.889 290.969C386.139 290.812 386.474 290.888 386.634 291.141C386.791 291.395 386.715 291.727 386.462 291.886C366.88 304.14 347.073 316.836 327.915 329.111C319.869 334.267 311.831 339.417 303.805 344.541C303.714 344.598 303.613 344.627 303.514 344.627L303.512 344.622Z" fill="black"/>
<path d="M307.144 331.459C307.904 332.649 307.552 334.231 306.362 334.99C305.172 335.75 303.591 335.399 302.831 334.208C302.071 333.018 302.423 331.437 303.613 330.677C304.803 329.918 306.384 330.269 307.144 331.459Z" fill="black"/>
<path d="M315.773 325.961C316.533 327.154 316.181 328.732 314.991 329.492C313.798 330.252 312.22 329.9 311.46 328.71C310.7 327.52 311.052 325.939 312.242 325.179C313.432 324.419 315.013 324.771 315.773 325.961Z" fill="black"/>
<path d="M324.401 320.465C325.161 321.655 324.809 323.236 323.619 323.996C322.429 324.756 320.848 324.404 320.088 323.214C319.328 322.024 319.68 320.443 320.87 319.683C322.06 318.923 323.641 319.275 324.401 320.465Z" fill="black"/>
<path d="M353.523 302.453C353.336 302.453 353.157 302.357 353.056 302.185C352.906 301.927 352.992 301.597 353.25 301.447C359.408 297.864 365.307 293.962 371.009 290.19C375.873 286.973 380.902 283.649 386.012 280.575C386.267 280.423 386.599 280.504 386.754 280.76C386.907 281.015 386.826 281.347 386.57 281.5C381.48 284.561 376.461 287.878 371.607 291.09C365.89 294.869 359.978 298.779 353.794 302.379C353.708 302.428 353.614 302.453 353.523 302.453Z" fill="black"/>
<path d="M329.58 317.706C329.403 317.706 329.229 317.618 329.125 317.455C328.966 317.204 329.039 316.87 329.29 316.71L340.004 309.886C340.255 309.727 340.589 309.8 340.749 310.051C340.909 310.302 340.835 310.636 340.584 310.796L329.871 317.62C329.782 317.677 329.681 317.704 329.58 317.704V317.706Z" fill="black"/>
<path d="M352.945 408.879C352.905 408.879 352.866 408.874 352.827 408.867C352.687 408.835 352.566 408.751 352.487 408.63L317.257 353.328C317.097 353.077 317.171 352.742 317.422 352.582L372.725 317.352C372.845 317.276 372.991 317.249 373.133 317.281C373.273 317.313 373.394 317.397 373.473 317.517L408.703 372.82C408.862 373.071 408.789 373.405 408.538 373.565L353.235 408.795C353.146 408.852 353.046 408.879 352.945 408.879ZM318.46 353.202L353.107 407.595L407.5 372.945L372.853 318.552L318.46 353.202Z" fill="black"/>
<path d="M395.269 303.616L383.192 311.309L390.887 323.387L402.963 315.694L395.269 303.616Z" fill="black"/>
<path d="M455.515 265.256L403.529 298.372L411.223 310.448L455.515 282.233V265.256Z" fill="black"/>
<path d="M409.033 325.229L396.957 332.923L404.65 344.999L416.727 337.306L409.033 325.229Z" fill="black"/>
<path d="M455.516 295.637L417.298 319.983L424.992 332.062L455.516 312.616V295.637Z" fill="black"/>
<path d="M422.802 346.839L410.726 354.533L418.419 366.609L430.495 358.916L422.802 346.839Z" fill="black"/>
<path d="M455.514 326.02L431.064 341.596L438.759 353.674L455.514 343V326.02Z" fill="white"/>
</g>
<path d="M121.755 406.85L120.506 402.288L115.344 402.522C114.865 401.516 114.311 400.564 113.687 399.674L116.419 395.297L113.055 391.97L108.702 394.754C107.795 394.132 106.838 393.588 105.843 393.123L106.02 387.96L101.443 386.76L99.068 391.341C97.9836 391.255 96.8795 391.264 95.7729 391.365L93.3459 386.804L88.7845 388.053L89.0181 393.214C88.0148 393.694 87.0607 394.247 86.1705 394.872L81.7935 392.14L78.4665 395.504L81.2501 399.856C80.6279 400.764 80.082 401.72 79.6198 402.716L74.4559 402.539L73.2559 407.115L77.837 409.491C77.7509 410.575 77.7608 411.679 77.8616 412.786L73.3001 415.213L74.5493 419.774L79.7107 419.54C80.1902 420.546 80.7435 421.498 81.3681 422.388L78.6362 426.765L82.0001 430.092L86.3525 427.308C87.2599 427.931 88.2164 428.477 89.2123 428.939L89.0353 434.103L93.6115 435.303L95.9869 430.722C97.0713 430.808 98.1754 430.798 99.2819 430.697L101.709 435.258L106.27 434.009L106.037 428.848C107.043 428.368 107.994 427.815 108.884 427.19L113.261 429.922L116.588 426.558L113.805 422.206C114.427 421.299 114.973 420.342 115.435 419.346L120.599 419.523L121.799 414.947L117.218 412.572C117.304 411.487 117.294 410.383 117.193 409.277L121.755 406.85ZM100.745 422.774C94.2582 424.549 87.5599 420.731 85.7845 414.246C84.0091 407.759 87.8279 401.061 94.3123 399.286C100.799 397.51 107.497 401.329 109.273 407.813C111.048 414.3 107.229 420.999 100.745 422.774Z" fill="black"/>
<path d="M197.394 359.592L195.257 351.785L186.426 352.186C185.608 350.467 184.661 348.837 183.589 347.312L188.266 339.822L182.512 334.129L175.063 338.893C173.512 337.83 171.877 336.896 170.17 336.104L170.475 327.266L162.645 325.213L158.583 333.052C156.727 332.907 154.841 332.922 152.945 333.092L148.791 325.287L140.984 327.424L141.385 336.254C139.666 337.073 138.036 338.02 136.511 339.092L129.021 334.415L123.328 340.169L128.092 347.617C127.029 349.169 126.095 350.804 125.303 352.511L116.465 352.206L114.412 360.035L122.251 364.097C122.106 365.954 122.121 367.84 122.291 369.736L114.486 373.889L116.623 381.696L125.453 381.296C126.272 383.014 127.219 384.645 128.291 386.169L123.616 393.659L129.37 399.352L136.819 394.589C138.37 395.654 140.005 396.586 141.712 397.377L141.407 406.215L149.236 408.268L153.299 400.429C155.155 400.574 157.041 400.559 158.937 400.39L163.091 408.195L170.898 406.058L170.497 397.227C172.216 396.409 173.846 395.462 175.371 394.39L182.861 399.064L188.553 393.31L183.788 385.862C184.853 384.31 185.785 382.675 186.576 380.969L195.414 381.273L197.467 373.444L189.628 369.382C189.773 367.525 189.758 365.639 189.589 363.743L197.394 359.59V359.592ZM161.443 386.843C150.343 389.882 138.882 383.349 135.842 372.249C132.803 361.149 139.337 349.688 150.436 346.648C161.536 343.609 172.998 350.142 176.037 361.242C179.076 372.342 172.543 383.804 161.443 386.843Z" fill="black"/>
<path d="M4.4475 192.656L97.1076 372.279C88.0707 354.758 111.635 323.104 154.665 289.711C159.824 285.707 161.374 278.579 158.379 272.773L78.4019 117.74C74.4823 110.142 64.5824 107.988 57.8963 113.317C17.4851 145.51 -4.30163 175.701 4.44504 192.654L4.4475 192.656Z" fill="white"/>
<path d="M97.1099 372.82C96.9132 372.82 96.7263 372.714 96.6304 372.527L3.97035 192.905C-0.345199 184.541 2.53429 172.608 12.2965 158.397C21.6629 144.76 37.3169 129.027 57.5667 112.896C60.8716 110.265 65.138 109.262 69.279 110.149C73.4371 111.039 76.9412 113.717 78.8888 117.497L158.865 272.529C161.986 278.576 160.36 285.983 155.002 290.141C133.535 306.801 116.87 323.094 106.806 337.263C96.5247 351.739 93.3354 363.756 97.5821 372.016L97.5919 372.033C97.7296 372.298 97.6239 372.623 97.3608 372.761C97.2821 372.803 97.196 372.822 97.1149 372.822L97.1099 372.82ZM4.9269 192.41L94.8378 366.702C92.5165 348.795 114.028 320.568 154.336 289.288C159.283 285.449 160.781 278.611 157.901 273.024L77.9248 117.991C76.1248 114.502 72.8888 112.028 69.0478 111.207C65.2265 110.388 61.2847 111.312 58.2356 113.742C16.5678 146.936 -3.35994 176.346 4.9269 192.41Z" fill="black"/>
<path d="M2.99437 202.689L95.6545 382.311C86.6176 364.791 110.182 333.136 153.212 299.743C158.371 295.74 159.92 288.611 156.925 282.805L76.9488 127.773C73.0292 120.174 63.1292 118.02 56.4432 123.349C16.032 155.542 -5.75476 185.734 2.99191 202.686L2.99437 202.689Z" fill="white"/>
<path d="M95.6573 382.852C95.4606 382.852 95.2737 382.747 95.1778 382.56L2.51527 202.937C-1.80028 194.574 1.07921 182.641 10.8414 168.43C20.2078 154.792 35.8618 139.06 56.1092 122.929C59.4141 120.298 63.6829 119.297 67.8214 120.182C71.9796 121.072 75.4837 123.75 77.4312 127.529L157.408 282.562C160.528 288.609 158.903 296.015 153.545 300.173C132.078 316.833 115.413 333.127 105.348 347.295C95.0598 361.781 91.8729 373.806 96.1344 382.066C96.2721 382.331 96.1663 382.656 95.9032 382.793C95.8245 382.835 95.7385 382.855 95.6573 382.855V382.852ZM3.47428 202.443L93.3852 376.732C91.0639 358.826 112.575 330.599 152.883 299.318C157.831 295.479 159.328 288.641 156.449 283.054L76.4722 128.021C74.6722 124.532 71.4362 122.058 67.5952 121.237C63.7739 120.418 59.8321 121.343 56.783 123.772C15.1152 156.966 -4.81256 186.376 3.47428 202.44V202.443Z" fill="black"/>
<path d="M215.76 41.2702L295.87 196.559C299.02 202.664 306.234 205.458 312.674 203.063C378.718 178.497 431.511 173.658 442.151 194.284L349.491 14.6614C339.023 -5.6303 287.747 -1.27295 223.194 22.2695C215.502 25.0752 212.008 33.9916 215.76 41.2702Z" fill="white"/>
<path d="M307.951 204.457C302.797 204.457 297.872 201.622 295.388 196.807L215.279 41.5186C213.42 37.9162 213.201 33.6842 214.676 29.9047C216.154 26.1228 219.191 23.1548 223.007 21.763C255.225 10.0139 284.126 3.00326 306.586 1.48852C329.794 -0.0754082 344.799 4.3926 349.968 14.413L442.628 194.036C442.766 194.301 442.66 194.626 442.394 194.764C442.129 194.901 441.804 194.796 441.667 194.532C436.626 184.76 421.599 180.521 398.226 182.267C375.229 183.986 345.709 191.353 312.859 203.569C311.246 204.169 309.586 204.454 307.949 204.454L307.951 204.457ZM216.24 41.0219L296.349 196.31C299.372 202.168 306.311 204.853 312.485 202.556C375.01 179.299 422.998 174.469 438.925 189.209L349.009 14.9073C338.998 -4.49669 289.686 -1.40818 223.379 22.7761C219.855 24.0622 217.049 26.8015 215.684 30.2957C214.322 33.785 214.524 37.6924 216.24 41.0194V41.0219Z" fill="black"/>
<path d="M214.307 51.3029L294.416 206.591C297.566 212.697 304.781 215.49 311.221 213.095C377.265 188.53 430.057 183.691 440.697 204.317L348.037 24.6941C337.569 4.40241 286.294 8.75976 221.741 32.3022C214.049 35.108 210.555 44.0243 214.307 51.3029Z" fill="white"/>
<path d="M306.5 214.49C301.346 214.49 296.42 211.654 293.937 206.84L213.827 51.5513C211.968 47.9489 211.75 43.7169 213.225 39.9375C214.703 36.1555 217.74 33.1875 221.556 31.7957C253.774 20.0466 282.675 13.036 305.135 11.5212C328.353 9.95731 343.35 14.4253 348.517 24.4457L441.177 204.068C441.315 204.334 441.209 204.659 440.943 204.796C440.678 204.934 440.353 204.828 440.215 204.565C435.174 194.793 420.152 190.554 396.775 192.3C373.778 194.018 344.258 201.386 311.408 213.602C309.795 214.202 308.135 214.487 306.497 214.487L306.5 214.49ZM214.789 51.0546L294.898 206.343C297.92 212.2 304.857 214.886 311.034 212.589C373.559 189.334 421.547 184.502 437.474 199.241L347.558 24.94C337.547 5.53602 288.237 8.62453 221.927 32.8088C218.404 34.0949 215.598 36.8366 214.233 40.3284C212.871 43.8178 213.073 47.7251 214.789 51.0521V51.0546Z" fill="black"/>
<path d="M308.845 110.231C306.959 110.861 305.014 111.426 303.003 111.913C290.174 115.021 287.558 111.921 254.009 110.753C213.03 109.324 199.166 113.33 189.507 117.559C183.999 119.971 179.639 122.553 171.992 127.078C145.981 142.474 139.322 152.179 132.55 149.986C130.998 149.484 129.441 148.351 128.037 146.177C117.628 154.021 105.769 152.285 99.2793 150.387C99.2818 151.855 99.3432 153.35 99.4785 154.872C99.867 159.274 100.546 166.98 105.282 173.477C115.477 187.464 140.625 190.569 167.48 181.419C165.781 185.103 152.077 216.103 168.227 244.938C184.912 274.724 221.415 280.706 245.408 276.617C284.54 269.948 315.821 232.151 310.476 209.658C309.556 205.788 305.503 200.196 297.438 189.168C287.899 176.128 279.271 165.967 273.177 159.131C279.731 158.73 302.366 156.544 322.084 138.379C323.875 136.729 325.527 135.047 327.064 133.348C315.841 129.591 310.921 118.016 308.84 110.231H308.845Z" fill="white"/>
<path d="M231.429 278.304C222.05 278.304 212.502 276.838 203.91 273.991C187.826 268.662 175.324 258.706 167.758 245.198C152.793 218.481 163.096 190.144 166.487 182.319C139.681 191.12 115.015 187.744 104.847 173.794C100.022 167.174 99.3461 159.502 98.9429 154.919C98.8125 153.45 98.7461 151.926 98.7412 150.389C98.7412 150.219 98.8199 150.057 98.9576 149.956C99.0928 149.853 99.2699 149.821 99.4347 149.87C105.572 151.665 117.407 153.517 127.716 145.746C127.836 145.655 127.989 145.621 128.136 145.646C128.284 145.673 128.414 145.759 128.495 145.884C129.7 147.748 131.121 148.955 132.72 149.474C136.462 150.687 140.367 147.866 148.15 142.247C153.602 138.313 161.065 132.923 171.719 126.615C179.48 122.022 183.754 119.492 189.294 117.067C198.616 112.985 212.074 108.753 254.032 110.216C267.475 110.686 275.939 111.461 282.119 112.029C291.421 112.882 295.272 113.236 302.878 111.392C304.788 110.929 306.738 110.366 308.676 109.722C308.819 109.675 308.971 109.688 309.104 109.759C309.234 109.83 309.33 109.951 309.369 110.096C311.612 118.493 316.535 129.254 327.241 132.839C327.414 132.898 327.546 133.038 327.593 133.215C327.64 133.392 327.593 133.579 327.47 133.715C325.862 135.49 324.175 137.196 322.456 138.78C304.968 154.891 285.212 158.772 274.319 159.598C282.542 168.878 290.465 178.714 297.881 188.85C306.315 200.383 310.083 205.645 311.007 209.535C312.996 217.906 310.132 228.504 302.942 239.378C290.27 258.538 267.724 273.364 245.504 277.151C240.958 277.925 236.217 278.306 231.431 278.306L231.429 278.304ZM167.483 180.878C167.633 180.878 167.78 180.942 167.883 181.058C168.028 181.218 168.063 181.449 167.972 181.645C165.363 187.296 153.142 216.898 168.7 244.672C184.322 272.562 219.37 280.505 245.317 276.083C267.257 272.343 289.52 257.7 302.034 238.778C309.06 228.157 311.87 217.859 309.952 209.781C309.04 205.938 304.764 200.095 297.003 189.485C289.39 179.076 281.238 168.984 272.777 159.49C272.639 159.335 272.602 159.116 272.681 158.924C272.76 158.732 272.942 158.605 273.148 158.592C283.626 157.953 303.871 154.424 321.721 137.981C323.223 136.597 324.699 135.121 326.12 133.584C315.726 129.689 310.798 119.285 308.474 110.922C306.687 111.502 304.892 112.014 303.131 112.439C295.351 114.325 291.175 113.942 282.018 113.101C275.851 112.535 267.407 111.761 253.99 111.291C212.263 109.835 198.938 114.018 189.724 118.053C184.246 120.453 179.992 122.971 172.268 127.542C161.655 133.825 154.214 139.198 148.779 143.12C140.702 148.953 136.647 151.879 132.385 150.5C130.689 149.949 129.184 148.756 127.907 146.946C117.712 154.331 106.234 152.853 99.8281 151.102C99.8478 152.364 99.9117 153.613 100.017 154.823C100.411 159.296 101.07 166.781 105.717 173.157C115.753 186.925 140.505 190.038 167.306 180.905C167.362 180.886 167.421 180.876 167.48 180.876L167.483 180.878Z" fill="black"/>
<path d="M358.878 82.2725L355.374 84.5102L360.732 74.866C360.993 74.3963 361.01 73.8307 360.781 73.3463C360.258 72.2422 358.76 72.0603 357.988 73.007L350.869 81.7364L355.77 69.4144C356.173 68.4013 355.79 67.2431 354.86 66.6726C353.687 65.9496 352.148 66.4439 351.612 67.7127L346.927 78.8299L348.548 69.1365C348.74 67.9808 347.881 66.8545 346.711 66.8644C345.983 66.8718 345.28 67.2922 345.002 68.716C344.338 72.1365 340.871 85.8159 340.871 85.8159C340.871 85.8159 339.366 85.2749 337.423 82.6438C335.481 80.0102 334.686 81.4659 334.686 81.4659C333.499 85.4815 336.378 89.8683 338.478 92.3937C331.374 98.8609 321.523 106.004 308.845 110.229C310.925 118.014 315.843 129.589 327.068 133.346C339.356 119.77 343.881 105.139 345.575 97.7691C350.527 95.7331 358.91 86.5757 360.771 84.4954C361.015 84.2249 361.145 83.8758 361.145 83.5143C361.145 82.3487 359.857 81.643 358.876 82.27L358.878 82.2725Z" fill="white"/>
<path d="M327.069 133.887C327.012 133.887 326.953 133.877 326.897 133.86C315.735 130.124 310.635 119.024 308.324 110.371C308.25 110.096 308.405 109.811 308.676 109.72C318.969 106.289 328.741 100.444 337.736 92.3394C335.388 89.4107 333.007 85.2452 334.171 81.3157C334.183 81.2788 334.195 81.2444 334.215 81.21C334.249 81.146 334.579 80.5805 335.302 80.5313C336.098 80.4772 336.93 81.0649 337.862 82.3263C338.988 83.8534 339.954 84.6378 340.522 85.0116C341.228 82.2132 343.908 71.5485 344.476 68.6174C344.86 66.6379 346.04 66.333 346.709 66.3281C346.716 66.3281 346.721 66.3281 346.729 66.3281C347.407 66.3281 348.057 66.6305 348.509 67.1617C348.998 67.7346 349.207 68.4871 349.084 69.2297L348.224 74.3739L351.118 67.506C351.435 66.756 352.06 66.183 352.834 65.9346C353.611 65.6863 354.452 65.7896 355.146 66.215C356.302 66.9256 356.774 68.3568 356.272 69.6182L352.667 78.6821L357.57 72.6699C358.052 72.0797 358.793 71.7846 359.543 71.8756C360.297 71.9666 360.944 72.4313 361.269 73.1198C361.574 73.7616 361.549 74.5141 361.205 75.1338L356.884 82.9091L358.588 81.8198C359.218 81.4165 359.985 81.3919 360.642 81.7509C361.298 82.11 361.689 82.7714 361.689 83.519C361.689 84.0157 361.507 84.4927 361.178 84.8616C358.864 87.446 351.027 95.9345 346.043 98.1648C343.866 107.475 338.882 121.11 327.472 133.715C327.369 133.83 327.221 133.892 327.071 133.892L327.069 133.887ZM309.499 110.58C311.779 118.813 316.633 129.099 326.904 132.721C338.098 120.239 342.949 106.776 345.047 97.6508C345.086 97.4812 345.207 97.3386 345.369 97.2722C350.245 95.2656 358.719 85.978 360.369 84.1362C360.521 83.9665 360.605 83.7452 360.605 83.514C360.605 83.1673 360.423 82.86 360.118 82.6927C359.813 82.5255 359.459 82.5378 359.164 82.7247L355.66 84.9624C355.451 85.0952 355.18 85.0706 354.998 84.9009C354.819 84.7313 354.777 84.4608 354.898 84.2444L360.256 74.6002C360.43 74.283 360.445 73.8994 360.29 73.5723C360.12 73.2157 359.801 72.9846 359.41 72.9379C359.016 72.8912 358.652 73.0387 358.404 73.3436L351.285 82.0731C351.118 82.2796 350.823 82.3337 350.592 82.1985C350.361 82.0632 350.265 81.7805 350.363 81.5346L355.264 69.2125C355.571 68.4404 355.281 67.565 354.573 67.1297C354.147 66.8691 353.631 66.8051 353.157 66.9576C352.682 67.11 352.298 67.4592 352.104 67.9191L347.42 79.0362C347.314 79.2895 347.036 79.4223 346.77 79.346C346.507 79.2698 346.343 79.0092 346.389 78.7387L348.01 69.0453C348.081 68.6248 347.956 68.1822 347.68 67.8576C347.427 67.5625 347.061 67.3977 346.711 67.4027C346.463 67.4027 345.802 67.41 345.529 68.8166C344.87 72.2125 341.533 85.3878 341.393 85.946C341.356 86.0935 341.257 86.2189 341.122 86.2903C340.987 86.3616 340.83 86.3739 340.687 86.3222C340.621 86.2976 339.003 85.6952 336.986 82.9608C336.027 81.66 335.496 81.5936 335.368 81.601C335.272 81.6083 335.208 81.6624 335.176 81.6944C334.104 85.5206 337.035 89.814 338.887 92.0419C339.071 92.2632 339.049 92.5927 338.835 92.7869C329.766 101.042 319.896 107.025 309.495 110.573L309.499 110.58Z" fill="black"/>
<path d="M122.623 115.178C124.93 111.416 124.268 102.374 121.691 97.9824C119.082 93.5365 110.119 80.8235 110.119 80.8235C105.686 84.2858 112.293 94.5054 112.293 94.5054C104.631 99.4111 108.927 104.619 108.927 104.619C105.836 111.047 109.775 113.238 112.131 113.954C107.016 120.822 99.2406 133.83 99.2824 150.389C105.774 152.287 117.631 154.023 128.04 146.179C125.117 141.652 122.849 132.588 122.623 115.178Z" fill="white"/>
<path d="M110.136 152.528C105.759 152.528 101.889 151.712 99.1299 150.905C98.9012 150.839 98.7414 150.627 98.7414 150.389C98.702 134.823 105.422 122.221 111.258 114.222C109.927 113.703 108.432 112.764 107.695 111.087C106.937 109.363 107.141 107.209 108.3 104.679C107.859 104.027 106.915 102.32 107.257 100.137C107.591 98.0122 109.035 96.0647 111.555 94.3459C110.289 92.2532 105.526 83.7254 109.785 80.3984C109.9 80.3074 110.05 80.2681 110.195 80.2902C110.34 80.3123 110.473 80.3935 110.557 80.514C110.645 80.6418 119.564 93.2983 122.154 97.7122C124.647 101.961 125.557 111.183 123.162 115.326C123.368 130.451 125.161 140.735 128.49 145.889C128.645 146.128 128.589 146.442 128.363 146.612C122.328 151.159 115.807 152.531 110.131 152.531L110.136 152.528ZM99.8233 149.981C105.981 151.714 117.319 153.313 127.32 146.039C124.04 140.57 122.279 130.196 122.085 115.183C122.085 115.083 122.112 114.982 122.163 114.893C124.271 111.456 123.772 102.591 121.226 98.2532C118.954 94.3803 111.725 84.0451 110.033 81.6377C106.925 85.1074 112.684 94.1172 112.745 94.2106C112.824 94.3311 112.851 94.4787 112.819 94.6188C112.79 94.759 112.704 94.8819 112.583 94.9581C110.06 96.5737 108.629 98.3712 108.324 100.299C107.968 102.574 109.327 104.256 109.34 104.273C109.472 104.435 109.502 104.661 109.411 104.851C108.275 107.211 108.031 109.164 108.683 110.649C109.391 112.26 111.031 113.051 112.286 113.433C112.453 113.484 112.586 113.615 112.642 113.779C112.696 113.947 112.667 114.131 112.563 114.271C106.78 122.034 99.902 134.506 99.8233 149.978V149.981Z" fill="black"/>
<path d="M117.071 111.829C116.945 111.829 116.82 111.785 116.719 111.697C116.564 111.564 112.969 108.394 114.629 104.838C115.952 102.001 115.75 101.671 114.629 99.8418L114.481 99.6008C113.048 97.2475 114.437 95.1599 114.496 95.0713C114.585 94.941 114.725 94.8574 114.882 94.8377C115.04 94.8205 115.195 94.8722 115.31 94.9779L120.479 99.7582C120.698 99.9598 120.713 100.302 120.509 100.52C120.304 100.739 119.965 100.752 119.746 100.55L115.111 96.2639C114.892 96.8812 114.725 97.9189 115.404 99.0377L115.549 99.2762C116.81 101.337 117.105 102.075 115.605 105.293C114.292 108.107 117.393 110.853 117.425 110.88C117.649 111.077 117.673 111.416 117.479 111.643C117.373 111.766 117.223 111.829 117.071 111.829Z" fill="black"/>
<path d="M112.047 107.607C111.439 107.607 110.837 107.371 110.389 106.911L108.535 104.996C108.329 104.782 108.334 104.44 108.548 104.234C108.762 104.027 109.103 104.032 109.312 104.246L111.167 106.161C111.604 106.614 112.33 106.656 112.819 106.257C113.05 106.068 113.389 106.102 113.579 106.334C113.768 106.565 113.734 106.904 113.503 107.093C113.08 107.44 112.563 107.61 112.047 107.61V107.607Z" fill="black"/>
<path d="M289.343 386.138C289.454 386.761 308.477 414.233 308.477 414.233L293.123 418.248L277.99 394.585L289.343 386.138Z" fill="white"/>
<path d="M293.125 418.786C292.943 418.786 292.771 418.695 292.67 418.538L277.538 394.875C277.385 394.636 277.444 394.319 277.671 394.152L289.024 385.705C289.174 385.595 289.37 385.568 289.545 385.637C289.693 385.696 289.808 385.816 289.857 385.966C290.376 387.026 301.523 403.236 308.924 413.922C309.025 414.068 309.047 414.252 308.986 414.417C308.924 414.581 308.787 414.707 308.617 414.751L293.263 418.767C293.219 418.779 293.172 418.784 293.125 418.784V418.786ZM278.718 394.718L293.369 417.626L307.597 413.905C299.932 402.835 291.124 390.036 289.198 386.923L278.718 394.718Z" fill="black"/>
<path d="M293.041 410.549C293.041 410.549 294.826 402.518 303.592 404.817C303.592 404.817 322.278 423.651 330.956 440.401C333.41 445.14 329.065 450.574 323.894 449.264C311.791 446.197 292.343 438.7 278.796 420.796C278.796 420.796 280.47 412.143 284.791 407.517L293.043 410.549H293.041Z" fill="white"/>
<path d="M325.451 449.999C324.893 449.999 324.325 449.93 323.762 449.787C310.38 446.396 291.642 438.67 278.364 421.12C278.27 420.997 278.236 420.842 278.265 420.692C278.334 420.333 280.018 411.832 284.395 407.148C284.543 406.988 284.774 406.937 284.976 407.01L292.685 409.843C293.049 408.751 294.059 406.41 296.381 404.994C298.377 403.777 300.849 403.541 303.728 404.296C303.822 404.32 303.905 404.369 303.974 404.438C304.161 404.628 322.817 423.523 331.434 440.155C332.663 442.531 332.39 445.314 330.718 447.422C329.4 449.084 327.477 450.001 325.448 450.001L325.451 449.999ZM279.372 420.663C292.451 437.824 310.859 445.403 324.025 448.737C326.218 449.293 328.458 448.531 329.872 446.748C331.276 444.977 331.507 442.641 330.475 440.649C322.264 424.804 304.82 406.843 303.31 405.304C300.792 404.672 298.653 404.876 296.951 405.911C294.305 407.519 293.575 410.637 293.568 410.669C293.533 410.822 293.435 410.95 293.299 411.026C293.162 411.1 292.999 411.112 292.854 411.058L284.944 408.151C281.336 412.238 279.669 419.298 279.374 420.668L279.372 420.663Z" fill="black"/>
<path d="M323.745 443.962C317.145 443.962 302.897 441.036 282.269 421.142C282.055 420.936 282.047 420.594 282.254 420.38C282.46 420.166 282.802 420.159 283.019 420.365C311.083 447.429 327.394 442.489 327.556 442.437C327.839 442.344 328.144 442.499 328.237 442.779C328.331 443.062 328.178 443.367 327.895 443.46C327.706 443.524 326.297 443.962 323.745 443.962Z" fill="black"/>
<path d="M311.027 429.102C310.874 429.102 310.722 429.038 310.616 428.913C310.424 428.686 310.451 428.345 310.678 428.15L317.378 422.46C317.607 422.268 317.946 422.296 318.141 422.522C318.332 422.748 318.305 423.09 318.079 423.282L311.378 428.972C311.278 429.058 311.152 429.1 311.029 429.1L311.027 429.102Z" fill="black"/>
<path d="M306.291 424.159C306.131 424.159 305.974 424.088 305.868 423.955C305.684 423.722 305.723 423.382 305.957 423.198L313.28 417.397C313.513 417.213 313.852 417.252 314.039 417.486C314.224 417.719 314.184 418.059 313.951 418.243L306.628 424.044C306.53 424.123 306.409 424.159 306.294 424.159H306.291Z" fill="black"/>
<path d="M242.355 323.591L229.612 333.375L240.801 348.577L252.732 337.204L242.355 323.591Z" fill="white"/>
<path d="M240.803 349.118C240.789 349.118 240.771 349.118 240.757 349.118C240.602 349.105 240.462 349.024 240.368 348.899L229.18 333.697C229.005 333.461 229.052 333.127 229.285 332.95L242.028 323.165C242.141 323.079 242.286 323.04 242.429 323.06C242.571 323.079 242.699 323.153 242.788 323.269L253.165 336.879C253.332 337.098 253.307 337.408 253.108 337.597L241.18 348.97C241.079 349.066 240.946 349.12 240.806 349.12L240.803 349.118ZM230.363 333.481L240.875 347.763L252.009 337.145L242.254 324.348L230.363 333.478V333.481Z" fill="black"/>
<path d="M248.382 346.794L236.539 337.202L234.309 329.163C228.09 329.011 221.109 333.643 217.28 336.624C215.507 338.003 214.929 340.428 215.92 342.444C222.238 355.278 236.483 375.299 243.378 384.727C245.114 387.102 248.878 386.335 249.486 383.453C252.53 369.021 248.382 346.792 248.382 346.792V346.794Z" fill="white"/>
<path d="M246.129 386.679C244.878 386.679 243.705 386.094 242.94 385.049C235.337 374.652 221.655 355.324 215.433 342.685C214.339 340.46 214.976 337.733 216.946 336.198C220.607 333.348 227.645 328.62 234.009 328.62C234.112 328.62 234.218 328.62 234.321 328.625C234.56 328.629 234.764 328.792 234.828 329.02L237.011 336.892L248.721 346.376C248.822 346.457 248.888 346.57 248.913 346.696C248.955 346.92 253.046 369.198 250.014 383.568C249.692 385.1 248.534 386.256 246.995 386.586C246.705 386.647 246.414 386.679 246.129 386.679ZM233.896 329.702C227.883 329.756 221.141 334.305 217.61 337.052C216.041 338.274 215.534 340.44 216.402 342.208C222.587 354.774 236.229 374.042 243.813 384.412C244.496 385.346 245.63 385.777 246.766 385.531C247.882 385.29 248.721 384.454 248.955 383.345C251.792 369.891 248.278 349.307 247.882 347.087L236.195 337.622C236.109 337.551 236.045 337.455 236.015 337.347L233.893 329.702H233.896Z" fill="black"/>
<path d="M244.41 379.519C244.241 379.519 244.071 379.437 243.965 379.287L225.1 352.098C223.806 350.237 223.233 347.893 223.479 345.506C223.949 340.979 222.119 336.331 222.102 336.284C221.991 336.007 222.127 335.694 222.402 335.584C222.68 335.473 222.995 335.608 223.103 335.886C223.182 336.085 225.048 340.829 224.551 345.619C224.33 347.751 224.839 349.833 225.985 351.483L244.85 378.673C245.02 378.919 244.959 379.253 244.715 379.425C244.622 379.489 244.513 379.521 244.408 379.521L244.41 379.519Z" fill="black"/>
<path d="M255.05 194.489C255.05 194.489 291.434 223.217 310.685 250.106C316.066 257.621 316.825 267.511 312.744 275.803C303.881 293.805 284.716 326.087 255.05 342.188L230.138 310.357C230.138 310.357 251.923 286.271 267.938 275.299L227.101 229.527L216.948 206.54L255.053 194.489H255.05Z" fill="black"/>
<path d="M272.559 409.053C273.849 411.328 303.193 389.876 303.193 389.876C303.193 389.876 280.742 363.599 245.064 230.038C244.649 228.484 238.071 195.821 238.071 195.821L189.316 221.375C189.316 221.375 197.884 277.58 272.559 409.051V409.053Z" fill="black"/>
<path d="M250.927 251.997C250.689 251.997 250.472 251.84 250.406 251.599L245.82 234.843C244.966 231.728 245.525 228.41 247.347 225.745L250.155 221.641C250.322 221.395 250.659 221.331 250.905 221.501C251.151 221.668 251.215 222.005 251.045 222.251L248.237 226.355C246.592 228.76 246.09 231.747 246.86 234.558L251.446 251.314C251.525 251.601 251.355 251.899 251.067 251.977C251.021 251.99 250.971 251.997 250.925 251.997H250.927Z" fill="white"/>
<path d="M280.708 339.655C280.499 339.655 280.3 339.533 280.211 339.328C280.101 339.068 269.028 313.091 264.916 300.039C264.828 299.753 264.985 299.451 265.268 299.362C265.556 299.274 265.856 299.431 265.947 299.714C270.041 312.715 281.094 338.642 281.205 338.903C281.323 339.178 281.195 339.496 280.919 339.611C280.851 339.641 280.779 339.655 280.708 339.655Z" fill="white"/>
<path d="M177.84 134.875C178.767 154.335 181.519 202.891 186.604 222.393C187.258 224.899 190.024 226.204 192.385 225.14C204.004 219.897 236.999 205.898 262.107 204.005C265.685 203.734 268.056 200.176 266.939 196.765C262.13 182.065 251.379 147.563 248.352 123.981C247.491 117.278 242.165 112.112 235.545 111.595C223.324 110.644 203.583 111.342 184.993 121.781C180.348 124.39 177.582 129.477 177.84 134.872V134.875Z" fill="white"/>
<path d="M190.658 226.052C189.957 226.052 189.259 225.897 188.61 225.587C187.353 224.987 186.434 223.873 186.082 222.531C180.999 203.041 178.248 154.756 177.301 134.902C177.035 129.33 179.952 123.996 184.73 121.313C203.103 110.995 222.529 110.041 235.589 111.059C242.408 111.591 248.002 116.995 248.89 123.915C251.932 147.617 262.886 182.641 267.455 196.601C268.041 198.388 267.777 200.309 266.732 201.873C265.69 203.432 264.02 204.406 262.151 204.546C237.423 206.41 205.282 219.914 192.611 225.634C191.989 225.914 191.325 226.055 190.658 226.055V226.052ZM178.378 134.85C179.325 154.67 182.069 202.866 187.125 222.258C187.395 223.293 188.103 224.151 189.072 224.614C190.048 225.081 191.175 225.093 192.161 224.648C204.884 218.906 237.165 205.345 262.065 203.469C263.6 203.353 264.974 202.551 265.83 201.27C266.69 199.984 266.907 198.406 266.425 196.935C261.846 182.948 250.869 147.844 247.815 124.05C246.991 117.637 241.815 112.626 235.503 112.136C222.588 111.131 203.393 112.07 185.256 122.255C180.83 124.741 178.13 129.684 178.375 134.85H178.378Z" fill="black"/>
<path d="M199.991 86.5755C199.991 86.5755 196.199 78.8689 194.864 77.5116C193.526 76.1542 192.493 74.7231 196.425 72.0919C200.357 69.4608 210.628 62.4379 216.923 62.4846C223.218 62.5289 227.627 66.5051 225.69 69.3723C223.752 72.2395 222.864 73.4468 224.357 73.6313C225.849 73.8157 226.673 75.4829 222.444 77.9345C218.212 80.3861 203.463 91.0238 199.991 86.5755Z" fill="black"/>
<path d="M221.541 113.351L219.343 101.669C225.96 98.3466 223.295 93.7385 222.306 90.0598C221.241 86.1008 217.961 77.5066 217.961 77.5066C212.532 80.6959 201.887 79.7443 201.887 79.7443C201.887 79.7443 203.414 82.1762 202.536 83.3762C201.66 84.5762 202.206 89.1795 202.206 89.1795C202.206 89.1795 200.305 87.3918 198.272 88.759C197.128 89.5287 198.434 92.8114 199.371 94.6532C200.308 96.495 202.324 96.8565 202.324 96.8565C202.324 96.8565 202.656 96.6573 203.335 98.2802L199.723 117.31L192.631 120.254L208.41 122.383C213.39 123.055 218.431 121.717 222.419 118.663L228.072 114.335L221.541 113.351Z" fill="white"/>
<path d="M210.899 123.092C210.046 123.092 209.19 123.035 208.339 122.919L192.56 120.79C192.319 120.758 192.127 120.566 192.097 120.325C192.065 120.084 192.201 119.851 192.427 119.757L199.248 116.924L202.774 98.3418C202.501 97.7172 202.319 97.4762 202.243 97.3901C202.238 97.3901 202.233 97.3901 202.229 97.3901C202.135 97.3729 199.937 96.9574 198.889 94.8992C198.068 93.2861 196.332 89.4132 197.97 88.3115C199.275 87.4337 200.608 87.6525 201.56 88.1074C201.444 86.5582 201.385 84.0353 202.098 83.0591C202.634 82.3239 201.771 80.5853 201.427 80.0321C201.319 79.8575 201.319 79.6386 201.427 79.464C201.535 79.2894 201.727 79.1911 201.936 79.2083C202.042 79.2181 212.475 80.1058 217.691 77.0419C217.828 76.9608 217.993 76.946 218.143 76.9977C218.293 77.0493 218.411 77.1673 218.468 77.3149C218.603 77.6665 221.77 85.9804 222.83 89.9197C222.96 90.4017 223.118 90.8984 223.285 91.4246C224.35 94.7615 225.67 98.8975 219.951 101.964L222.004 112.874L228.156 113.802C228.37 113.833 228.545 113.991 228.599 114.2C228.653 114.409 228.577 114.633 228.405 114.763L222.751 119.091C219.36 121.688 215.151 123.089 210.901 123.089L210.899 123.092ZM194.687 119.988L208.484 121.85C213.287 122.499 218.246 121.181 222.092 118.235L226.735 114.682L221.46 113.888C221.234 113.853 221.052 113.679 221.01 113.452L218.812 101.77C218.768 101.534 218.886 101.295 219.1 101.187C224.414 98.5188 223.314 95.0811 222.255 91.7541C222.082 91.2156 221.92 90.709 221.785 90.2C220.9 86.905 218.428 80.273 217.676 78.2788C213.011 80.6616 205.499 80.4993 202.816 80.3517C203.239 81.2837 203.682 82.7247 202.971 83.696C202.455 84.4042 202.526 87.291 202.742 89.1156C202.77 89.3418 202.651 89.5582 202.45 89.6615C202.246 89.7623 202.002 89.7279 201.838 89.573C201.774 89.514 200.217 88.1025 198.574 89.2066C198.085 89.5361 198.434 91.6189 199.856 94.4074C200.561 95.7943 202.015 96.2246 202.354 96.3082C202.428 96.3082 202.511 96.318 202.59 96.3451C202.873 96.4385 203.271 96.7188 203.837 98.0713C203.878 98.1697 203.888 98.2754 203.869 98.3811L200.256 117.411C200.222 117.591 200.101 117.741 199.932 117.81L194.687 119.986V119.988ZM202.6 97.3188C202.578 97.3311 202.556 97.3434 202.533 97.3533C202.556 97.3434 202.578 97.3336 202.6 97.3188Z" fill="black"/>
<path d="M213.25 103.592C207.213 103.592 204.965 98.9295 204.936 98.868C204.81 98.5975 204.928 98.2754 205.199 98.1524C205.469 98.027 205.789 98.145 205.915 98.4155C206.05 98.7032 209.288 105.298 219.132 101.172C219.407 101.057 219.724 101.187 219.837 101.462C219.953 101.738 219.823 102.052 219.547 102.168C217.098 103.196 215.01 103.592 213.245 103.592H213.25Z" fill="black"/>
<path d="M197.467 82.8282L199.489 88.7347C199.489 88.7347 212.352 96.424 227.666 93.311C229.766 92.8831 231.102 90.8077 230.627 88.7175L229.447 78.3283C228.977 76.2578 226.909 74.9693 224.843 75.4561L197.465 82.8282H197.467Z" fill="white"/>
<path d="M220.258 94.5845C208.386 94.5845 199.32 89.2632 199.211 89.1992C199.101 89.1328 199.02 89.032 198.978 88.9115L196.956 83.005C196.907 82.8624 196.92 82.7075 196.991 82.5772C197.062 82.4444 197.183 82.3485 197.328 82.3091L224.706 74.937C225.862 74.6641 227.037 74.8559 228.033 75.478C229.027 76.0977 229.718 77.069 229.978 78.2124C229.983 78.2321 229.986 78.2518 229.988 78.2714L231.166 88.6312C231.419 89.7771 231.208 90.95 230.569 91.9361C229.927 92.9295 228.936 93.6058 227.78 93.8418C225.193 94.3681 222.67 94.5869 220.263 94.5869L220.258 94.5845ZM199.934 88.3681C201.488 89.2361 213.569 95.6271 227.561 92.782C228.432 92.605 229.177 92.0959 229.659 91.3484C230.143 90.5984 230.3 89.7058 230.104 88.8378C230.099 88.8181 230.096 88.7984 230.094 88.7788L228.916 78.419C228.717 77.5706 228.201 76.8526 227.46 76.3903C226.713 75.9231 225.828 75.778 224.969 75.9821L198.166 83.1993L199.934 88.3681Z" fill="black"/>
<path d="M212.02 89.8683C211.882 89.8683 211.745 89.8166 211.639 89.7109C211.428 89.4994 211.428 89.1576 211.639 88.9462L216.545 84.0404C216.756 83.829 217.098 83.829 217.31 84.0404C217.521 84.2519 217.521 84.5937 217.31 84.8052L212.404 89.7109C212.298 89.8166 212.16 89.8683 212.023 89.8683H212.02Z" fill="black"/>
<path d="M219.343 88.9167C219.206 88.9167 219.068 88.8651 218.962 88.7594C218.751 88.5479 218.751 88.2061 218.962 87.9946L226.31 80.6496C226.521 80.4381 226.863 80.4381 227.075 80.6496C227.286 80.861 227.286 81.2029 227.075 81.4143L219.73 88.7594C219.624 88.8651 219.486 88.9167 219.348 88.9167H219.343Z" fill="black"/>
<path d="M128.549 385.722C128.549 385.722 128.539 385.722 128.534 385.722C111.648 385.272 100.915 380.834 96.6288 372.527L3.96873 192.905C3.83103 192.639 3.93677 192.314 4.19988 192.177C4.46545 192.039 4.79004 192.145 4.92774 192.408C9.98837 202.219 25.1063 206.454 48.6439 204.654C71.8027 202.881 101.503 195.418 134.537 183.073C141.233 180.57 148.752 183.477 152.03 189.828L232.142 345.122C233.998 348.719 234.22 352.949 232.749 356.723C231.276 360.503 228.247 363.473 224.435 364.87C214.865 368.379 205.442 371.517 196.43 374.194C196.145 374.28 195.845 374.116 195.759 373.83C195.672 373.545 195.837 373.243 196.122 373.159C205.113 370.486 214.513 367.358 224.062 363.857C227.58 362.566 230.381 359.824 231.741 356.332C233.098 352.848 232.894 348.943 231.18 345.618L151.069 190.325C148.042 184.458 141.097 181.775 134.913 184.087C95.8395 198.691 62.4069 206.134 38.8447 206.136C24.4522 206.136 13.7433 203.36 7.6769 197.741L97.5878 372.033C101.621 379.85 112.332 384.212 128.561 384.643C128.859 384.65 129.095 384.898 129.088 385.196C129.08 385.489 128.839 385.722 128.549 385.722Z" fill="black"/>
<path d="M173.49 380.224C173.244 380.224 173.02 380.054 172.964 379.804C172.897 379.513 173.079 379.223 173.37 379.157C180.606 377.514 188.261 375.495 196.12 373.159C196.406 373.073 196.706 373.238 196.792 373.523C196.878 373.809 196.713 374.111 196.428 374.195C188.547 376.538 180.87 378.562 173.611 380.209C173.571 380.219 173.529 380.224 173.49 380.224Z" fill="white"/>
<path d="M145.024 385.031C144.749 385.031 144.515 384.822 144.488 384.544C144.459 384.247 144.675 383.984 144.972 383.954C153.569 383.099 163.122 381.485 173.374 379.157C173.667 379.09 173.954 379.272 174.021 379.562C174.087 379.853 173.905 380.143 173.615 380.209C163.322 382.548 153.722 384.168 145.081 385.026C145.063 385.026 145.044 385.029 145.027 385.029L145.024 385.031Z" fill="black"/>
<path d="M131.326 385.759C130.379 385.759 129.449 385.747 128.537 385.722C128.24 385.715 128.004 385.467 128.011 385.169C128.018 384.872 128.267 384.633 128.564 384.643C133.531 384.776 139.049 384.542 144.971 383.954C145.268 383.925 145.531 384.141 145.561 384.439C145.59 384.736 145.374 384.999 145.076 385.029C140.195 385.513 135.582 385.759 131.323 385.759H131.326Z" fill="white"/>
<path d="M278.713 340.216C273.572 340.216 268.59 337.418 266.096 332.586C265.959 332.32 266.064 331.995 266.33 331.858C266.593 331.72 266.92 331.826 267.058 332.089C270.299 338.374 278.106 340.931 284.453 337.796C287.964 336.06 291.515 334.268 295.007 332.468C341.044 308.719 381.659 281.234 409.37 255.078C436.925 229.067 448.397 207.565 441.674 194.532L351.778 20.2703C353.558 33.8612 341.654 53.3955 317.45 76.2421C289.668 102.465 248.967 130.013 202.841 153.806C199.465 155.547 196.034 157.281 192.648 158.958C189.496 160.519 187.155 163.219 186.056 166.564C184.954 169.915 185.239 173.486 186.857 176.621L213.326 227.933C213.464 228.199 213.358 228.523 213.095 228.661C212.829 228.799 212.505 228.693 212.367 228.43L185.898 177.118C184.148 173.722 183.838 169.856 185.03 166.227C186.22 162.605 188.756 159.681 192.171 157.992C195.552 156.319 198.975 154.588 202.349 152.85C248.386 129.101 289.002 101.617 316.712 75.4601C344.246 49.4685 355.724 27.9793 349.031 14.9441L349.016 14.9146C348.878 14.649 348.984 14.3245 349.25 14.1868C349.513 14.049 349.84 14.1548 349.978 14.4179L442.638 194.041C449.602 207.54 438.052 229.497 410.115 255.867C382.333 282.09 341.632 309.638 295.506 333.431C292.009 335.236 288.451 337.031 284.935 338.77C282.943 339.754 280.818 340.221 278.718 340.221L278.713 340.216Z" fill="black"/>
<path d="M266.575 332.878C266.379 332.878 266.192 332.773 266.096 332.586L247.971 297.449C247.833 297.183 247.939 296.859 248.204 296.721C248.47 296.583 248.794 296.689 248.932 296.952L267.057 332.089C267.195 332.355 267.089 332.679 266.824 332.817C266.745 332.859 266.661 332.878 266.578 332.878H266.575Z" fill="white"/>
<path d="M248.45 297.742C248.253 297.742 248.066 297.636 247.97 297.449L240.259 282.501C240.121 282.235 240.227 281.911 240.492 281.773C240.755 281.635 241.082 281.741 241.22 282.004L248.932 296.952C249.069 297.218 248.964 297.542 248.698 297.68C248.619 297.722 248.536 297.739 248.452 297.739L248.45 297.742Z" fill="black"/>
<path d="M240.737 282.791C240.54 282.791 240.353 282.685 240.257 282.498L212.362 228.425C212.225 228.159 212.33 227.835 212.593 227.697C212.857 227.559 213.184 227.665 213.321 227.928L241.216 282.002C241.354 282.267 241.248 282.592 240.983 282.729C240.904 282.771 240.82 282.791 240.737 282.791Z" fill="white"/>
<path d="M213.176 176.587C212.979 176.587 212.792 176.481 212.696 176.294C212.559 176.029 212.664 175.704 212.927 175.566C285.943 137.899 344.383 90.9249 358.35 58.6751C358.468 58.4022 358.783 58.2743 359.061 58.3948C359.334 58.5128 359.459 58.8301 359.341 59.1055C345.283 91.5667 286.641 138.755 213.422 176.528C213.343 176.57 213.257 176.587 213.176 176.587Z" fill="black"/>
<path d="M221.983 195.231C221.787 195.231 221.6 195.125 221.504 194.938C221.366 194.673 221.472 194.348 221.735 194.21C294.75 156.543 353.193 109.569 367.16 77.3192C367.278 77.0462 367.596 76.9184 367.871 77.0388C368.144 77.1569 368.269 77.4741 368.151 77.7495C354.093 110.211 295.451 157.399 222.232 195.172C222.153 195.214 222.067 195.233 221.986 195.233L221.983 195.231Z" fill="black"/>
<path d="M254.162 201.233C253.973 201.233 253.791 201.135 253.693 200.96C253.545 200.7 253.636 200.37 253.897 200.225C272.128 189.892 289.25 179.038 304.791 167.965C305.034 167.793 305.371 167.85 305.543 168.091C305.715 168.334 305.659 168.671 305.418 168.843C289.847 179.938 272.691 190.812 254.43 201.164C254.347 201.211 254.256 201.236 254.165 201.236L254.162 201.233Z" fill="black"/>
<path d="M317.688 159.661C317.526 159.661 317.366 159.588 317.258 159.45C317.076 159.214 317.122 158.874 317.359 158.693C347.671 135.519 368.484 113.24 375.966 95.9634C376.084 95.6904 376.404 95.565 376.677 95.6831C376.95 95.8011 377.075 96.1208 376.957 96.3937C369.403 113.838 348.47 136.269 318.015 159.553C317.917 159.627 317.801 159.664 317.688 159.664V159.661Z" fill="black"/>
<path d="M286.011 206.171C285.832 206.171 285.655 206.08 285.552 205.918C285.394 205.664 285.47 205.332 285.724 205.173C303.834 193.866 320.297 182.255 334.658 170.665C334.891 170.479 335.231 170.515 335.418 170.747C335.605 170.978 335.568 171.32 335.336 171.506C320.944 183.123 304.444 194.759 286.297 206.087C286.208 206.144 286.11 206.169 286.011 206.169V206.171Z" fill="black"/>
<path d="M344.865 163.374C344.715 163.374 344.565 163.311 344.457 163.188C344.26 162.961 344.285 162.622 344.511 162.425C365.012 144.627 378.935 128.09 384.775 114.603C384.893 114.33 385.208 114.202 385.486 114.322C385.759 114.44 385.884 114.76 385.766 115.033C379.862 128.666 365.841 145.338 345.219 163.242C345.119 163.33 344.991 163.374 344.865 163.374Z" fill="black"/>
<path d="M257.212 269.802C257.015 269.802 256.828 269.697 256.732 269.51C256.595 269.244 256.7 268.92 256.966 268.782C260.298 267.063 263.662 265.293 266.967 263.517C267.23 263.377 267.557 263.475 267.697 263.738C267.837 264.002 267.739 264.329 267.476 264.469C264.166 266.247 260.797 268.02 257.46 269.741C257.382 269.783 257.298 269.8 257.214 269.8L257.212 269.802Z" fill="black"/>
<path d="M267.22 264.533C267.028 264.533 266.841 264.429 266.742 264.248C266.602 263.984 266.701 263.657 266.964 263.517C277.577 257.82 288.008 251.847 297.974 245.768C298.228 245.613 298.56 245.694 298.717 245.948C298.872 246.203 298.791 246.535 298.537 246.69C288.556 252.779 278.106 258.762 267.475 264.469C267.394 264.513 267.306 264.533 267.22 264.533Z" fill="white"/>
<path d="M298.258 246.769C298.076 246.769 297.899 246.678 297.795 246.511C297.641 246.255 297.722 245.923 297.975 245.768C324.54 229.563 348.22 212.311 366.456 195.88C384.564 179.564 396.989 164.353 402.387 151.888C402.505 151.615 402.822 151.49 403.097 151.608C403.37 151.726 403.496 152.046 403.378 152.319C392.169 178.2 352.978 213.479 298.536 246.69C298.447 246.744 298.351 246.769 298.255 246.769H298.258Z" fill="black"/>
<path d="M266.019 288.444C265.823 288.444 265.636 288.338 265.54 288.151C265.402 287.886 265.508 287.561 265.774 287.424C277.289 281.483 288.63 275.217 299.484 268.797C299.74 268.644 300.072 268.73 300.224 268.986C300.377 269.242 300.291 269.574 300.035 269.726C289.164 276.156 277.803 282.434 266.27 288.385C266.192 288.427 266.108 288.447 266.024 288.447L266.019 288.444Z" fill="white"/>
<path d="M299.757 269.802C299.573 269.802 299.393 269.707 299.292 269.537C299.14 269.281 299.226 268.949 299.482 268.797C356.83 234.872 399.637 197.22 411.197 170.533C411.315 170.26 411.629 170.132 411.907 170.252C412.18 170.37 412.306 170.69 412.187 170.963C400.544 197.85 357.568 235.694 300.032 269.729C299.946 269.78 299.85 269.805 299.757 269.805V269.802Z" fill="black"/>
<path d="M274.828 307.088C274.631 307.088 274.444 306.983 274.349 306.796C274.211 306.53 274.317 306.206 274.582 306.068C281.317 302.593 288.038 298.983 294.559 295.337C294.82 295.192 295.149 295.285 295.294 295.543C295.439 295.804 295.346 296.133 295.088 296.279C288.557 299.93 281.824 303.545 275.079 307.027C275 307.069 274.917 307.088 274.833 307.088H274.828Z" fill="black"/>
<path d="M294.82 296.35C294.63 296.35 294.446 296.249 294.348 296.074C294.203 295.814 294.296 295.484 294.554 295.339C358.252 259.728 407.494 218.058 420.003 189.177C420.121 188.904 420.44 188.778 420.713 188.896C420.986 189.014 421.112 189.334 420.994 189.607C414.824 203.852 399.886 221.311 377.791 240.095C355.442 259.098 326.841 278.527 295.08 296.283C294.997 296.33 294.906 296.352 294.817 296.352L294.82 296.35Z" fill="black"/>
<path d="M337.979 348.19C337.797 348.19 337.618 348.097 337.517 347.93C337.362 347.674 337.443 347.342 337.699 347.187C339.553 346.061 341.392 344.932 343.215 343.804C343.468 343.646 343.8 343.725 343.957 343.978C344.115 344.232 344.036 344.563 343.783 344.721C341.958 345.852 340.116 346.981 338.26 348.109C338.171 348.163 338.075 348.188 337.979 348.188V348.19ZM348.986 341.367C348.806 341.367 348.632 341.278 348.528 341.116C348.369 340.865 348.442 340.531 348.696 340.371C350.53 339.208 352.347 338.047 354.145 336.882C354.396 336.719 354.73 336.791 354.892 337.041C355.055 337.292 354.983 337.627 354.733 337.789C352.933 338.955 351.113 340.12 349.276 341.283C349.187 341.34 349.087 341.367 348.988 341.367H348.986ZM359.857 334.329C359.682 334.329 359.51 334.243 359.407 334.088C359.242 333.84 359.311 333.505 359.56 333.341C361.372 332.141 363.164 330.941 364.935 329.741C365.181 329.573 365.518 329.637 365.685 329.886C365.852 330.132 365.788 330.468 365.54 330.636C363.767 331.838 361.972 333.041 360.155 334.243C360.064 334.305 359.96 334.334 359.857 334.334V334.329ZM370.578 327.06C370.409 327.06 370.239 326.979 370.133 326.829C369.964 326.583 370.025 326.249 370.269 326.077C372.039 324.847 373.822 323.596 375.565 322.354C375.809 322.182 376.146 322.238 376.318 322.482C376.49 322.725 376.433 323.062 376.192 323.234C374.446 324.478 372.661 325.732 370.886 326.964C370.792 327.028 370.684 327.06 370.578 327.06ZM381.137 319.543C380.97 319.543 380.808 319.467 380.7 319.322C380.525 319.081 380.577 318.744 380.818 318.567C382.576 317.281 384.324 315.985 386.018 314.714C386.257 314.534 386.596 314.583 386.776 314.822C386.955 315.06 386.906 315.4 386.668 315.577C384.971 316.851 383.218 318.151 381.455 319.437C381.359 319.509 381.248 319.541 381.137 319.541V319.543Z" fill="black"/>
<path d="M386.343 315.685C386.178 315.685 386.016 315.611 385.91 315.469C385.73 315.23 385.78 314.891 386.018 314.714L386.148 314.615C386.387 314.436 386.726 314.485 386.903 314.723C387.083 314.962 387.034 315.301 386.795 315.478L386.665 315.577C386.569 315.65 386.453 315.685 386.343 315.685ZM391.625 311.66C391.462 311.66 391.303 311.588 391.197 311.451C391.015 311.214 391.057 310.875 391.293 310.693C393.004 309.368 394.716 308.023 396.383 306.695C396.616 306.508 396.956 306.547 397.143 306.781C397.33 307.014 397.29 307.354 397.057 307.541C395.387 308.873 393.671 310.221 391.954 311.549C391.856 311.625 391.74 311.662 391.625 311.662V311.66Z" fill="white"/>
<path d="M400.913 304.265C400.758 304.265 400.6 304.199 400.495 304.069C400.305 303.838 400.34 303.498 400.568 303.309C402.265 301.917 403.937 300.523 405.536 299.163C405.764 298.969 406.104 298.998 406.298 299.224C406.49 299.451 406.463 299.792 406.236 299.987C404.631 301.349 402.956 302.748 401.254 304.142C401.154 304.226 401.033 304.265 400.913 304.265Z" fill="black"/>
<path d="M410.247 296.35C410.097 296.35 409.947 296.288 409.841 296.165C409.645 295.942 409.667 295.6 409.89 295.403C411.531 293.962 413.151 292.511 414.708 291.087C414.926 290.886 415.268 290.901 415.47 291.122C415.672 291.341 415.654 291.683 415.435 291.884C413.874 293.313 412.246 294.771 410.601 296.214C410.498 296.305 410.372 296.35 410.245 296.35H410.247Z" fill="white"/>
<path d="M415.072 292.027C414.927 292.027 414.779 291.968 414.673 291.852C414.472 291.633 414.489 291.292 414.708 291.09C415.763 290.124 416.8 289.162 417.818 288.203C418.035 287.999 418.377 288.009 418.581 288.225C418.785 288.442 418.775 288.783 418.559 288.988C417.538 289.949 416.495 290.915 415.436 291.884C415.332 291.98 415.202 292.027 415.072 292.027ZM422.854 284.635C422.714 284.635 422.577 284.581 422.471 284.475C422.262 284.264 422.262 283.922 422.476 283.711C424.03 282.176 425.557 280.627 427.013 279.105C427.219 278.888 427.561 278.884 427.775 279.088C427.991 279.294 427.999 279.636 427.792 279.85C426.329 281.377 424.795 282.936 423.236 284.478C423.13 284.581 422.992 284.633 422.857 284.633L422.854 284.635ZM431.81 275.274C431.682 275.274 431.552 275.227 431.449 275.136C431.227 274.937 431.208 274.595 431.409 274.374C432.88 272.738 434.304 271.098 435.644 269.495C435.835 269.266 436.175 269.234 436.404 269.426C436.632 269.618 436.662 269.957 436.472 270.186C435.125 271.799 433.691 273.449 432.211 275.094C432.105 275.212 431.958 275.274 431.81 275.274ZM440.109 265.325C439.994 265.325 439.881 265.288 439.782 265.214C439.546 265.032 439.499 264.693 439.681 264.457C441.029 262.696 442.303 260.94 443.471 259.236C443.64 258.99 443.975 258.926 444.221 259.096C444.467 259.266 444.528 259.6 444.361 259.846C443.183 261.565 441.897 263.335 440.537 265.111C440.431 265.248 440.269 265.322 440.107 265.322L440.109 265.325ZM447.412 254.625C447.319 254.625 447.223 254.601 447.137 254.549C446.881 254.397 446.795 254.065 446.948 253.809C448.089 251.889 449.117 249.985 450.007 248.151C450.137 247.883 450.459 247.77 450.727 247.9C450.995 248.03 451.108 248.353 450.978 248.621C450.076 250.482 449.03 252.412 447.875 254.357C447.774 254.527 447.594 254.623 447.41 254.623L447.412 254.625Z" fill="black"/>
<path d="M55.5138 447.603C53.7335 447.603 51.9679 447.574 50.2737 447.517C49.9762 447.507 49.7425 447.256 49.7524 446.959C49.7622 446.661 50.0081 446.43 50.3106 446.437C52.3909 446.506 54.5597 446.533 56.7679 446.519C57.0556 446.504 57.3089 446.757 57.3114 447.055C57.3114 447.352 57.0728 447.596 56.7753 447.598C56.3523 447.601 55.9343 447.603 55.5163 447.603H55.5138ZM63.2474 447.436C62.9597 447.436 62.7211 447.21 62.7088 446.919C62.6966 446.622 62.9277 446.369 63.2252 446.356C65.3179 446.268 67.4892 446.142 69.6777 445.985C69.9777 445.963 70.2334 446.187 70.2555 446.484C70.2777 446.782 70.0539 447.04 69.7564 447.062C67.558 447.222 65.3744 447.345 63.272 447.433C63.2646 447.433 63.2572 447.433 63.2498 447.433L63.2474 447.436ZM43.8213 447.146C43.8065 447.146 43.7918 447.146 43.777 447.146C41.5418 446.961 39.3656 446.715 37.3074 446.418C37.0123 446.376 36.8082 446.101 36.85 445.806C36.8918 445.51 37.1672 445.306 37.4623 445.348C39.4983 445.643 41.6549 445.884 43.868 446.069C44.1655 446.093 44.3868 446.354 44.3622 446.651C44.3377 446.934 44.1016 447.146 43.8237 447.146H43.8213ZM76.1719 446.511C75.8965 446.511 75.6629 446.302 75.6358 446.024C75.6063 445.727 75.8227 445.464 76.1203 445.434C78.2104 445.228 80.3743 444.989 82.5481 444.724C82.8432 444.689 83.1136 444.898 83.1505 445.193C83.1874 445.488 82.9759 445.759 82.6809 445.796C80.4973 446.064 78.326 446.302 76.226 446.509C76.2088 446.509 76.1891 446.511 76.1719 446.511ZM31.0099 445.26C30.9705 445.26 30.9312 445.255 30.8918 445.247C28.6714 444.748 26.5517 444.163 24.5968 443.506C24.314 443.41 24.1616 443.106 24.2575 442.823C24.3534 442.54 24.6607 442.388 24.9411 442.483C26.8615 443.128 28.9443 443.703 31.1304 444.195C31.4205 444.261 31.6049 444.549 31.5386 444.839C31.482 445.09 31.2582 445.262 31.0123 445.262L31.0099 445.26ZM89.0374 444.942C88.7718 444.942 88.5431 444.748 88.5038 444.48C88.462 444.185 88.6661 443.912 88.9611 443.868C91.0562 443.568 93.2078 443.236 95.357 442.884C95.6496 442.835 95.9275 443.037 95.9767 443.329C96.0259 443.624 95.8242 443.902 95.5316 443.949C93.3775 444.301 91.2185 444.633 89.1161 444.935C89.089 444.94 89.0644 444.94 89.0398 444.94L89.0374 444.942ZM101.827 442.857C101.571 442.857 101.342 442.675 101.296 442.415C101.241 442.122 101.438 441.839 101.731 441.788C103.821 441.409 105.958 441.003 108.09 440.58C108.38 440.524 108.668 440.713 108.724 441.006C108.781 441.298 108.591 441.581 108.299 441.64C106.164 442.063 104.018 442.471 101.923 442.85C101.891 442.855 101.859 442.86 101.827 442.86V442.857ZM18.7813 441.074C18.7001 441.074 18.619 441.055 18.5403 441.018C16.4747 439.983 14.5985 438.815 12.9633 437.543C12.7272 437.361 12.6854 437.022 12.8674 436.786C13.0493 436.55 13.3887 436.508 13.6247 436.69C15.2034 437.917 17.0206 439.048 19.0247 440.051C19.2903 440.184 19.3985 440.509 19.2657 440.777C19.1722 440.966 18.9804 441.074 18.7813 441.074ZM114.542 440.342C114.294 440.342 114.07 440.167 114.013 439.914C113.952 439.621 114.136 439.336 114.429 439.272C116.504 438.829 118.631 438.357 120.749 437.875C121.039 437.809 121.329 437.991 121.395 438.281C121.462 438.571 121.28 438.861 120.99 438.928C118.868 439.412 116.736 439.884 114.655 440.329C114.618 440.337 114.579 440.342 114.542 440.342ZM127.176 437.457C126.933 437.457 126.712 437.292 126.653 437.044C126.581 436.754 126.761 436.461 127.051 436.392C129.119 435.891 131.234 435.365 133.334 434.829C133.624 434.755 133.917 434.929 133.99 435.217C134.064 435.507 133.89 435.8 133.602 435.874C131.497 436.412 129.38 436.938 127.307 437.442C127.265 437.452 127.221 437.457 127.179 437.457H127.176ZM139.732 434.248C139.494 434.248 139.275 434.088 139.211 433.847C139.135 433.56 139.304 433.262 139.592 433.186C141.65 432.633 143.753 432.057 145.835 431.472C146.123 431.393 146.421 431.558 146.502 431.846C146.583 432.133 146.416 432.431 146.128 432.512C144.04 433.097 141.935 433.675 139.872 434.229C139.826 434.241 139.779 434.248 139.732 434.248ZM8.74116 433.078C8.5764 433.078 8.41411 433.004 8.30837 432.861C7.39116 431.642 6.60674 430.333 5.97232 428.971C5.6797 428.339 5.41413 427.688 5.18298 427.029C5.08462 426.748 5.23216 426.438 5.51495 426.34C5.79527 426.242 6.1051 426.389 6.20346 426.672C6.42232 427.297 6.67314 427.916 6.95346 428.516C7.55592 429.81 8.301 431.054 9.17394 432.212C9.35345 432.451 9.30427 432.79 9.06575 432.967C8.96739 433.041 8.85427 433.075 8.74116 433.075V433.078ZM152.212 430.747C151.978 430.747 151.762 430.594 151.693 430.358C151.609 430.073 151.774 429.773 152.059 429.689C154.115 429.089 156.183 428.472 158.263 427.84C158.546 427.754 158.851 427.914 158.937 428.199C159.023 428.484 158.863 428.787 158.578 428.873C156.493 429.505 154.422 430.125 152.362 430.725C152.31 430.739 152.261 430.747 152.209 430.747H152.212ZM164.615 426.982C164.386 426.982 164.172 426.834 164.101 426.603C164.012 426.318 164.17 426.016 164.455 425.927C166.501 425.283 168.557 424.626 170.622 423.955C170.905 423.864 171.21 424.019 171.303 424.302C171.394 424.584 171.239 424.889 170.957 424.983C168.886 425.656 166.828 426.315 164.78 426.96C164.725 426.977 164.671 426.984 164.617 426.984L164.615 426.982ZM176.939 422.974C176.713 422.974 176.504 422.831 176.428 422.605C176.332 422.322 176.484 422.017 176.767 421.921C178.801 421.238 180.844 420.542 182.897 419.834C183.178 419.735 183.488 419.885 183.584 420.168C183.682 420.451 183.532 420.758 183.249 420.854C181.193 421.565 179.147 422.263 177.111 422.947C177.055 422.966 176.996 422.974 176.939 422.974ZM4.47725 421.053C4.192 421.053 3.95348 420.829 3.93873 420.539C3.9166 420.102 3.9043 419.657 3.9043 419.211C3.9043 417.534 4.06167 415.774 4.37397 413.974C4.42561 413.681 4.70348 413.482 4.99856 413.534C5.29364 413.585 5.49036 413.863 5.43872 414.158C5.13872 415.897 4.98626 417.596 4.98626 419.211C4.98626 419.639 4.99609 420.065 5.01822 420.485C5.03298 420.783 4.80429 421.036 4.50676 421.051C4.49692 421.051 4.48708 421.051 4.4797 421.051L4.47725 421.053ZM6.54035 408.348C6.48133 408.348 6.42232 408.338 6.36576 408.318C6.08297 408.222 5.93298 407.915 6.03134 407.632C6.70019 405.682 7.53871 403.648 8.51985 401.588C8.64772 401.317 8.96984 401.204 9.24033 401.332C9.50836 401.46 9.62394 401.782 9.49607 402.053C8.53214 404.076 7.70837 406.071 7.05428 407.981C6.97805 408.205 6.76904 408.345 6.54281 408.345L6.54035 408.348ZM12.0534 396.645C11.96 396.645 11.8665 396.621 11.7805 396.571C11.5223 396.421 11.4362 396.089 11.5887 395.831C12.6387 394.041 13.8116 392.189 15.078 390.33C15.2452 390.085 15.5821 390.021 15.828 390.188C16.0739 390.355 16.1378 390.692 15.9706 390.938C14.719 392.78 13.5583 394.609 12.5206 396.38C12.4198 396.552 12.2403 396.648 12.0534 396.648V396.645ZM19.3124 385.917C19.1993 385.917 19.0837 385.88 18.9854 385.806C18.7468 385.626 18.7026 385.287 18.8821 385.049C20.1485 383.384 21.5107 381.672 22.932 379.961C23.1239 379.732 23.4632 379.7 23.6919 379.892C23.9206 380.084 23.9525 380.423 23.7632 380.652C22.3517 382.349 20.9993 384.048 19.7403 385.703C19.6345 385.843 19.4722 385.917 19.3099 385.917H19.3124ZM27.5845 375.945C27.4566 375.945 27.3287 375.901 27.2255 375.808C27.0042 375.608 26.9845 375.267 27.1837 375.045C28.5878 373.476 30.073 371.873 31.5951 370.277C31.8017 370.061 32.1435 370.054 32.3599 370.26C32.5763 370.467 32.5836 370.808 32.3771 371.022C30.8623 372.611 29.3845 374.207 27.9878 375.766C27.882 375.884 27.7345 375.945 27.5845 375.945ZM36.523 366.564C36.3828 366.564 36.2451 366.51 36.1393 366.404C35.9303 366.193 35.9303 365.851 36.1418 365.64C37.6418 364.149 39.2131 362.632 40.809 361.125C41.0254 360.921 41.3672 360.928 41.5713 361.147C41.7754 361.363 41.7655 361.705 41.5491 361.909C39.9606 363.409 38.3967 364.924 36.9016 366.407C36.7959 366.51 36.6582 366.564 36.5205 366.564H36.523ZM45.9409 357.66C45.7934 357.66 45.6459 357.601 45.5401 357.483C45.3409 357.262 45.3581 356.92 45.5795 356.721C47.1557 355.297 48.7885 353.849 50.4384 352.415C50.6647 352.218 51.004 352.243 51.2007 352.469C51.3974 352.695 51.3729 353.035 51.1466 353.231C49.504 354.658 47.8737 356.101 46.3049 357.522C46.2016 357.616 46.0712 357.663 45.9434 357.663L45.9409 357.66ZM55.7228 349.157C55.5679 349.157 55.4155 349.091 55.3097 348.963C55.1179 348.734 55.1474 348.392 55.3761 348.203C56.3769 347.364 57.3925 346.523 58.4179 345.68C58.649 345.491 58.9884 345.525 59.1777 345.756C59.3671 345.987 59.3326 346.327 59.1015 346.516C58.0761 347.357 57.0655 348.193 56.0671 349.032C55.9663 349.115 55.8433 349.157 55.7204 349.157H55.7228Z" fill="black"/>
<path d="M104.923 38.2702C100.441 30.4211 90.5873 27.8072 83.0923 32.5727C75.7841 37.2202 73.571 46.9603 78.0833 54.5955C80.257 58.2767 83.5964 60.7898 87.339 61.8668C90.2111 62.693 92.675 64.6209 94.1897 67.2717L95.0897 68.8454C95.8324 70.1462 97.4528 70.5938 98.7094 69.8438L107.874 64.3701C109.131 63.6201 109.544 61.9578 108.801 60.657L107.906 59.0906C106.413 56.4767 105.912 53.366 106.637 50.4521C107.628 46.4734 107.117 42.1136 104.923 38.2727V38.2702Z" fill="black"/>
<path d="M108.75 76.6281C105.622 78.497 101.586 77.383 99.7348 74.1396L97.5586 70.3282L108.885 63.5659L111.061 67.3774C112.913 70.6183 111.877 74.7617 108.752 76.6281H108.75Z" fill="white"/>
<path d="M105.484 78.074C104.892 78.074 104.294 77.9978 103.704 77.8429C101.825 77.3486 100.246 76.129 99.2629 74.4077L97.0867 70.5962C96.9416 70.3405 97.0252 70.0159 97.2785 69.8659L108.605 63.1036C108.73 63.0299 108.878 63.0077 109.018 63.0446C109.158 63.0815 109.278 63.1725 109.35 63.2979L111.526 67.1093C113.52 70.5987 112.396 75.0765 109.025 77.0929C107.936 77.7445 106.719 78.0765 105.484 78.0765V78.074ZM98.2891 70.52L100.202 73.8716C101.041 75.3396 102.381 76.3798 103.979 76.7978C105.516 77.2011 107.112 76.9749 108.472 76.1634C111.344 74.4495 112.293 70.6257 110.589 67.643L108.686 64.311L98.2891 70.52Z" fill="black"/>
<path d="M77.9206 22.6703C77.7337 22.6703 77.5517 22.572 77.4509 22.3998L69.5108 8.54829C69.3632 8.2901 69.4518 7.96059 69.71 7.81059C69.9682 7.66305 70.2977 7.75157 70.4477 8.00977L78.3878 21.8613C78.5353 22.1195 78.4468 22.449 78.1886 22.599C78.105 22.6482 78.0116 22.6703 77.9206 22.6703Z" fill="black"/>
<path d="M51.7051 74.0585C51.5182 74.0585 51.3362 73.9602 51.2354 73.7856C51.0879 73.5274 51.1764 73.1979 51.4346 73.0479L69.4836 62.7127C69.7443 62.5651 70.0713 62.6537 70.2213 62.9119C70.3689 63.1701 70.2804 63.4996 70.0222 63.6496L51.9731 73.9847C51.8895 74.0339 51.796 74.056 51.7051 74.056V74.0585Z" fill="black"/>
<path d="M116.254 37.5891C116.065 37.5891 115.881 37.4882 115.782 37.3112C115.637 37.0505 115.731 36.721 115.991 36.5759L134.658 26.1645C134.918 26.0195 135.248 26.1129 135.393 26.3735C135.538 26.6342 135.444 26.9637 135.184 27.1088L116.517 37.5202C116.434 37.5669 116.343 37.5891 116.254 37.5891Z" fill="black"/>
<path d="M64.5244 42.4678C64.4752 42.4678 64.426 42.4604 64.3768 42.4481L46.8171 37.4957C46.5294 37.4146 46.3622 37.117 46.4433 36.8293C46.5245 36.5416 46.822 36.3744 47.1097 36.4555L64.6694 41.408C64.9572 41.4891 65.1244 41.7867 65.0432 42.0744C64.9768 42.3129 64.7604 42.4678 64.5244 42.4678Z" fill="black"/>
<path d="M101.235 22.6112C101.188 22.6112 101.139 22.6038 101.09 22.5915C100.802 22.5128 100.635 22.2153 100.714 21.9276L105.836 3.37198C105.915 3.08428 106.212 2.91706 106.5 2.99575C106.787 3.07444 106.955 3.37198 106.876 3.65968L101.754 22.2153C101.688 22.4538 101.471 22.6112 101.233 22.6112H101.235Z" fill="black"/>
<path d="M418.207 84.9643C418.077 84.9643 417.947 84.9176 417.843 84.8241C417.622 84.6225 417.607 84.2807 417.809 84.0618C418.49 83.3143 419.161 82.5717 419.82 81.8315C420.017 81.6078 420.359 81.5881 420.583 81.7873C420.806 81.9864 420.826 82.3258 420.627 82.5496C419.965 83.2946 419.292 84.0422 418.606 84.7922C418.5 84.9077 418.352 84.9692 418.207 84.9692V84.9643ZM424.456 77.8233C424.333 77.8233 424.21 77.7815 424.109 77.6979C423.88 77.5061 423.851 77.1668 424.04 76.9381C425.452 75.2512 426.819 73.5594 428.1 71.9119C428.284 71.6758 428.621 71.634 428.857 71.816C429.093 71.998 429.135 72.3373 428.951 72.5734C427.662 74.2307 426.288 75.9324 424.869 77.6291C424.761 77.757 424.608 77.8233 424.453 77.8233H424.456ZM432.398 67.5865C432.29 67.5865 432.179 67.5546 432.086 67.4857C431.842 67.3136 431.786 66.9767 431.961 66.7333C433.244 64.9308 434.461 63.1333 435.575 61.3898C435.738 61.139 436.07 61.0652 436.32 61.2251C436.571 61.3849 436.645 61.7194 436.485 61.9702C435.361 63.7284 434.134 65.5431 432.841 67.3603C432.735 67.5078 432.57 67.5865 432.401 67.5865H432.398ZM439.352 56.6587C439.264 56.6587 439.175 56.6366 439.092 56.5899C438.831 56.4448 438.735 56.1177 438.88 55.8546C439.962 53.9022 440.938 51.9694 441.779 50.1104C441.902 49.8399 442.222 49.717 442.495 49.8424C442.765 49.9653 442.886 50.285 442.763 50.5579C441.91 52.4415 440.919 54.4014 439.824 56.3784C439.726 56.5555 439.542 56.6563 439.352 56.6563V56.6587ZM444.644 44.8506C444.588 44.8506 444.531 44.8408 444.474 44.8236C444.192 44.7301 444.037 44.4252 444.13 44.1424C444.836 42.008 445.367 39.9252 445.711 37.9482C445.763 37.6556 446.038 37.4588 446.336 37.508C446.628 37.5597 446.825 37.84 446.776 38.1326C446.422 40.1613 445.878 42.2982 445.155 44.4818C445.082 44.708 444.87 44.8531 444.644 44.8531V44.8506ZM446.732 32.1326C446.442 32.1326 446.203 31.9015 446.193 31.6113C446.119 29.4179 445.775 27.3228 445.163 25.3851C445.074 25.0999 445.232 24.7974 445.515 24.7065C445.797 24.6155 446.102 24.7753 446.193 25.0581C446.835 27.0892 447.199 29.2827 447.273 31.5745C447.283 31.872 447.049 32.1228 446.751 32.1326C446.744 32.1326 446.739 32.1326 446.734 32.1326H446.732ZM312.433 22.3827C312.202 22.3827 311.988 22.2352 311.917 22.0016C311.828 21.7163 311.988 21.4139 312.274 21.3253C314.342 20.686 316.429 20.054 318.48 19.4467C318.768 19.3606 319.065 19.5253 319.151 19.8106C319.235 20.0958 319.073 20.3958 318.787 20.4819C316.739 21.0893 314.654 21.7188 312.591 22.3581C312.537 22.3753 312.483 22.3827 312.431 22.3827H312.433ZM442.817 19.9778C442.647 19.9778 442.48 19.8991 442.374 19.7491C441.201 18.0819 439.743 16.5426 438.039 15.1705C437.806 14.9836 437.771 14.6442 437.958 14.4106C438.145 14.1795 438.484 14.1401 438.718 14.3295C440.498 15.7631 442.025 17.3786 443.257 19.127C443.429 19.3704 443.37 19.7073 443.127 19.8794C443.033 19.9458 442.925 19.9778 442.817 19.9778ZM324.859 18.7065C324.623 18.7065 324.406 18.5516 324.34 18.3131C324.259 18.0254 324.426 17.7278 324.714 17.6467C326.806 17.0565 328.909 16.4762 330.969 15.9254C331.257 15.8491 331.555 16.0188 331.631 16.3065C331.707 16.5942 331.537 16.8918 331.25 16.968C329.196 17.5188 327.096 18.0967 325.009 18.6844C324.96 18.6991 324.91 18.704 324.861 18.704L324.859 18.7065ZM337.377 15.3524C337.137 15.3524 336.915 15.1901 336.854 14.9442C336.78 14.6541 336.957 14.3614 337.245 14.2877C339.357 13.7541 341.479 13.2352 343.547 12.7459C343.84 12.677 344.127 12.8565 344.196 13.1467C344.265 13.4369 344.086 13.727 343.795 13.7959C341.732 14.2828 339.615 14.8016 337.51 15.3328C337.466 15.345 337.422 15.35 337.377 15.35V15.3524ZM349.99 12.3746C349.741 12.3746 349.518 12.2024 349.463 11.9492C349.4 11.659 349.584 11.3688 349.874 11.3074C352.009 10.8402 354.145 10.3902 356.226 9.97458C356.516 9.91557 356.804 10.1049 356.86 10.3975C356.919 10.6902 356.73 10.9754 356.437 11.032C354.364 11.4475 352.232 11.8951 350.105 12.3598C350.066 12.3672 350.027 12.3721 349.99 12.3721V12.3746ZM432.924 11.8213C432.843 11.8213 432.76 11.8016 432.683 11.7647C430.891 10.8647 428.897 10.0557 426.762 9.36475C426.479 9.27377 426.324 8.96885 426.415 8.68361C426.506 8.40082 426.811 8.24345 427.097 8.33689C429.285 9.04508 431.329 9.87377 433.17 10.7984C433.436 10.9311 433.544 11.2557 433.411 11.5238C433.315 11.7131 433.126 11.8213 432.929 11.8213H432.924ZM362.698 9.83197C362.442 9.83197 362.213 9.65 362.167 9.38689C362.115 9.09427 362.309 8.81148 362.602 8.75984C364.758 8.37132 366.913 8.00738 369.003 7.67788C369.298 7.63116 369.573 7.83279 369.62 8.12787C369.667 8.42295 369.465 8.69836 369.17 8.74508C367.087 9.07459 364.94 9.43607 362.791 9.82459C362.759 9.82951 362.727 9.83442 362.695 9.83442L362.698 9.83197ZM375.499 7.81312C375.231 7.81312 375 7.6164 374.966 7.34345C374.926 7.04837 375.133 6.77543 375.431 6.73608C377.609 6.44592 379.781 6.18526 381.878 5.96395C382.178 5.93199 382.441 6.14838 382.471 6.44346C382.503 6.741 382.286 7.00657 381.991 7.03608C379.901 7.25739 377.742 7.51558 375.571 7.80574C375.546 7.8082 375.522 7.81067 375.499 7.81067V7.81312ZM420.661 7.75657C420.625 7.75657 420.588 7.7541 420.553 7.74427C418.554 7.33362 416.417 6.98935 414.202 6.72132C413.907 6.68444 413.695 6.41641 413.729 6.12133C413.766 5.82625 414.032 5.61478 414.329 5.6492C416.575 5.91969 418.741 6.26887 420.77 6.6869C421.062 6.74592 421.249 7.03362 421.19 7.32378C421.138 7.57952 420.912 7.75411 420.661 7.75411V7.75657ZM388.387 6.45822C388.107 6.45822 387.871 6.24182 387.848 5.95904C387.826 5.6615 388.05 5.4033 388.348 5.38117C390.556 5.21642 392.739 5.09101 394.837 5.01232C395.122 5.00249 395.385 5.23363 395.398 5.53117C395.41 5.82871 395.176 6.07952 394.879 6.09182C392.794 6.17297 390.625 6.29592 388.429 6.45822C388.414 6.45822 388.402 6.45822 388.387 6.45822ZM407.813 6.16313C407.813 6.16313 407.793 6.16313 407.784 6.16313C405.718 6.04756 403.549 5.98362 401.334 5.97625C401.036 5.97625 400.795 5.73281 400.795 5.43281C400.795 5.13527 401.039 4.89429 401.336 4.89429C403.569 4.90412 405.757 4.96806 407.84 5.08364C408.138 5.10085 408.366 5.35412 408.349 5.65412C408.334 5.94182 408.096 6.16313 407.811 6.16313H407.813Z" fill="black"/>
<path d="M46.2955 265.379C46.2955 265.379 46.2881 265.379 46.2857 265.379C44.0504 265.337 41.8619 265.239 39.7841 265.086C39.4865 265.064 39.2627 264.806 39.2849 264.508C39.307 264.211 39.5627 263.987 39.8627 264.009C41.9209 264.162 44.0898 264.257 46.3053 264.299C46.6029 264.304 46.8414 264.55 46.8365 264.85C46.8316 265.145 46.5906 265.381 46.2979 265.381L46.2955 265.379ZM52.775 265.349C52.4823 265.349 52.2438 265.116 52.2364 264.823C52.2291 264.525 52.4627 264.277 52.7627 264.27C54.8479 264.213 57.0192 264.115 59.2151 263.972C59.5175 263.957 59.7684 264.179 59.788 264.476C59.8077 264.774 59.5815 265.03 59.2839 265.049C57.0733 265.192 54.8897 265.293 52.7897 265.349C52.7848 265.349 52.7799 265.349 52.775 265.349ZM65.7068 264.525C65.4314 264.525 65.1978 264.316 65.1708 264.039C65.1413 263.741 65.3601 263.478 65.6552 263.448C67.7429 263.247 69.9044 263.006 72.0806 262.73C72.3757 262.693 72.6461 262.903 72.683 263.2C72.7199 263.495 72.5109 263.766 72.2134 263.803C70.0273 264.078 67.856 264.319 65.7585 264.523C65.7413 264.523 65.7241 264.525 65.7068 264.525ZM33.3833 264.398C33.3587 264.398 33.3316 264.398 33.3046 264.393C31.0595 264.071 28.903 263.667 26.8915 263.19C26.6014 263.121 26.4218 262.831 26.4907 262.541C26.5595 262.251 26.8497 262.071 27.1399 262.14C29.1194 262.607 31.2464 263.008 33.4595 263.325C33.7546 263.367 33.9587 263.643 33.9169 263.938C33.8775 264.206 33.6464 264.4 33.3833 264.4V264.398ZM78.565 262.92C78.3019 262.92 78.0732 262.728 78.0314 262.46C77.9871 262.165 78.1887 261.889 78.4838 261.845C80.5691 261.53 82.7158 261.181 84.8674 260.807C85.1625 260.756 85.4403 260.953 85.492 261.248C85.5436 261.54 85.3469 261.821 85.0518 261.872C82.8928 262.248 80.7363 262.598 78.6437 262.912C78.6166 262.917 78.5896 262.92 78.5625 262.92H78.565ZM20.8104 261.356C20.7489 261.356 20.685 261.346 20.6235 261.321C18.4596 260.525 16.4555 259.598 14.6678 258.57C14.4096 258.422 14.3211 258.09 14.4686 257.832C14.6186 257.574 14.9481 257.485 15.2063 257.633C16.9424 258.631 18.8924 259.531 20.9973 260.308C21.2776 260.412 21.4202 260.721 21.317 261.002C21.2358 261.221 21.0293 261.356 20.8104 261.356ZM91.3346 260.704C91.0813 260.704 90.8551 260.525 90.8059 260.266C90.7493 259.974 90.9411 259.691 91.2337 259.634C93.3042 259.231 95.4362 258.796 97.5731 258.339C97.8632 258.277 98.1509 258.462 98.2148 258.754C98.2763 259.047 98.0919 259.332 97.7993 259.396C95.6575 259.853 93.5182 260.291 91.4403 260.694C91.4059 260.702 91.3715 260.704 91.337 260.704H91.3346ZM104.008 257.999C103.762 257.999 103.541 257.83 103.482 257.581C103.416 257.291 103.595 257.001 103.885 256.932C105.951 256.455 108.068 255.946 110.178 255.422C110.468 255.351 110.761 255.528 110.832 255.816C110.903 256.106 110.726 256.398 110.439 256.47C108.324 256.994 106.199 257.503 104.129 257.982C104.087 257.992 104.048 257.997 104.006 257.997L104.008 257.999ZM116.589 254.884C116.35 254.884 116.131 254.724 116.067 254.48C115.991 254.193 116.163 253.898 116.451 253.821C118.514 253.278 120.614 252.707 122.699 252.13C122.987 252.051 123.284 252.218 123.363 252.506C123.442 252.794 123.275 253.091 122.987 253.17C120.899 253.75 118.792 254.321 116.726 254.866C116.679 254.879 116.633 254.884 116.589 254.884ZM9.72523 254.825C9.59244 254.825 9.45965 254.775 9.35638 254.677C7.70393 253.123 6.31951 251.385 5.24001 249.508C5.09247 249.25 5.18099 248.921 5.43919 248.771C5.69738 248.623 6.02689 248.712 6.17689 248.97C7.20475 250.755 8.52277 252.41 10.099 253.89C10.3154 254.094 10.3277 254.436 10.1236 254.653C10.0178 254.766 9.87276 254.822 9.73014 254.822L9.72523 254.825ZM129.075 251.412C128.842 251.412 128.625 251.259 128.556 251.023C128.473 250.738 128.638 250.438 128.923 250.354C130.969 249.757 133.056 249.132 135.124 248.5C135.41 248.414 135.712 248.574 135.798 248.859C135.884 249.144 135.724 249.447 135.439 249.533C133.366 250.167 131.274 250.792 129.223 251.389C129.174 251.404 129.122 251.412 129.07 251.412H129.075ZM141.471 247.627C141.242 247.627 141.029 247.48 140.957 247.251C140.866 246.966 141.024 246.663 141.309 246.572C143.347 245.923 145.401 245.257 147.469 244.576C147.751 244.482 148.056 244.635 148.15 244.92C148.243 245.203 148.088 245.508 147.806 245.601C145.735 246.285 143.679 246.951 141.636 247.603C141.582 247.62 141.525 247.627 141.471 247.627ZM3.381 243.759C3.13265 243.759 2.91133 243.587 2.85477 243.336C2.46625 241.588 2.26953 239.724 2.26953 237.799C2.26953 237.454 2.27445 237.11 2.28921 236.761C2.3015 236.463 2.54494 236.227 2.8474 236.24C3.14494 236.249 3.37854 236.5 3.36871 236.798C3.35641 237.132 3.35149 237.467 3.35149 237.796C3.35149 239.643 3.54083 241.426 3.91214 243.1C3.97608 243.39 3.79411 243.68 3.50149 243.744C3.46215 243.754 3.4228 243.757 3.38346 243.757L3.381 243.759ZM153.778 243.562C153.555 243.562 153.343 243.422 153.267 243.196C153.171 242.913 153.321 242.606 153.604 242.51C155.63 241.817 157.669 241.108 159.719 240.383C160 240.285 160.31 240.43 160.408 240.712C160.506 240.993 160.359 241.303 160.078 241.401C158.025 242.126 155.984 242.837 153.953 243.533C153.894 243.553 153.835 243.562 153.778 243.562ZM3.68592 230.916C3.64657 230.916 3.60723 230.911 3.56788 230.904C3.27772 230.837 3.0933 230.549 3.15969 230.259C3.61214 228.248 4.24411 226.14 5.03837 223.991C5.14165 223.711 5.45394 223.568 5.73181 223.672C6.01214 223.775 6.15475 224.085 6.05148 224.365C5.27443 226.47 4.65476 228.533 4.2146 230.495C4.15805 230.746 3.93428 230.918 3.68838 230.918L3.68592 230.916ZM8.09491 218.763C8.01622 218.763 7.93507 218.746 7.85884 218.709C7.59081 218.579 7.47769 218.257 7.60802 217.989C8.51293 216.122 9.54572 214.187 10.6793 212.24C10.8293 211.982 11.1588 211.893 11.417 212.043C11.6752 212.193 11.7637 212.523 11.6137 212.781C10.4949 214.706 9.47441 216.617 8.58179 218.459C8.48835 218.65 8.29654 218.763 8.09491 218.763ZM14.5695 207.548C14.4662 207.548 14.3629 207.518 14.2719 207.459C14.0236 207.295 13.9547 206.96 14.1195 206.712C15.2727 204.968 16.5244 203.176 17.8424 201.378C18.0194 201.137 18.3563 201.086 18.5973 201.263C18.8383 201.44 18.8899 201.777 18.7129 202.018C17.4071 203.8 16.1629 205.581 15.0195 207.309C14.9162 207.467 14.7441 207.55 14.5695 207.55V207.548ZM22.212 197.087C22.094 197.087 21.976 197.048 21.8752 196.969C21.6415 196.785 21.6022 196.443 21.7891 196.209C23.0973 194.564 24.4891 192.878 25.9227 191.196C26.1169 190.969 26.4563 190.942 26.685 191.134C26.9112 191.328 26.9382 191.668 26.7464 191.896C25.3202 193.571 23.9358 195.248 22.635 196.883C22.5292 197.018 22.3719 197.087 22.212 197.087ZM30.612 187.219C30.4841 187.219 30.3538 187.173 30.2505 187.079C30.0292 186.88 30.012 186.538 30.2112 186.317C31.6276 184.751 33.1152 183.147 34.63 181.559C34.8365 181.342 35.1783 181.335 35.3923 181.539C35.6087 181.746 35.616 182.087 35.412 182.301C33.9046 183.885 32.4218 185.478 31.0128 187.04C30.9071 187.158 30.7595 187.217 30.612 187.217V187.219ZM39.5455 177.831C39.4078 177.831 39.2701 177.779 39.1644 177.674C38.9529 177.462 38.9529 177.12 39.1644 176.909C40.6595 175.409 42.2185 173.879 43.7971 172.36C44.0111 172.153 44.3553 172.16 44.5619 172.374C44.7684 172.588 44.7611 172.93 44.5471 173.139C42.9734 174.651 41.4218 176.178 39.9316 177.671C39.8259 177.777 39.6882 177.831 39.5505 177.831H39.5455ZM48.8824 168.841C48.7373 168.841 48.5922 168.782 48.4865 168.669C48.2848 168.45 48.2971 168.108 48.516 167.906C50.075 166.463 51.6881 164.992 53.3159 163.537C53.5397 163.338 53.8791 163.357 54.0782 163.579C54.2774 163.8 54.2577 164.142 54.0364 164.341C52.4135 165.792 50.8053 167.257 49.2512 168.698C49.1479 168.794 49.0151 168.843 48.8848 168.843L48.8824 168.841ZM58.5389 160.197C58.3864 160.197 58.2364 160.133 58.1307 160.011C57.9364 159.784 57.961 159.445 58.1848 159.248C59.793 157.856 61.4528 156.438 63.12 155.036C63.3487 154.844 63.688 154.874 63.8798 155.102C64.0716 155.331 64.0421 155.67 63.8134 155.862C62.1511 157.261 60.4938 158.675 58.8905 160.065C58.7872 160.153 58.6618 160.197 58.5364 160.197H58.5389Z" fill="black"/>
<path d="M315.264 358.09C314.971 358.09 314.73 357.856 314.723 357.561L314.661 354.689C314.654 354.392 314.892 354.143 315.19 354.139C315.488 354.134 315.736 354.37 315.741 354.667L315.802 357.539C315.81 357.837 315.571 358.085 315.274 358.09C315.269 358.09 315.266 358.09 315.261 358.09H315.264Z" fill="black"/>
<path d="M315.48 368.14C315.187 368.14 314.946 367.906 314.939 367.611L314.877 364.739C314.87 364.442 315.108 364.193 315.406 364.188C315.698 364.186 315.952 364.42 315.957 364.717L316.018 367.589C316.025 367.887 315.787 368.135 315.489 368.14C315.487 368.14 315.482 368.14 315.477 368.14H315.48Z" fill="black"/>
<path d="M308.974 361.73C308.676 361.73 308.435 361.491 308.433 361.193C308.433 360.896 308.671 360.653 308.969 360.65L311.799 360.628C312.104 360.643 312.342 360.866 312.342 361.164C312.342 361.462 312.106 361.705 311.806 361.707L308.976 361.73H308.971H308.974Z" fill="black"/>
<path d="M318.879 361.651C318.581 361.651 318.34 361.412 318.338 361.115C318.338 360.817 318.576 360.574 318.874 360.571L321.704 360.549H321.709C322.007 360.549 322.248 360.788 322.25 361.085C322.25 361.383 322.012 361.626 321.714 361.629L318.884 361.651H318.879Z" fill="black"/>
<path d="M193.666 52.4367C193.071 52.4367 192.476 52.3261 191.903 52.1047C190.659 51.6203 189.68 50.6711 189.144 49.4318C188.052 46.899 189.186 43.931 191.672 42.8146C192.87 42.2761 194.202 42.2417 195.424 42.7187C196.669 43.2032 197.647 44.1523 198.183 45.3917C199.275 47.9244 198.142 50.8925 195.656 52.0088C195.019 52.2941 194.342 52.4392 193.666 52.4392V52.4367ZM192.115 43.7982C190.165 44.6736 189.277 47.0097 190.138 49.0039C190.558 49.9777 191.325 50.7203 192.297 51.099C193.248 51.4679 194.283 51.4408 195.215 51.0228C197.165 50.1474 198.053 47.8113 197.192 45.8171C196.772 44.8433 196.007 44.1007 195.033 43.722C194.082 43.3532 193.047 43.3802 192.115 43.7982Z" fill="black"/>
</svg>
