<svg width="22" height="22" viewBox="0 0 22 22" fill="none" xmlns="http://www.w3.org/2000/svg">
<path d="M19.6652 0.836014H2.33561C1.94242 0.832013 1.56369 0.984157 1.28254 1.25906C1.00139 1.53397 0.840772 1.90918 0.835938 2.30237V19.702C0.841646 20.0946 1.00265 20.4689 1.2837 20.7431C1.56476 21.0173 1.94299 21.169 2.33561 21.165H19.6652C20.0584 21.1681 20.4369 21.0154 20.7179 20.7404C20.9989 20.4653 21.1596 20.0902 21.1649 19.697V2.29737C21.1579 1.90533 20.9964 1.53191 20.7156 1.25827C20.4348 0.984623 20.0573 0.832878 19.6652 0.836014ZM6.86297 18.1656H3.84529V8.45604H6.86297V18.1656ZM5.3633 7.13299C5.01718 7.13332 4.67875 7.03099 4.3908 6.83894C4.10286 6.64689 3.87835 6.37375 3.74567 6.05408C3.61299 5.7344 3.5781 5.38256 3.64542 5.04306C3.71274 4.70355 3.87925 4.39164 4.12387 4.14679C4.36849 3.90193 4.68024 3.73513 5.01968 3.66749C5.35912 3.59984 5.711 3.63439 6.0308 3.76677C6.35059 3.89914 6.62395 4.1234 6.81627 4.41116C7.0086 4.69892 7.11125 5.03726 7.11125 5.38337C7.11082 5.61341 7.06502 5.84112 6.97648 6.05344C6.88794 6.26576 6.7584 6.45854 6.59527 6.62075C6.43214 6.78295 6.23862 6.91139 6.02579 6.99871C5.81297 7.08604 5.58501 7.13054 5.35496 7.12966L5.3633 7.13299ZM18.1655 18.1656H15.1479V13.4416C15.1479 12.3169 15.1279 10.8689 13.5799 10.8689C12.0319 10.8689 11.7686 12.0953 11.7686 13.3683V18.1656H8.7559V8.45604H11.6486V9.78909H11.6886C12.0918 9.02592 13.075 8.22109 14.543 8.22109C17.599 8.21443 18.1655 10.2257 18.1655 12.8334V18.1656Z" fill="white"/>
</svg>
