<svg width="309" height="404" viewBox="0 0 309 404" fill="none" xmlns="http://www.w3.org/2000/svg">
<path d="M45.7574 231.868H61.4639V403.951H45.7574V231.868Z" fill="#7F1313"/>
<path d="M45.7575 231.868H50.2949V403.951H45.7575V231.868Z" fill="#D12A2A"/>
<path d="M0.001297 164.084V226.476L94.3794 255.785L96.237 256.363L96.7488 256.527L156.273 241.906V172.02C156.273 172.02 154.505 144.387 134.644 141.814C134.4 141.8 134.046 141.779 133.592 141.756C131.182 141.618 125.94 141.313 119.005 140.911C102.508 139.953 76.4421 138.447 56.1531 137.328C53.0103 137.153 50.0081 136.986 47.2018 136.837C36.3613 136.256 28.4366 135.862 26.7085 135.862C-0.438629 139.718 0.001297 164.084 0.001297 164.084Z" fill="#FF5C51"/>
<path d="M0.00183105 216.104L96.2354 240.77V255.293L0.00183105 225.243V216.104Z" fill="#AF2323"/>
<path d="M96.2353 177.07V256.365L96.7481 256.524L103.239 254.929L115.583 251.898L156.271 241.907V172.018C156.271 172.018 154.508 144.388 134.644 141.814C134.399 141.801 134.045 141.781 133.592 141.755H126.985C110.002 141.755 96.2353 155.733 96.2353 177.07Z" fill="#7F1313"/>
<path d="M93.5567 139.441C85.4111 139.732 77.9505 143.206 72.4549 149.291C66.5393 155.845 63.2803 165.115 63.2803 175.395V245.469H64.6037V175.395C64.6037 155.315 77.2556 140.741 94.6879 140.741L101.537 140.755L101.652 140.761C102.016 140.781 102.328 140.503 102.351 140.139C102.351 140.126 102.351 140.116 102.351 140.103C102.351 140.05 102.344 139.997 102.331 139.947L93.5567 139.441Z" fill="#7F1313"/>
<path d="M17.1068 168.814V229.833H18.4301V168.814C18.4301 151.038 31.0851 138.134 48.5177 138.134L55.3465 138.144L55.4854 138.151C55.8493 138.171 56.1605 137.889 56.1768 137.522V137.486C56.1768 137.429 56.1702 137.377 56.1537 137.327C53.0106 137.151 50.0065 136.986 47.2009 136.837C39.1379 137.138 31.7667 140.212 26.3109 145.568C20.3756 151.401 17.1068 159.659 17.1068 168.814Z" fill="#7F1313"/>
<path d="M16.2532 229.311H17.5766V168.292C17.5766 150.513 30.2296 137.609 47.6629 137.609L54.4902 137.621L54.6301 137.628C54.995 137.646 55.3052 137.365 55.3234 137C55.3416 136.635 55.0603 136.324 54.6952 136.306L54.3044 136.287L47.6629 136.286C39.0913 136.286 31.2051 139.397 25.4571 145.046C19.5218 150.879 16.2532 159.135 16.2532 168.291V229.311Z" fill="#DADADA"/>
<path d="M0.00183105 217.333V226.472L16.2532 231.547L17.1036 231.811L17.5833 231.96L18.4335 232.225L62.42 245.962L63.2705 246.23L63.7502 246.379L64.6004 246.644L96.2363 256.523V241.998L64.6004 233.889L63.7502 233.671L63.2705 233.548L62.42 233.33L18.4335 222.058L17.5833 221.839L17.1036 221.717L16.2532 221.499L0.00183105 217.333Z" fill="#D12A2A"/>
<path d="M62.4248 244.947H63.7482V174.87C63.7482 154.791 76.4012 140.217 93.8345 140.217L100.683 140.232L100.798 140.238C101.162 140.258 101.474 139.98 101.495 139.615C101.516 139.25 101.236 138.937 100.871 138.917L100.443 138.894H93.8345C85.2478 138.894 77.3517 142.4 71.6018 148.768C65.6839 155.321 62.4248 164.59 62.4248 174.87V244.947Z" fill="#DADADA"/>
<path d="M73.8059 201.044C73.7456 200.962 73.6866 200.876 73.6286 200.79C73.6174 200.774 73.606 200.758 73.5948 200.741C73.5418 200.662 73.4906 200.58 73.4396 200.498C73.424 200.473 73.4082 200.448 73.3929 200.423C73.346 200.345 73.3004 200.266 73.2554 200.186C73.2372 200.154 73.219 200.122 73.201 200.09C73.1592 200.014 73.1187 199.937 73.0784 199.859C73.0584 199.82 73.0385 199.782 73.0191 199.743C72.9817 199.668 72.9452 199.592 72.9093 199.515C72.8886 199.471 72.868 199.428 72.8481 199.383C72.8143 199.309 72.7815 199.233 72.7492 199.157C72.7283 199.109 72.7079 199.06 72.6877 199.01C72.6576 198.937 72.6282 198.862 72.5993 198.787C72.5787 198.734 72.5585 198.679 72.5386 198.625C72.5119 198.552 72.4854 198.478 72.4599 198.404C72.44 198.346 72.4206 198.287 72.4014 198.228C72.3776 198.155 72.3542 198.082 72.3317 198.008C72.3127 197.946 72.2945 197.883 72.2765 197.82C72.2556 197.748 72.2347 197.675 72.215 197.602C72.1973 197.535 72.1806 197.469 72.1638 197.402C72.1456 197.33 72.1276 197.258 72.1106 197.185C72.0941 197.114 72.0788 197.042 72.0635 196.971C72.0482 196.9 72.0329 196.83 72.0188 196.758C72.0039 196.684 71.9906 196.608 71.977 196.533C71.9643 196.462 71.9512 196.392 71.9396 196.321C71.927 196.243 71.9155 196.164 71.9041 196.085C71.8939 196.015 71.8832 195.946 71.8742 195.876C71.8633 195.793 71.8543 195.708 71.8449 195.624C71.8373 195.557 71.8291 195.49 71.8225 195.423C71.8137 195.333 71.8072 195.242 71.8002 195.151C71.7953 195.088 71.7892 195.026 71.7853 194.962C71.7785 194.858 71.7742 194.753 71.7698 194.648C71.7676 194.597 71.7642 194.546 71.7625 194.495C71.7574 194.338 71.7547 194.18 71.7547 194.021C71.7547 193.861 71.7574 193.704 71.7625 193.546C71.7642 193.495 71.7676 193.444 71.7698 193.393C71.7742 193.288 71.7785 193.183 71.7853 193.079C71.7895 193.016 71.7953 192.953 71.8002 192.89C71.8072 192.8 71.814 192.709 71.8225 192.619C71.8291 192.551 71.8373 192.485 71.8449 192.418C71.8543 192.333 71.8633 192.249 71.8742 192.165C71.8835 192.095 71.8939 192.026 71.9041 191.957C71.9155 191.878 71.927 191.799 71.9396 191.72C71.9512 191.649 71.9641 191.58 71.977 191.509C71.9906 191.433 72.0039 191.358 72.0188 191.283C72.0329 191.212 72.0482 191.141 72.0632 191.071C72.0788 190.999 72.0941 190.927 72.1106 190.856C72.1274 190.784 72.1456 190.712 72.1636 190.64C72.1803 190.573 72.1971 190.506 72.215 190.44C72.2347 190.366 72.2554 190.294 72.2763 190.221C72.2945 190.158 72.3127 190.095 72.3319 190.033C72.3542 189.959 72.3776 189.886 72.4014 189.814C72.4206 189.755 72.44 189.696 72.4601 189.637C72.4856 189.563 72.5119 189.49 72.5386 189.417C72.5585 189.362 72.5789 189.308 72.5996 189.254C72.6282 189.179 72.6576 189.105 72.6875 189.031C72.7077 188.982 72.7283 188.933 72.7492 188.883C72.7813 188.808 72.8141 188.733 72.8476 188.659C72.868 188.614 72.8886 188.57 72.9095 188.525C72.9452 188.449 72.9817 188.374 73.0188 188.299C73.0385 188.26 73.0587 188.221 73.0786 188.182C73.1187 188.104 73.1593 188.027 73.2008 187.952C73.2188 187.919 73.2375 187.887 73.2557 187.854C73.3006 187.775 73.346 187.696 73.3927 187.619C73.4085 187.593 73.4245 187.568 73.4403 187.543C73.4911 187.46 73.5423 187.38 73.5948 187.3C73.6062 187.283 73.6179 187.267 73.6293 187.25C73.6871 187.164 73.7456 187.079 73.8056 186.997C73.8107 186.99 73.8161 186.983 73.8214 186.976C74.7999 185.645 76.0574 184.789 77.4423 184.639C77.5868 184.624 77.7323 184.613 77.8793 184.613C78.0187 184.613 78.1567 184.623 78.2937 184.637L81.3311 184.627C84.5584 184.894 87.1221 188.997 87.1221 194.02C87.1221 199.044 84.5584 203.147 81.3311 203.413L78.2937 203.404C78.1564 203.418 78.0187 203.428 77.8793 203.428C76.3219 203.428 74.9012 202.534 73.8204 201.063C73.8156 201.057 73.8107 201.051 73.8059 201.044Z" fill="#D12A2A"/>
<path d="M115.583 204.044V251.898L156.271 241.906V173.887C153.809 168.556 150.235 164.182 145.053 163.17C144.864 163.156 144.593 163.13 144.245 163.104H139.176C126.144 163.104 115.583 179.307 115.583 204.044Z" fill="#AF2323"/>
<path d="M96.2352 224.848V255.964L156.271 241.086L156.443 241.043L156.271 240.997L96.2352 224.848Z" fill="#575756"/>
<path d="M61.3362 100.472C61.3362 99.1545 62.2588 98.0169 63.548 97.7454L78.8818 93.7822C78.8818 93.7822 81.96 93.7511 81.96 96.0535V185.488H78.8818V111.552C78.8818 110.097 77.7017 108.917 76.2462 108.917L62.8012 109.537C61.208 109.62 59.8708 108.35 59.8708 106.755L61.3362 100.472Z" fill="#7F1313"/>
<path d="M103.865 150.167C108.006 145.578 113.222 142.418 119.005 140.911C125.94 141.313 131.182 141.618 133.592 141.756C134.046 141.779 134.4 141.799 134.644 141.814C154.505 144.387 156.273 172.02 156.273 172.02V241.905L96.7488 256.527L96.237 256.363L94.3794 255.785V177.07C94.3792 166.494 97.7494 156.942 103.865 150.167ZM97.4302 254.241L155.077 240.082V172.049C155.037 171.526 154.49 164.973 151.793 158.313C148.093 149.169 142.279 144.019 134.521 143.002L133.549 142.947H126.984C109.858 142.947 97.4302 157.298 97.4302 177.07V254.241Z" fill="#AF2323"/>
<path d="M104.506 150.746C110.32 144.308 118.303 140.762 126.985 140.762H133.622L134.736 140.826L134.772 140.83C143.27 141.931 149.86 147.699 153.827 157.509C156.778 164.803 157.244 171.666 157.263 171.954L157.265 171.986V241.798L96.7186 256.666L95.2434 256.21V177.07C95.2434 166.708 98.5329 157.36 104.506 150.746ZM96.5667 255.234L96.7589 255.294L155.941 240.761V172.018C155.937 171.97 155.468 165.088 152.594 157.99C148.762 148.525 142.708 143.193 134.601 142.143L133.573 142.085L126.985 142.086C109.36 142.086 96.5667 156.799 96.5667 177.07V255.234Z" fill="#DADADA"/>
<path d="M59.7796 99.8608C59.7796 98.5435 60.7022 97.4059 61.9913 97.1343L77.3251 93.9034C77.3251 93.9034 80.4033 93.1399 80.4033 95.4425V184.877H77.3251V110.941C77.3251 109.486 76.1451 108.306 74.6895 108.306L62.7098 108.926C61.1166 109.009 59.7794 107.739 59.7794 106.144L59.7796 99.8608Z" fill="#D12A2A"/>
<path d="M95.2438 256.212L116.716 277.181L118.172 278.607L156.765 316.41C194.582 341.829 216.855 327.828 216.855 327.828C220.613 325.323 223.313 322.488 224.782 319.034C228.477 310.938 226.082 304.771 223.187 297.74C220.236 291.54 215.875 285.591 209.993 281.247L191.826 267.292L189.682 265.644L156.445 240.897L95.2438 256.212Z" fill="#AF2323"/>
<path d="M118.172 278.607L156.966 316.265C194.782 341.684 216.855 327.828 216.855 327.828C220.613 325.323 223.313 322.488 224.782 319.034C228.477 310.938 226.082 304.771 223.187 297.74C220.236 291.54 215.875 285.591 209.993 281.247L191.826 267.292C190.754 266.978 189.685 266.66 188.646 266.306C159.955 256.539 131.135 262.183 118.172 278.607Z" fill="#D12A2A"/>
<path d="M95.3252 246.457V256.139L102.111 254.463L105.231 253.692L115.583 251.136L156.271 241.086L156.446 241.043L209.352 281.104C219.723 288.756 226.757 301.002 226.179 311.802C226.055 314.054 225.604 316.242 224.781 318.315C223.392 321.815 220.948 324.978 217.259 327.543C220.258 325.489 226.751 320.408 229.137 311.943C231.323 304.182 230.061 293.578 219.499 279.85C217.595 277.38 215.088 275.376 212.555 273.507L156.446 233.619L156.271 233.656L115.583 242.202L95.3252 246.457Z" fill="#7F1313"/>
<path d="M69.6605 192.768C69.6605 188.104 72.17 184.287 75.3488 183.964L79.2373 183.953C82.4646 184.203 85.0283 188.053 85.0283 192.768C85.0283 197.483 82.4646 201.333 79.2373 201.583L75.3488 201.572C72.17 201.249 69.6605 197.432 69.6605 192.768Z" fill="#575756"/>
<path d="M75.7861 201.597C72.4034 201.597 69.6611 197.644 69.6611 192.768C69.6611 187.892 72.4034 183.939 75.7861 183.939C79.1689 183.939 81.9111 187.892 81.9111 192.768C81.9111 197.644 79.1689 201.597 75.7861 201.597Z" fill="#DADADA"/>
<path d="M75.1671 197.729C73.1253 197.729 71.47 195.345 71.47 192.404C71.47 189.464 73.1253 187.08 75.1671 187.08C77.209 187.08 78.8643 189.464 78.8643 192.404C78.8643 195.345 77.209 197.729 75.1671 197.729Z" fill="#878787"/>
<path d="M74.7394 193.922C73.8479 193.922 73.1252 193.014 73.1252 191.894C73.1252 190.774 73.8479 189.866 74.7394 189.866C75.6308 189.866 76.3535 190.774 76.3535 191.894C76.3535 193.014 75.6308 193.922 74.7394 193.922Z" fill="#D12A2A"/>
<path d="M63.2697 233.549V246.231L63.7492 246.38L64.5996 246.644V233.89L63.7492 233.672L63.2697 233.549Z" fill="#7F1313"/>
<path d="M62.4188 245.963V233.331L63.749 233.672V246.38L62.4188 245.963Z" fill="#AF2323"/>
<path d="M17.1037 221.717V231.811L17.5834 231.96L18.4336 232.225V222.058L17.5834 221.839L17.1037 221.717Z" fill="#7F1313"/>
<path d="M16.2528 221.499V231.547L17.1033 231.811L17.583 231.96V221.839L17.1033 221.717L16.2528 221.499Z" fill="#AF2323"/>
<path d="M159.692 308.541C197.508 333.957 219.955 320.228 219.955 320.228C229.403 314.199 228.614 305.463 230.06 303.417C230.039 308.44 230.039 319.303 216.75 327.826C216.75 327.826 192.843 342.972 156.488 316.139L95.2429 256.21L95.2351 246.457L159.692 308.541Z" fill="#FF5C51"/>
<path d="M115.583 242.202L156.271 233.656L156.446 233.618L212.555 273.507C215.088 275.376 217.596 277.38 219.499 279.85C230.061 293.577 231.323 304.182 229.138 311.943C228.111 314.289 226.653 316.426 224.781 318.315C223.639 319.468 222.343 320.532 220.897 321.495L220.839 321.529C220.574 321.691 214.205 325.454 202.876 325.454C189.172 325.454 174.395 320.195 158.953 309.821L158.815 309.729L102.112 254.462L95.3255 247.849V246.457L115.583 242.202ZM105.231 253.692L160.541 307.61C175.499 317.648 189.744 322.737 202.876 322.737C213.21 322.737 219.128 319.379 219.413 319.215C222.429 317.205 224.701 314.703 226.178 311.802C227.464 309.28 228.148 306.451 228.2 303.386C228.364 293.422 221.687 281.883 211.588 274.674L156.27 234.959L156.181 234.895L115.583 243.746L98.7844 247.407L105.231 253.692Z" fill="#AF2323"/>
<path d="M156.593 232.913L212.671 273.168C223.245 280.714 230.232 292.87 230.059 303.417C229.941 310.653 226.61 316.654 220.426 320.77L220.393 320.792C220.331 320.83 214.045 324.592 202.875 324.592C189.347 324.592 174.732 319.382 159.435 309.106L159.362 309.057L95.1967 246.519C95.1054 246.43 95.1499 246.275 95.2745 246.248L156.593 232.913ZM159.993 308.283C175.122 318.446 189.55 323.599 202.876 323.599C213.756 323.599 219.812 319.982 219.871 319.946C225.767 316.021 228.949 310.297 229.062 303.4C229.23 293.164 222.409 281.339 212.09 273.975L156.372 233.972L97.0337 246.904L159.993 308.283Z" fill="#DADADA"/>
<path d="M137.017 186.063L140.247 188.957C140.287 188.992 140.349 188.989 140.384 188.949C140.42 188.909 140.417 188.848 140.377 188.812C140.376 188.812 140.376 188.811 140.376 188.811L140.373 188.809L137.085 185.987L137.084 185.986C137.063 185.968 137.031 185.971 137.012 185.992C136.994 186.013 136.996 186.044 137.017 186.063Z" fill="#1D1D1B"/>
<path d="M142.377 190.785L145.727 193.542C145.794 193.597 145.894 193.588 145.949 193.52C146.005 193.453 145.995 193.353 145.928 193.297C145.927 193.297 145.927 193.297 145.926 193.296L145.923 193.293L142.534 190.595L142.532 190.593C142.479 190.551 142.401 190.56 142.359 190.613C142.317 190.666 142.325 190.742 142.377 190.785Z" fill="#1D1D1B"/>
<path d="M147.929 195.283L151.385 197.906C151.48 197.978 151.615 197.959 151.688 197.865C151.76 197.77 151.741 197.634 151.646 197.562C151.645 197.562 151.645 197.561 151.644 197.561L151.639 197.557L148.149 194.995L148.145 194.993C148.065 194.934 147.952 194.951 147.893 195.032C147.834 195.112 147.85 195.223 147.929 195.283Z" fill="#1D1D1B"/>
<path d="M153.656 199.56L157.221 202.035C157.34 202.118 157.503 202.088 157.586 201.969C157.669 201.85 157.639 201.687 157.52 201.604C157.52 201.604 157.519 201.603 157.519 201.603L157.512 201.599L153.931 199.17L153.926 199.166C153.817 199.092 153.668 199.121 153.594 199.23C153.521 199.338 153.549 199.485 153.656 199.56Z" fill="#1D1D1B"/>
<path d="M159.559 203.59L163.223 205.92C163.362 206.008 163.547 205.967 163.636 205.828C163.725 205.688 163.683 205.503 163.544 205.414L163.541 205.413L163.535 205.409L159.86 203.125L159.854 203.121C159.724 203.041 159.553 203.08 159.472 203.21C159.393 203.339 159.432 203.509 159.559 203.59Z" fill="#1D1D1B"/>
<path d="M165.625 207.379L169.382 209.556C169.543 209.649 169.748 209.594 169.841 209.433C169.934 209.272 169.88 209.067 169.719 208.973L169.716 208.972L169.709 208.968L165.943 206.838L165.936 206.834C165.785 206.749 165.594 206.802 165.509 206.953C165.424 207.102 165.476 207.292 165.625 207.379Z" fill="#1D1D1B"/>
<path d="M171.843 210.913L175.691 212.929C175.873 213.025 176.099 212.955 176.195 212.772C176.29 212.589 176.22 212.364 176.037 212.268L176.034 212.266L176.025 212.262L172.174 210.294L172.166 210.29C171.993 210.202 171.782 210.271 171.694 210.443C171.606 210.614 171.673 210.824 171.843 210.913Z" fill="#1D1D1B"/>
<path d="M178.211 214.176L182.15 216.009C182.347 216.1 182.581 216.015 182.672 215.818C182.764 215.621 182.679 215.387 182.482 215.296L182.48 215.295L182.47 215.291L178.543 213.483L178.533 213.479C178.341 213.39 178.113 213.475 178.024 213.667C177.935 213.86 178.018 214.088 178.211 214.176Z" fill="#1D1D1B"/>
<path d="M184.727 217.137L188.747 218.785C188.956 218.87 189.194 218.77 189.28 218.562C189.365 218.353 189.266 218.115 189.057 218.03L189.055 218.029L189.045 218.024L185.038 216.402L185.028 216.398C184.823 216.315 184.591 216.413 184.508 216.618C184.425 216.822 184.522 217.054 184.727 217.137Z" fill="#1D1D1B"/>
<path d="M191.375 219.788L195.474 221.237C195.694 221.315 195.936 221.199 196.014 220.979C196.092 220.759 195.976 220.517 195.756 220.439L195.754 220.439L195.742 220.434L191.662 219.011L191.65 219.007C191.434 218.932 191.198 219.046 191.123 219.262C191.047 219.478 191.159 219.713 191.375 219.788Z" fill="#1D1D1B"/>
<path d="M198.15 222.106L202.32 223.337C202.553 223.405 202.796 223.273 202.865 223.04C202.933 222.808 202.801 222.565 202.568 222.496L202.567 222.496L202.553 222.492L198.405 221.286L198.391 221.282C198.163 221.216 197.925 221.347 197.859 221.575C197.793 221.802 197.922 222.04 198.15 222.106Z" fill="#1D1D1B"/>
<path d="M205.041 224.058L209.277 225.049C209.521 225.106 209.765 224.954 209.822 224.71C209.879 224.467 209.728 224.223 209.484 224.166L209.482 224.165L209.466 224.162L205.257 223.196L205.242 223.193C205.003 223.138 204.764 223.287 204.709 223.526C204.655 223.765 204.802 224.003 205.041 224.058Z" fill="#1D1D1B"/>
<path d="M212.038 225.605L216.333 226.317C216.581 226.358 216.816 226.19 216.857 225.942C216.898 225.693 216.73 225.458 216.482 225.417L216.464 225.414L212.206 224.703L212.189 224.7C211.939 224.659 211.702 224.827 211.66 225.077C211.619 225.327 211.787 225.564 212.037 225.605H212.038Z" fill="#1D1D1B"/>
<path d="M219.126 226.684L223.461 227.095C223.709 227.118 223.929 226.936 223.953 226.688C223.977 226.439 223.794 226.219 223.546 226.195L223.526 226.193L219.232 225.781L219.212 225.779C218.962 225.755 218.74 225.938 218.716 226.188C218.692 226.438 218.875 226.66 219.125 226.684L219.126 226.684Z" fill="#1D1D1B"/>
<path d="M226.275 227.249C227.001 227.279 227.725 227.288 228.449 227.303L230.622 227.345C230.861 227.35 231.058 227.16 231.062 226.922C231.067 226.684 230.879 226.488 230.642 226.482L230.632 226.482L228.471 226.426C227.751 226.407 227.029 226.394 226.312 226.36C226.067 226.349 225.859 226.538 225.847 226.784C225.835 227.029 226.025 227.237 226.27 227.249H226.273L226.275 227.249Z" fill="#1D1D1B"/>
<path d="M233.436 227.343L237.781 227.224C238.004 227.218 238.18 227.032 238.174 226.809C238.168 226.588 237.984 226.413 237.763 226.417L237.75 226.417L233.43 226.495L233.416 226.496C233.183 226.5 232.996 226.693 233.001 226.927C233.005 227.161 233.198 227.347 233.432 227.343H233.436Z" fill="#1D1D1B"/>
<path d="M240.59 227.069L244.922 226.7C245.124 226.683 245.273 226.506 245.256 226.305C245.239 226.105 245.064 225.957 244.865 225.972L244.85 225.973L240.543 226.293L240.528 226.294C240.314 226.31 240.154 226.496 240.169 226.71C240.185 226.924 240.372 227.085 240.586 227.069L240.59 227.069Z" fill="#1D1D1B"/>
<path d="M247.718 226.369L252.016 225.701C252.195 225.674 252.317 225.506 252.289 225.328C252.262 225.151 252.096 225.029 251.919 225.054L251.904 225.057L247.63 225.674L247.614 225.676C247.422 225.704 247.29 225.882 247.317 226.073C247.345 226.265 247.523 226.397 247.714 226.37L247.718 226.369Z" fill="#1D1D1B"/>
<path d="M254.78 225.157C256.197 224.852 257.607 224.508 259.006 224.121C259.159 224.079 259.249 223.92 259.206 223.767C259.164 223.615 259.007 223.525 258.855 223.566C257.464 223.934 256.062 224.259 254.652 224.546C254.483 224.58 254.374 224.745 254.408 224.914C254.442 225.083 254.607 225.192 254.776 225.158C254.777 225.157 254.779 225.157 254.78 225.157Z" fill="#1D1D1B"/>
<path d="M261.704 223.313C263.084 222.866 264.45 222.372 265.794 221.824C265.921 221.772 265.982 221.627 265.93 221.5C265.878 221.374 265.735 221.313 265.609 221.363C264.271 221.891 262.913 222.366 261.539 222.794C261.396 222.839 261.315 222.991 261.36 223.135C261.405 223.278 261.557 223.358 261.701 223.314C261.701 223.314 261.703 223.313 261.704 223.313Z" fill="#1D1D1B"/>
<path d="M268.373 220.689C269.685 220.068 270.97 219.388 272.217 218.644C272.316 218.585 272.348 218.457 272.289 218.358C272.23 218.26 272.104 218.227 272.005 218.284C270.762 219.008 269.482 219.667 268.176 220.267C268.06 220.321 268.008 220.459 268.062 220.576C268.116 220.692 268.254 220.744 268.371 220.69C268.371 220.69 268.373 220.689 268.373 220.689Z" fill="#1D1D1B"/>
<path d="M274.588 217.119C275.781 216.291 276.928 215.394 278.012 214.426C278.087 214.359 278.094 214.244 278.027 214.169C277.96 214.094 277.845 214.087 277.77 214.153C276.691 215.103 275.551 215.982 274.364 216.794C274.274 216.855 274.251 216.978 274.313 217.068C274.374 217.158 274.497 217.181 274.587 217.119L274.588 217.119Z" fill="#1D1D1B"/>
<path d="M280.033 212.46C281.027 211.4 281.95 210.274 282.784 209.083C282.836 209.008 282.818 208.906 282.743 208.855C282.669 208.803 282.567 208.82 282.515 208.895C281.689 210.07 280.773 211.183 279.781 212.222C279.715 212.291 279.718 212.401 279.787 212.467C279.856 212.533 279.965 212.53 280.031 212.461L280.033 212.46Z" fill="#1D1D1B"/>
<path d="M284.283 206.695C284.993 205.427 285.604 204.102 286.107 202.739C286.137 202.658 286.096 202.568 286.015 202.539C285.935 202.509 285.845 202.55 285.815 202.63C285.315 203.978 284.708 205.285 284.002 206.537C283.959 206.614 283.986 206.713 284.064 206.756C284.141 206.799 284.239 206.772 284.283 206.695H284.283Z" fill="#1D1D1B"/>
<path d="M286.95 200.048C287.318 198.643 287.577 197.209 287.732 195.765C287.742 195.677 287.678 195.598 287.59 195.588C287.502 195.579 287.423 195.643 287.413 195.731V195.731C287.265 197.161 287.012 198.58 286.653 199.971C286.632 200.053 286.681 200.137 286.763 200.158C286.846 200.179 286.929 200.131 286.95 200.048Z" fill="#1D1D1B"/>
<path d="M287.904 192.952C287.927 191.499 287.851 190.046 287.684 188.604C287.673 188.509 287.587 188.441 287.493 188.452C287.398 188.463 287.33 188.549 287.341 188.643V188.644C287.511 190.071 287.591 191.51 287.573 192.947C287.572 193.038 287.645 193.113 287.737 193.114C287.828 193.116 287.903 193.043 287.904 192.952Z" fill="#1D1D1B"/>
<path d="M287.249 185.82C286.969 184.395 286.605 182.988 286.163 181.605C286.133 181.508 286.029 181.454 285.932 181.485C285.835 181.516 285.782 181.62 285.812 181.717L285.813 181.717C286.254 183.086 286.62 184.479 286.902 185.889C286.921 185.985 287.015 186.047 287.111 186.028C287.206 186.008 287.269 185.916 287.249 185.82Z" fill="#1D1D1B"/>
<path d="M285.213 178.952C284.674 177.605 284.073 176.282 283.401 174.994C283.348 174.894 283.225 174.855 283.125 174.908C283.024 174.96 282.985 175.084 283.038 175.184L283.039 175.185C283.713 176.455 284.328 177.757 284.863 179.093C284.901 179.189 285.011 179.236 285.108 179.198C285.205 179.159 285.252 179.049 285.213 178.952Z" fill="#1D1D1B"/>
<path d="M282.016 172.54C281.261 171.299 280.443 170.096 279.564 168.939C279.485 168.834 279.337 168.814 279.232 168.893C279.128 168.972 279.108 169.121 279.187 169.225L279.188 169.227C280.067 170.364 280.887 171.546 281.645 172.767C281.709 172.869 281.843 172.901 281.945 172.837C282.047 172.774 282.078 172.641 282.016 172.54Z" fill="#1D1D1B"/>
<path d="M277.783 166.75C276.828 165.654 275.814 164.609 274.743 163.623C274.634 163.522 274.464 163.529 274.364 163.639C274.263 163.748 274.27 163.918 274.38 164.018L274.381 164.02C275.445 164.982 276.456 166.006 277.409 167.08C277.5 167.183 277.658 167.192 277.761 167.101C277.863 167.01 277.873 166.853 277.783 166.75Z" fill="#1D1D1B"/>
<path d="M272.595 161.788C271.453 160.886 270.254 160.051 269.004 159.3C268.86 159.213 268.673 159.26 268.587 159.404C268.5 159.547 268.547 159.734 268.691 159.821L268.693 159.822C269.928 160.547 271.114 161.355 272.248 162.232C272.371 162.327 272.548 162.305 272.643 162.182C272.738 162.06 272.716 161.884 272.595 161.788Z" fill="#1D1D1B"/>
<path d="M266.551 157.913L262.694 155.907C262.527 155.82 262.321 155.885 262.234 156.052C262.147 156.219 262.212 156.425 262.379 156.511L262.382 156.513L262.395 156.52L266.249 158.473L266.26 158.479C266.417 158.559 266.609 158.496 266.688 158.339C266.767 158.184 266.706 157.993 266.551 157.913Z" fill="#1D1D1B"/>
<path d="M260.151 154.7L256.142 153C255.95 152.918 255.729 153.008 255.647 153.2C255.566 153.392 255.656 153.613 255.848 153.695L255.851 153.696L255.871 153.704L259.86 155.348L259.877 155.355C260.058 155.43 260.266 155.343 260.34 155.162C260.415 154.982 260.329 154.776 260.151 154.7Z" fill="#1D1D1B"/>
<path d="M253.495 152.027C252.12 151.555 250.728 151.128 249.319 150.759C249.104 150.703 248.884 150.831 248.828 151.047C248.771 151.262 248.9 151.482 249.115 151.539L249.118 151.54C250.507 151.893 251.883 152.305 253.245 152.762C253.448 152.831 253.668 152.721 253.737 152.518C253.805 152.316 253.696 152.097 253.495 152.027Z" fill="#1D1D1B"/>
<path d="M246.563 150.123C245.132 149.839 243.684 149.625 242.222 149.513C241.987 149.495 241.782 149.671 241.764 149.906C241.746 150.141 241.922 150.346 242.157 150.364L242.16 150.365C243.582 150.464 244.999 150.664 246.405 150.933C246.629 150.976 246.845 150.829 246.888 150.605C246.931 150.383 246.785 150.167 246.563 150.123Z" fill="#1D1D1B"/>
<path d="M239.373 149.44C237.902 149.488 236.421 149.667 234.983 150.096C234.744 150.167 234.609 150.419 234.68 150.658C234.751 150.896 235.003 151.032 235.242 150.961L235.245 150.96L235.247 150.959C236.578 150.551 237.989 150.368 239.403 150.312H239.405C239.646 150.303 239.833 150.1 239.824 149.859C239.814 149.62 239.613 149.432 239.373 149.44Z" fill="#1D1D1B"/>
<path d="M232.322 151.333C231.69 151.773 231.111 152.323 230.682 152.995C230.25 153.664 229.986 154.453 229.935 155.251L229.934 155.253C229.918 155.511 230.114 155.734 230.372 155.75C230.63 155.767 230.853 155.571 230.869 155.313V155.312C230.909 154.667 231.115 154.042 231.465 153.494C231.812 152.945 232.296 152.475 232.846 152.089L232.848 152.088C233.056 151.942 233.106 151.655 232.96 151.447C232.815 151.238 232.53 151.187 232.322 151.333Z" fill="#1D1D1B"/>
<path d="M230.547 158.198C231.206 159.591 232.205 160.749 233.297 161.753C233.493 161.933 233.798 161.921 233.978 161.724C234.158 161.528 234.146 161.223 233.95 161.043L233.948 161.041L233.946 161.04C232.912 160.099 231.989 159.022 231.405 157.796L231.403 157.792C231.29 157.555 231.008 157.455 230.771 157.568C230.535 157.68 230.434 157.962 230.547 158.198Z" fill="#1D1D1B"/>
<path d="M235.559 163.523C236.78 164.351 238.069 165.064 239.391 165.696C239.638 165.814 239.934 165.709 240.052 165.462C240.17 165.215 240.066 164.919 239.818 164.801L239.816 164.799C238.529 164.19 237.279 163.504 236.105 162.715C235.881 162.564 235.578 162.623 235.428 162.846C235.277 163.07 235.335 163.372 235.559 163.523Z" fill="#1D1D1B"/>
<path d="M242.023 166.794C243.407 167.291 244.827 167.682 246.265 167.974C246.541 168.03 246.811 167.852 246.867 167.576C246.923 167.3 246.744 167.031 246.469 166.975L246.467 166.974C245.072 166.696 243.698 166.324 242.36 165.849C242.099 165.757 241.813 165.893 241.72 166.154C241.628 166.415 241.762 166.701 242.023 166.794Z" fill="#1D1D1B"/>
<path d="M249.077 168.421C250.533 168.592 251.998 168.67 253.462 168.669C253.751 168.669 253.986 168.434 253.985 168.145C253.985 167.856 253.75 167.622 253.461 167.622H253.459C252.034 167.629 250.608 167.557 249.194 167.398C248.911 167.366 248.656 167.569 248.624 167.852C248.592 168.135 248.794 168.39 249.077 168.421Z" fill="#1D1D1B"/>
<path d="M256.3 168.569C257.759 168.467 259.212 168.292 260.652 168.052C260.945 168.003 261.143 167.726 261.094 167.433C261.045 167.14 260.768 166.943 260.475 166.992L260.473 166.992C259.066 167.232 257.647 167.408 256.224 167.513C255.933 167.534 255.714 167.788 255.735 168.079C255.757 168.371 256.009 168.59 256.3 168.569Z" fill="#1D1D1B"/>
<path d="M263.434 167.505C264.857 167.181 266.266 166.796 267.657 166.358C267.943 166.267 268.102 165.963 268.012 165.676C267.922 165.39 267.617 165.232 267.331 165.322C265.967 165.753 264.586 166.13 263.193 166.448C262.901 166.514 262.718 166.805 262.785 167.097C262.851 167.389 263.142 167.571 263.434 167.505Z" fill="#1D1D1B"/>
<path d="M270.171 165.498C271.538 164.991 272.886 164.433 274.212 163.827C274.485 163.702 274.606 163.379 274.481 163.105C274.356 162.832 274.033 162.711 273.759 162.836C272.457 163.432 271.134 163.98 269.793 164.479C269.511 164.583 269.368 164.896 269.472 165.178C269.577 165.459 269.89 165.603 270.171 165.498Z" fill="#1D1D1B"/>
<path d="M276.921 162.533C278.218 161.868 279.491 161.158 280.739 160.405C280.997 160.249 281.08 159.913 280.924 159.655C280.768 159.397 280.433 159.314 280.175 159.47L280.174 159.47C278.948 160.211 277.697 160.909 276.423 161.564C276.156 161.701 276.05 162.03 276.188 162.298C276.325 162.565 276.654 162.671 276.921 162.533Z" fill="#1D1D1B"/>
<path d="M283.124 158.888C284.336 158.079 285.52 157.229 286.674 156.339C286.908 156.159 286.952 155.822 286.771 155.588C286.591 155.353 286.256 155.309 286.021 155.49C284.884 156.36 283.717 157.192 282.523 157.984C282.273 158.15 282.205 158.486 282.371 158.736C282.537 158.986 282.873 159.054 283.123 158.889L283.124 158.888Z" fill="#1D1D1B"/>
<path d="M288.875 154.565C289.988 153.626 291.069 152.648 292.115 151.634C292.323 151.432 292.328 151.1 292.126 150.892C291.925 150.684 291.594 150.678 291.386 150.88C290.355 151.874 289.289 152.832 288.191 153.752C287.966 153.94 287.936 154.276 288.125 154.5C288.313 154.725 288.649 154.755 288.873 154.566L288.875 154.565Z" fill="#1D1D1B"/>
<path d="M294.099 149.618C295.097 148.556 296.057 147.459 296.974 146.327C297.153 146.107 297.119 145.783 296.899 145.605C296.679 145.427 296.357 145.459 296.178 145.679C295.273 146.789 294.326 147.864 293.342 148.905C293.145 149.113 293.154 149.443 293.362 149.64C293.571 149.837 293.9 149.828 294.098 149.619L294.099 149.618Z" fill="#1D1D1B"/>
<path d="M298.701 144.085C299.56 142.907 300.374 141.696 301.137 140.454C301.279 140.223 301.207 139.92 300.975 139.777C300.745 139.636 300.443 139.707 300.3 139.936C299.542 141.15 298.735 142.334 297.884 143.485C297.717 143.71 297.765 144.027 297.99 144.194C298.215 144.361 298.533 144.313 298.699 144.088L298.701 144.085Z" fill="#1D1D1B"/>
<path d="M302.554 138.005C303.25 136.724 303.893 135.414 304.477 134.078C304.581 133.842 304.473 133.566 304.236 133.463C304.001 133.36 303.726 133.466 303.622 133.701C303.04 135.008 302.4 136.289 301.708 137.542C301.579 137.775 301.664 138.068 301.897 138.197C302.13 138.326 302.424 138.241 302.553 138.008L302.554 138.005Z" fill="#1D1D1B"/>
<path d="M305.536 131.453C306.042 130.086 306.487 128.695 306.866 127.286C306.929 127.05 306.789 126.807 306.553 126.744C306.318 126.681 306.076 126.819 306.011 127.053C305.63 128.433 305.184 129.794 304.678 131.132C304.589 131.369 304.708 131.633 304.945 131.723C305.181 131.812 305.445 131.693 305.535 131.456L305.536 131.453Z" fill="#1D1D1B"/>
<path d="M307.518 124.532C307.81 123.103 308.033 121.66 308.187 120.21C308.211 119.981 308.045 119.775 307.815 119.751C307.587 119.727 307.382 119.892 307.356 120.12C307.196 121.542 306.966 122.956 306.67 124.356C306.62 124.59 306.77 124.82 307.004 124.869C307.238 124.919 307.468 124.769 307.517 124.535L307.518 124.532Z" fill="#1D1D1B"/>
<path d="M308.397 117.389C308.459 115.933 308.451 114.474 308.374 113.018C308.363 112.801 308.177 112.635 307.961 112.647C307.745 112.658 307.579 112.842 307.589 113.057C307.655 114.488 307.653 115.922 307.581 117.351C307.57 117.576 307.743 117.768 307.968 117.779C308.194 117.79 308.385 117.617 308.396 117.392L308.397 117.389Z" fill="#1D1D1B"/>
<path d="M308.137 110.201C307.97 108.754 307.732 107.316 307.432 105.892C307.391 105.698 307.2 105.574 307.006 105.614C306.813 105.655 306.689 105.844 306.727 106.037C307.008 107.443 307.223 108.861 307.375 110.285C307.397 110.496 307.586 110.649 307.797 110.626C308.007 110.604 308.16 110.415 308.137 110.204L308.137 110.201Z" fill="#1D1D1B"/>
<path d="M306.771 103.147C306.391 101.743 305.95 100.357 305.454 98.9907C305.394 98.8251 305.211 98.7393 305.045 98.7995C304.881 98.8593 304.795 99.0403 304.853 99.2052C305.327 100.561 305.747 101.935 306.107 103.323C306.154 103.507 306.342 103.617 306.526 103.57C306.709 103.522 306.82 103.335 306.772 103.151C306.772 103.15 306.771 103.148 306.771 103.147Z" fill="#1D1D1B"/>
<path d="M304.425 96.3652C303.86 95.0268 303.245 93.7109 302.585 92.4186C302.514 92.2814 302.347 92.2272 302.209 92.2972C302.073 92.3666 302.019 92.533 302.086 92.6695C302.726 93.9575 303.321 95.2675 303.864 96.5977C303.927 96.7527 304.104 96.8272 304.259 96.7638C304.415 96.7004 304.489 96.5233 304.426 96.3684C304.426 96.3679 304.425 96.3657 304.425 96.3652Z" fill="#1D1D1B"/>
<path d="M301.247 89.941C300.53 88.6801 299.772 87.4434 298.978 86.2315C298.905 86.1215 298.757 86.0906 298.647 86.1628C298.538 86.2344 298.507 86.3809 298.577 86.4907C299.353 87.7036 300.092 88.9395 300.788 90.1983C300.859 90.3253 301.018 90.3715 301.146 90.301C301.273 90.2306 301.319 90.0707 301.248 89.9435L301.247 89.941Z" fill="#1D1D1B"/>
<path d="M297.388 83.9106L294.765 80.4465C294.703 80.3646 294.587 80.3486 294.505 80.4105C294.424 80.472 294.407 80.5869 294.467 80.6685L294.473 80.6767L297.029 84.1632L297.036 84.173C297.108 84.2709 297.245 84.292 297.343 84.2203C297.441 84.1487 297.462 84.0112 297.39 83.9135C297.39 83.9128 297.388 83.9111 297.388 83.9106Z" fill="#1D1D1B"/>
<path d="M292.975 78.2822L290.077 75.0503C290.029 74.9966 289.946 74.992 289.892 75.0403C289.839 75.0879 289.834 75.1696 289.881 75.2232L289.885 75.2278L292.723 78.4938L292.728 78.4996C292.788 78.5681 292.892 78.5754 292.96 78.5159C293.029 78.4564 293.036 78.3527 292.976 78.2842C292.976 78.2837 292.975 78.2822 292.975 78.2822Z" fill="#1D1D1B"/>
<path d="M288.127 73.0303L285.005 70.0192C284.978 69.993 284.934 69.9937 284.908 70.0209C284.882 70.0479 284.882 70.0906 284.909 70.1171L284.911 70.119L287.971 73.1826L287.974 73.1858C288.016 73.2283 288.085 73.2286 288.128 73.1858C288.171 73.1433 288.171 73.0741 288.128 73.0316C288.128 73.0313 288.127 73.0303 288.127 73.0303Z" fill="#1D1D1B"/>
<path d="M222.19 -2.82579e-05L291.199 54.5725L256.246 98.7729L187.236 44.2004L222.19 -2.82579e-05Z" fill="#D12A2A"/>
<path d="M187.242 44.2108L256.252 98.7794L258.93 95.3924C261.342 88.5 263.755 81.605 266.171 74.7119C267.593 70.6467 266.22 66.0674 262.757 63.329L221.404 30.6299C217.943 27.8937 213.168 27.6112 209.543 29.9344C202.11 34.695 194.674 39.4532 187.242 44.2108Z" fill="#AF2323"/>
<path d="M221.388 30.1594L262.052 62.3137C265.456 65.0057 266.76 69.5712 265.291 73.655C262.278 82.0299 259.265 90.4045 256.252 98.7794L187.242 44.2109C194.697 39.3483 202.151 34.4855 209.606 29.6228C213.241 27.2515 217.984 27.4675 221.388 30.1594Z" fill="#FF5C51"/>
<path d="M290.596 55.3473L221.586 0.778809L218.933 4.13318L224.195 32.1264L228.315 54.0409C229.215 58.803 233.542 62.2244 238.38 61.9995L260.657 60.9581L287.139 59.719L290.596 55.3473Z" fill="#AF2323"/>
<path d="M222.194 0.00927734L219.519 3.39256L228.224 53.1315C229.057 57.8768 233.313 61.2418 238.12 60.9569L288.529 57.9611L291.204 54.5778L222.194 0.00927734Z" fill="white"/>
<path d="M222.616 0.342773L231.196 49.3719C232.028 54.1201 236.284 57.4852 241.093 57.1973L290.782 54.244L222.616 0.342773Z" fill="#FF5C51"/>
<path d="M239.627 46.136C239.043 46.8742 239.168 47.946 239.907 48.5297C240.645 49.1134 241.717 48.9883 242.301 48.2501C242.884 47.5119 242.759 46.4402 242.021 45.8564C241.283 45.2725 240.211 45.3976 239.627 46.136Z" fill="#AF2323"/>
</svg>
