<svg id="ePu91jRMvFK1" xmlns="http://www.w3.org/2000/svg" xmlns:xlink="http://www.w3.org/1999/xlink" viewBox="0 0 383 323" shape-rendering="geometricPrecision" text-rendering="geometricPrecision" project-id="4d25384a1e244b6ea2434443f0ecb2c1" export-id="30279f7ba81e48a28db924c7048d4c14" cached="false">
<style><![CDATA[
#ePu91jRMvFK59 {animation: ePu91jRMvFK59__m 10000ms linear infinite normal forwards}@keyframes ePu91jRMvFK59__m { 0% {d: path('M269.557,203.89C269.557,203.89,192.929,248.271,192.929,248.271L115.729,203.059L130.885,123.952L192.78475,69.3914C192.78475,69.3914,260.95,120.03,260.95,120.03C260.95,120.03,269.557,203.89,269.557,203.89Z')} 25% {d: path('M247.008858,190.488172C247.008858,190.488172,192.516,251.005232,192.516,251.005232L116.826039,203.434L116.826039,114.342L191.597,68.745395C191.597,68.745395,270.513,114.342,270.513,114.342C270.513,114.342,247.008858,190.488172,247.008858,190.488172Z')} 50% {d: path('M278.500598,217.887299C278.500598,217.887299,190.046,279.916494,190.046,279.916494L103.384872,217.887297L103.384872,100.570035L192.78475,46.986306C192.78475,46.986306,283.233455,100.570035,283.233455,100.570035C283.233455,100.570035,278.500598,217.887299,278.500598,217.887299Z')} 75% {d: path('M247.008858,190.488172C247.008858,190.488172,192.516,251.005232,192.516,251.005232L116.826039,203.434L116.826039,114.342L191.597,68.745395C191.597,68.745395,270.513,114.342,270.513,114.342C270.513,114.342,247.008858,190.488172,247.008858,190.488172Z')} 100% {d: path('M269.557,203.89C269.557,203.89,192.929,248.271,192.929,248.271L115.729,203.059L130.885,123.952L192.78475,69.3914C192.78475,69.3914,260.95,120.03,260.95,120.03C260.95,120.03,269.557,203.89,269.557,203.89Z')}} #ePu91jRMvFK60 {animation: ePu91jRMvFK60__m 10000ms linear infinite normal forwards}@keyframes ePu91jRMvFK60__m { 0% {d: path('M251.747,194.944L192.931,179.447L115.813,203.06C115.813,203.06,175.446,150.291,175.446,150.291L192.931,88.9823L236.672,134.221C236.672,134.221,251.747,194.944,251.747,194.944Z')} 25% {d: path('M238.239,185.372L192.516,174.823L142.78486,187.717969C142.78486,187.717969,147.869,133.312,147.869,133.312L191.9371,94.4876L238.239,133.075C238.239,133.075,238.239,185.372,238.239,185.372Z')} 50% {d: path('M245.966956,188.064002L191.997487,222.732033L136.585361,192.086134C136.585361,192.086134,136.585361,128.092207,136.585361,128.092207L192.007587,94.833633L245.966956,128.092207C245.966956,128.092207,245.966956,188.064002,245.966956,188.064002Z')} 75% {d: path('M238.239,185.372L192.516,174.823L142.78486,187.717969C142.78486,187.717969,147.869,133.312,147.869,133.312L191.9371,94.4876L238.239,133.075C238.239,133.075,238.239,185.372,238.239,185.372Z')} 100% {d: path('M251.747,194.944L192.931,179.447L115.813,203.06C115.813,203.06,175.446,150.291,175.446,150.291L192.931,88.9823L236.672,134.221C236.672,134.221,251.747,194.944,251.747,194.944Z')}}
]]></style>
<g mask="url(#ePu91jRMvFK65)"><g><path d="M162.692,22.5154h1.521c2.26,0,3.736-1.5815,3.736-3.7052c0-2.1689-1.491-3.7353-3.645-3.7353h-1.612v7.4405ZM160.87,24.142v-10.6938h3.404c3.388,0,5.557,2.199,5.557,5.362c0,3.1479-2.078,5.3318-5.512,5.3318h-3.449Z" fill="#222"/><path d="M171.553,24.1421v-7.3501h1.687v7.3501h-1.687Zm.844-8.4345c-.633,0-1.13-.5121-1.13-1.1297c0-.6024.497-1.1145,1.13-1.1145.632,0,1.144.5121,1.144,1.1145c0,.6176-.512,1.1297-1.144,1.1297Z" fill="#222"/><path d="M177.599,24.2623c-1.189,0-2.199-.3916-2.967-1.0694l.844-1.2652c.587.5724,1.22.8586,2.123.8586.648,0,1.025-.2862,1.025-.723c0-.3765-.482-.5573-1.446-.8886-1.205-.4218-2.244-.964-2.244-2.4099c0-1.2049,1.084-2.0785,2.59-2.0785.934,0,1.777.256,2.591.9187l-.844,1.3255c-.587-.5573-1.265-.7832-1.837-.7832-.332,0-.798.1807-.798.6326c0,.3614.451.6175,1.159.8886c1.567.6175,2.546.9037,2.546,2.3647c0,1.235-.874,2.2291-2.742,2.2291Z" fill="#222"/><path d="M185.028,24.2623c-2.169,0-3.75-1.5363-3.75-3.7805c0-2.2592,1.581-3.7955,3.81-3.7955c1.145,0,2.35.4669,3.088,1.3706l-1.145.9941c-.421-.4971-1.054-.8435-1.852-.8435-1.311,0-2.184.9188-2.184,2.2593c0,1.3555.889,2.2592,2.184,2.2592.813,0,1.476-.3615,1.852-.8585l1.16,1.0242c-.617.7983-1.566,1.3706-3.163,1.3706Z" fill="#222"/><path d="M192.849,22.726c1.19,0,2.139-.9188,2.139-2.2442c0-1.3555-.934-2.2743-2.139-2.2743-1.28,0-2.138.9941-2.138,2.2743c0,1.2501.873,2.2442,2.138,2.2442Zm0,1.5363c-2.319,0-3.855-1.6267-3.855-3.7805c0-2.1689,1.536-3.7955,3.855-3.7955c2.26,0,3.856,1.5363,3.856,3.7955c0,2.2291-1.596,3.7805-3.856,3.7805Z" fill="#222"/><path d="M199.856,24.1416l-2.907-7.3501h1.808l1.912,5.2415h.016l1.912-5.2415h1.793l-2.922,7.3501h-1.612Z" fill="#222"/><path d="M208.275,18.2075c-.934,0-1.657.5272-1.898,1.4911h3.675c-.211-.8886-.813-1.4911-1.777-1.4911Zm3.479,2.1689c0,.2711-.03.5271-.045.6476h-5.362c.211,1.0694,1.009,1.702,2.154,1.702.873,0,1.476-.3916,1.852-.8585l1.175,1.0091c-.618.7983-1.536,1.3857-3.118,1.3857-2.229,0-3.81-1.4911-3.81-3.7955c0-2.2593,1.536-3.7805,3.69-3.7805c2.063,0,3.464,1.5513,3.464,3.6901Z" fill="#222"/><path d="M213.192,24.1418v-7.3501h1.687v1.0995h.03c.573-.7681,1.386-1.2049,2.275-1.2049h.211v1.8827c-.196-.0151-.392-.0301-.513-.0301-1.28,0-2.003.9187-2.003,2.1237v3.4792h-1.687Z" fill="#222"/><path d="M219.369,27.1238l1.325-3.3889-3.012-6.9434h1.807l2.018,4.9252h.03l1.883-4.9252h1.732l-4.036,10.3323h-1.747Z" fill="#222"/><path d="M311.35,86.9448h1.732c1.461,0,2.169-.7531,2.169-1.8074c0-1.1296-.738-1.8074-2.048-1.8074h-1.853v3.6148Zm-1.822,5.4524v-10.6938h3.946c2.545,0,3.66,1.476,3.66,3.4642c0,1.6718-.813,2.7864-2.38,3.2382l2.772,3.9914h-2.184l-2.561-3.8106h-1.431v3.8106h-1.822Z" fill="#222"/><path d="M322.05,86.4629c-.934,0-1.657.5271-1.898,1.4911h3.675c-.211-.8887-.813-1.4911-1.777-1.4911Zm3.479,2.1689c0,.2711-.03.5271-.045.6476h-5.362c.211,1.0694,1.009,1.702,2.153,1.702.874,0,1.477-.3916,1.853-.8585l1.175,1.0091c-.618.7983-1.536,1.3857-3.118,1.3857-2.229,0-3.81-1.4911-3.81-3.7956c0-2.2592,1.536-3.7804,3.69-3.7804c2.063,0,3.464,1.5513,3.464,3.6901Z" fill="#222"/><path d="M329.318,92.5177c-1.19,0-2.199-.3916-2.967-1.0694l.843-1.2652c.587.5724,1.22.8585,2.124.8585.647,0,1.024-.2861,1.024-.7229c0-.3766-.482-.5573-1.446-.8887-1.205-.4217-2.244-.9639-2.244-2.4098c0-1.205,1.084-2.0785,2.59-2.0785.934,0,1.778.256,2.591.9187l-.843,1.3254c-.588-.5572-1.266-.7832-1.838-.7832-.331,0-.798.1808-.798.6326c0,.3615.452.6176,1.16.8887c1.566.6175,2.545.9037,2.545,2.3646c0,1.2351-.874,2.2292-2.741,2.2292Z" fill="#222"/><path d="M336.671,86.4629c-.934,0-1.657.5271-1.898,1.4911h3.675c-.21-.8887-.813-1.4911-1.777-1.4911Zm3.479,2.1689c0,.2711-.03.5271-.045.6476h-5.362c.211,1.0694,1.009,1.702,2.154,1.702.874,0,1.476-.3916,1.853-.8585l1.174,1.0091c-.617.7983-1.536,1.3857-3.117,1.3857-2.229,0-3.811-1.4911-3.811-3.7956c0-2.2592,1.536-3.7804,3.69-3.7804c2.064,0,3.464,1.5513,3.464,3.6901Z" fill="#222"/><path d="M344.962,90.9814c1.145,0,2.094-.8887,2.094-2.2141c0-1.3104-.889-2.3044-2.094-2.3044-1.174,0-2.108.8886-2.108,2.3044c0,1.2953.858,2.2141,2.108,2.2141Zm-.271,1.5363c-2.033,0-3.554-1.4911-3.554-3.7654c0-2.2141,1.521-3.8106,3.539-3.8106.934,0,1.747.3464,2.275,1.0091l.03-.0151v-.8886h1.687v7.3501h-1.612v-.964l-.03-.015c-.527.7079-1.311,1.0995-2.335,1.0995Z" fill="#222"/><path d="M350.496,92.3972v-7.3501h1.687v1.0995h.03c.572-.7682,1.385-1.2049,2.274-1.2049h.211v1.8827c-.196-.0151-.392-.0302-.512-.0302-1.281,0-2.003.9188-2.003,2.1237v3.4793h-1.687Z" fill="#222"/><path d="M358.905,92.5177c-2.169,0-3.75-1.5363-3.75-3.7805c0-2.2593,1.581-3.7955,3.81-3.7955c1.145,0,2.35.4669,3.088,1.3706l-1.145.994c-.421-.497-1.054-.8434-1.852-.8434-1.311,0-2.184.9187-2.184,2.2592c0,1.3556.888,2.2593,2.184,2.2593.813,0,1.476-.3615,1.852-.8585l1.16,1.0242c-.617.7982-1.566,1.3706-3.163,1.3706Z" fill="#222"/><path d="M363.308,92.3972v-11.0854h1.687v4.654h.015c.617-.6778,1.506-1.0242,2.5-1.0242c1.611,0,2.741.8585,2.741,3.0575v4.3981h-1.687v-3.9613c0-1.4609-.587-1.973-1.596-1.973-1.22,0-1.973.753-1.973,2.199v3.7353h-1.687Z" fill="#222"/><path d="M313.154,227.025h3.268l-1.627-4.639h-.03l-1.611,4.639Zm-3.254,3.871l3.992-10.693h1.777l4.006,10.693h-1.897l-.814-2.304h-4.368l-.798,2.304h-1.898Z" fill="#222"/><path d="M320.825,230.897v-7.35h1.687v1.009h.03c.603-.723,1.492-1.115,2.456-1.115c1.611,0,2.696.919,2.696,3.133v4.323h-1.687v-3.886c0-1.551-.588-2.048-1.597-2.048-1.145,0-1.898.798-1.898,2.244v3.69h-1.687Z" fill="#222"/><path d="M332.825,229.481c1.145,0,2.094-.889,2.094-2.214c0-1.311-.889-2.305-2.094-2.305-1.175,0-2.108.889-2.108,2.305c0,1.295.858,2.214,2.108,2.214Zm-.271,1.536c-2.033,0-3.554-1.491-3.554-3.765c0-2.214,1.521-3.811,3.539-3.811.934,0,1.747.347,2.274,1.009l.03-.015v-.888h1.687v7.35h-1.611v-.964l-.03-.015c-.528.708-1.311,1.099-2.335,1.099Z" fill="#222"/><path d="M338.463,230.897v-11.085h1.687v11.085h-1.687Z" fill="#222"/><path d="M342.828,233.879l1.325-3.389-3.012-6.943h1.808l2.018,4.925h.03l1.883-4.925h1.732l-4.037,10.332h-1.747Z" fill="#222"/><path d="M351.857,231.017c-1.19,0-2.199-.391-2.967-1.069l.843-1.265c.588.572,1.22.858,2.124.858.648,0,1.024-.286,1.024-.723c0-.376-.482-.557-1.446-.888-1.205-.422-2.244-.964-2.244-2.41c0-1.205,1.085-2.079,2.591-2.079.934,0,1.777.256,2.59.919l-.843,1.326c-.588-.558-1.265-.784-1.838-.784-.331,0-.798.181-.798.633c0,.361.452.618,1.16.889c1.566.617,2.545.903,2.545,2.364c0,1.235-.873,2.229-2.741,2.229Z" fill="#222"/><path d="M356.078,230.896v-7.35h1.687v7.35h-1.687Zm.843-8.434c-.632,0-1.129-.512-1.129-1.13c0-.602.497-1.114,1.129-1.114.633,0,1.145.512,1.145,1.114c0,.618-.512,1.13-1.145,1.13Z" fill="#222"/><path d="M362.125,231.017c-1.19,0-2.199-.391-2.968-1.069l.844-1.265c.587.572,1.22.858,2.124.858.647,0,1.024-.286,1.024-.723c0-.376-.482-.557-1.446-.888-1.205-.422-2.244-.964-2.244-2.41c0-1.205,1.084-2.079,2.59-2.079.934,0,1.778.256,2.591.919l-.844,1.326c-.587-.558-1.265-.784-1.837-.784-.331,0-.798.181-.798.633c0,.361.452.618,1.159.889c1.567.617,2.546.903,2.546,2.364c0,1.235-.874,2.229-2.741,2.229Z" fill="#222"/><path d="M156.508,306.431v-10.694h1.823v10.694h-1.823Z" fill="#222"/><path d="M160.51,306.431v-7.35h1.687v1.009h.015c.603-.723,1.446-1.114,2.29-1.114.994,0,1.762.391,2.199,1.22h.03c.617-.799,1.551-1.22,2.636-1.22c1.611,0,2.575,1.009,2.575,3.208v4.247h-1.687v-3.826c0-1.325-.437-2.108-1.431-2.108-.949,0-1.717.828-1.717,2.274v3.66h-1.687v-3.826c0-1.325-.467-2.108-1.461-2.108-1.009,0-1.762.828-1.762,2.274v3.66h-1.687Z" fill="#222"/><path d="M177.491,305.015c1.235,0,2.109-.918,2.109-2.214c0-1.416-.949-2.304-2.124-2.304-1.265,0-2.139.994-2.139,2.304c0,1.326.949,2.214,2.154,2.214Zm-3.765,4.398v-10.332h1.686v.874h.031c.542-.633,1.355-.979,2.319-.979c2.033,0,3.555,1.596,3.555,3.81c0,2.274-1.522,3.766-3.57,3.766-.994,0-1.762-.362-2.304-1.025l-.031.015v3.871h-1.686Z" fill="#222"/><path d="M182.885,306.431v-11.086h1.687v11.086h-1.687Z" fill="#222"/><path d="M189.82,300.497c-.934,0-1.657.527-1.898,1.491h3.675c-.211-.889-.813-1.491-1.777-1.491Zm3.479,2.169c0,.271-.03.527-.045.647h-5.362c.211,1.07,1.009,1.702,2.154,1.702.874,0,1.476-.391,1.853-.858l1.174,1.009c-.617.798-1.536,1.386-3.117,1.386-2.23,0-3.811-1.492-3.811-3.796c0-2.259,1.536-3.78,3.69-3.78c2.064,0,3.464,1.551,3.464,3.69Z" fill="#222"/><path d="M194.737,306.431v-7.35h1.687v1.009h.015c.603-.723,1.446-1.114,2.29-1.114.994,0,1.762.391,2.199,1.22h.03c.617-.799,1.551-1.22,2.636-1.22c1.611,0,2.575,1.009,2.575,3.208v4.247h-1.687v-3.826c0-1.325-.437-2.108-1.431-2.108-.949,0-1.717.828-1.717,2.274v3.66h-1.687v-3.826c0-1.325-.467-2.108-1.461-2.108-1.009,0-1.762.828-1.762,2.274v3.66h-1.687Z" fill="#222"/><path d="M211.192,300.497c-.934,0-1.657.527-1.898,1.491h3.675c-.21-.889-.813-1.491-1.777-1.491Zm3.479,2.169c0,.271-.03.527-.045.647h-5.362c.211,1.07,1.009,1.702,2.154,1.702.874,0,1.476-.391,1.853-.858l1.174,1.009c-.617.798-1.536,1.386-3.117,1.386-2.229,0-3.811-1.492-3.811-3.796c0-2.259,1.536-3.78,3.69-3.78c2.064,0,3.464,1.551,3.464,3.69Z" fill="#222"/><path d="M216.11,306.431v-7.35h1.687v1.009h.03c.602-.723,1.491-1.114,2.455-1.114c1.612,0,2.696.918,2.696,3.132v4.323h-1.687v-3.886c0-1.551-.587-2.048-1.596-2.048-1.145,0-1.898.798-1.898,2.244v3.69h-1.687Z" fill="#222"/><path d="M226.921,306.552c-1.265,0-2.049-.799-2.049-2.44v-3.6h-.903v-1.431h.903v-2.44l1.687-.181v2.621h2.154v1.431h-2.154v3.434c0,.753.226,1.024.708,1.024.286,0,.693-.105,1.085-.316l.436,1.461c-.436.241-.903.437-1.867.437Z" fill="#222"/><path d="M22.3872,234.856l-3.9913-10.694h1.958l2.8466,8.073h.0151l2.8316-8.073h1.943l-3.9914,10.694h-1.6116Z" fill="#222"/><path d="M31.4265,233.44c1.1447,0,2.0936-.889,2.0936-2.214c0-1.31-.8887-2.304-2.0936-2.304-1.1748,0-2.1086.888-2.1086,2.304c0,1.295.8585,2.214,2.1086,2.214Zm-.2711,1.536c-2.0333,0-3.5546-1.491-3.5546-3.765c0-2.214,1.5213-3.811,3.5395-3.811.9338,0,1.7472.347,2.2743,1.01l.0302-.016v-.888h1.6869v7.35h-1.6116v-.964l-.0302-.015c-.5271.708-1.3103,1.099-2.3345,1.099Z" fill="#222"/><path d="M37.0635,234.856v-11.086h1.6869v11.086h-1.6869Z" fill="#222"/><path d="M40.8665,234.855v-7.35h1.6869v7.35h-1.6869Zm.8434-8.434c-.6325,0-1.1296-.512-1.1296-1.13c0-.602.4971-1.114,1.1296-1.114.6326,0,1.1447.512,1.1447,1.114c0,.618-.5121,1.13-1.1447,1.13Z" fill="#222"/><path d="M47.937,233.44c1.2049,0,2.1538-.889,2.1538-2.214c0-1.311-.8736-2.305-2.1387-2.305-1.1749,0-2.1237.889-2.1237,2.305c0,1.295.8735,2.214,2.1086,2.214Zm-.2561,1.536c-2.0333,0-3.5696-1.491-3.5696-3.765c0-2.214,1.5363-3.811,3.5546-3.811.9639,0,1.7923.346,2.3496,1.009h.0151v-4.639h1.6718v11.086h-1.6116v-.995h-.0151c-.5422.708-1.3404,1.115-2.3948,1.115Z" fill="#222"/><path d="M56.9761,233.44c1.1446,0,2.0935-.889,2.0935-2.214c0-1.31-.8886-2.304-2.0935-2.304-1.1749,0-2.1087.888-2.1087,2.304c0,1.295.8585,2.214,2.1087,2.214Zm-.2712,1.536c-2.0333,0-3.5545-1.491-3.5545-3.765c0-2.214,1.5212-3.811,3.5395-3.811.9338,0,1.7471.347,2.2743,1.01l.0301-.016v-.888h1.6869v7.35h-1.6116v-.964l-.0301-.015c-.5272.708-1.3104,1.099-2.3346,1.099Z" fill="#222"/><path d="M64.6928,234.976c-1.2652,0-2.0484-.798-2.0484-2.44v-3.599h-.9037v-1.431h.9037v-2.44l1.6869-.181v2.621h2.1538v1.431h-2.1538v3.434c0,.753.226,1.024.7079,1.024.2862,0,.6929-.106,1.0845-.316l.4368,1.461c-.4368.241-.9037.436-1.8677.436Z" fill="#222"/><path d="M70.5937,228.922c-.9338,0-1.6567.527-1.8977,1.491h3.675c-.2108-.889-.8133-1.491-1.7773-1.491Zm3.4793,2.168c0,.272-.0301.528-.0452.648h-5.3619c.2108,1.07,1.0091,1.702,2.1538,1.702.8735,0,1.476-.391,1.8526-.858l1.1748,1.009c-.6176.798-1.5363,1.385-3.1178,1.385-2.2291,0-3.8106-1.491-3.8106-3.795c0-2.259,1.5363-3.781,3.6901-3.781c2.0635,0,3.4642,1.552,3.4642,3.69Z" fill="#222"/><path d="M13.1759,94.3669v-10.6938h1.8225v10.6938h-1.8225Z" fill="#222"/><path d="M19.3619,94.4876c-1.2652,0-2.0484-.7983-2.0484-2.44v-3.5998h-.9037v-1.4308h.9037v-2.44l1.6869-.1808v2.6208h2.1538v1.4308h-2.1538v3.4341c0,.7531.2259,1.0242.7079,1.0242.2862,0,.6928-.1055,1.0844-.3163l.4368,1.461c-.4368.241-.9037.4368-1.8676.4368Z" fill="#222"/><path d="M25.2629,88.4328c-.9338,0-1.6567.5272-1.8977,1.4912h3.675c-.2108-.8887-.8133-1.4912-1.7773-1.4912Zm3.4793,2.1689c0,.2711-.0301.5272-.0452.6477h-5.362c.2109,1.0694,1.0092,1.7019,2.1539,1.7019.8735,0,1.476-.3916,1.8525-.8585l1.1749,1.0092c-.6176.7982-1.5363,1.3856-3.1178,1.3856-2.2291,0-3.8106-1.4911-3.8106-3.7955c0-2.2593,1.5363-3.7805,3.6901-3.7805c2.0634,0,3.4642,1.5514,3.4642,3.6901Z" fill="#222"/><path d="M30.1807,94.3671v-7.35h1.6869v1.0995h.0301c.5723-.7682,1.3857-1.205,2.2743-1.205h.2109v1.8827c-.1958-.015-.3916-.0301-.5121-.0301-1.2803,0-2.0032.9188-2.0032,2.1237v3.4792h-1.6869Z" fill="#222"/><path d="M38.6516,92.9513c1.1447,0,2.0936-.8886,2.0936-2.214c0-1.3104-.8887-2.3045-2.0936-2.3045-1.1748,0-2.1086.8887-2.1086,2.3045c0,1.2953.8585,2.214,2.1086,2.214Zm-.2711,1.5363c-2.0333,0-3.5546-1.4911-3.5546-3.7654c0-2.214,1.5213-3.8106,3.5395-3.8106.9338,0,1.7472.3464,2.2743,1.0092l.0302-.0151v-.8886h1.6869v7.35h-1.6116v-.9639l-.0302-.0151c-.5271.7079-1.3103,1.0995-2.3345,1.0995Z" fill="#222"/><path d="M46.3683,94.4876c-1.2651,0-2.0483-.7983-2.0483-2.44v-3.5998h-.9037v-1.4308h.9037v-2.44l1.6869-.1808v2.6208h2.1538v1.4308h-2.1538v3.4341c0,.7531.2259,1.0242.7079,1.0242.2861,0,.6928-.1055,1.0844-.3163l.4368,1.461c-.4368.241-.9037.4368-1.8677.4368Z" fill="#222"/><path d="M49.4893,94.3667v-7.3501h1.6869v7.3501h-1.6869Zm.8434-8.4345c-.6325,0-1.1296-.5121-1.1296-1.1296c0-.6025.4971-1.1146,1.1296-1.1146s1.1447.5121,1.1447,1.1146c0,.6175-.5121,1.1296-1.1447,1.1296Z" fill="#222"/><path d="M56.6048,92.9513c1.1899,0,2.1388-.9187,2.1388-2.2441c0-1.3556-.9339-2.2744-2.1388-2.2744-1.2802,0-2.1387.9941-2.1387,2.2744c0,1.2501.8735,2.2441,2.1387,2.2441Zm0,1.5363c-2.3195,0-3.8558-1.6266-3.8558-3.7804c0-2.1689,1.5363-3.7956,3.8558-3.7956c2.2593,0,3.8558,1.5363,3.8558,3.7956c0,2.2291-1.5965,3.7804-3.8558,3.7804Z" fill="#222"/><path d="M61.9163,94.3671v-7.35h1.6869v1.0091h.0301c.6025-.723,1.4911-1.1146,2.455-1.1146c1.6116,0,2.6961.9188,2.6961,3.1328v4.3227h-1.6869v-3.8859c0-1.5513-.5874-2.0484-1.5966-2.0484-1.1447,0-1.8977.7983-1.8977,2.2442v3.6901h-1.6869Z" fill="#222"/><path d="M72.8929,94.4876c-1.1898,0-2.199-.3916-2.9671-1.0693l.8434-1.2652c.5874.5723,1.22.8585,2.1237.8585.6477,0,1.0242-.2862,1.0242-.723c0-.3765-.482-.5572-1.4459-.8886-1.2049-.4217-2.2442-.9639-2.2442-2.4099c0-1.2049,1.0845-2.0785,2.5906-2.0785.9338,0,1.7773.2561,2.5906.9188l-.8434,1.3254c-.5874-.5573-1.2652-.7832-1.8375-.7832-.3314,0-.7983.1807-.7983.6326c0,.3615.4518.6175,1.1597.8886c1.5664.6176,2.5455.9037,2.5455,2.3647c0,1.2351-.8736,2.2291-2.7413,2.2291Z" fill="#222"/><path d="M191.927,41.7649v234.6111" fill="none" stroke="#d9d9d9" stroke-width="1.07583"/><path d="M293.526,100.417L90.3482,217.722" fill="none" stroke="#d9d9d9" stroke-width="1.07583"/><path d="M294.602,217.722L91.4239,100.417" fill="none" stroke="#d9d9d9" stroke-width="1.07583"/><path id="ePu91jRMvFK59" d="M269.557,203.89c0,0-76.628,44.381-76.628,44.381l-77.2-45.212l15.156-79.107l61.89975-54.5606c0,0,68.16525,50.6386,68.16525,50.6386s8.607,83.86,8.607,83.86Z" transform="matrix(1 0 0 0.889511-.546149 17.587848)" fill="#d8d8d8" stroke="#6e6e6e"/><path id="ePu91jRMvFK60" d="M251.747,194.944l-58.816-15.497-77.118,23.613c0,0,59.633-52.769,59.633-52.769l17.485-61.3087l43.741,45.2387c0,0,15.075,60.723,15.075,60.723Z" transform="translate(.127194 0)" fill-opacity="0.30196" stroke="#888"/><path d="M90.3125,100.052L192.516,40.3438L295.257,99.5146v118.8794L192.516,277.565L90.3125,218.394v-118.342Z" fill="none" stroke="#222" stroke-width="1.07583" stroke-opacity="0.69804"/><path d="M116.67,114.342l76.72-44.9506l77.123,44.5456v89.497L193.39,247.98l-76.72-44.546v-89.092Z" fill="none" stroke="#222" stroke-width="1.07583" stroke-opacity="0.07843" stroke-dasharray="7.53,7.53"/><path d="M147.869,133.312l45.067-26.266l45.303,26.029v52.297l-45.303,26.029-45.067-26.029v-52.06Z" fill="none" stroke="#222" stroke-width="1.07583" stroke-opacity="0.07843" stroke-dasharray="7.53,7.53"/><path d="M179.068,151.477l13.949-7.853l14.023,7.783v15.634l-14.023,7.782-13.949-7.782v-15.564Z" fill="none" stroke="#222" stroke-width="1.07583" stroke-opacity="0.07843" stroke-dasharray="7.53,7.53"/></g><mask id="ePu91jRMvFK65" mask-type="luminance" x="-150%" y="-150%" height="400%" width="400%"><path d="M379.494,0L2.95569,0v322.75h376.53831v-322.75Z" fill="#fff"/></mask></g></svg>
