<svg width="690" height="691" viewBox="0 0 690 691" fill="none" xmlns="http://www.w3.org/2000/svg">
<g clip-path="url(#clip0_1608_4008)">
<path fill-rule="evenodd" clip-rule="evenodd" d="M392.544 408.606C377.288 412.993 361.168 415.344 344.5 415.344C327.955 415.344 311.95 413.028 296.794 408.703C301.916 386.708 311.443 365.357 325.581 345.957C331.449 337.905 337.881 330.506 344.782 323.775C368.059 346.532 384.957 375.787 392.544 408.606ZM393.506 408.326C385.871 375.349 368.888 345.952 345.5 323.079C390.402 279.786 454.868 264.524 513.499 281.279C499.338 342.207 453.078 390.819 393.506 408.326ZM392.767 409.582C377.438 413.985 361.245 416.344 344.5 416.344C327.878 416.344 311.798 414.02 296.569 409.679C283.472 467.433 300.678 529.481 344.48 572.206C376.877 540.686 397 496.615 397 447.844C397 434.697 395.538 421.892 392.767 409.582ZM295.831 408.425C300.986 386.322 310.564 364.865 324.773 345.368C330.669 337.278 337.131 329.842 344.064 323.078C312.848 292.907 270.342 274.344 223.5 274.344C206.832 274.344 190.712 276.694 175.456 281.082C189.589 342.217 236.033 390.983 295.831 408.425ZM174.494 281.361C188.728 342.843 235.454 391.878 295.606 409.401C282.412 467.495 299.707 529.918 343.761 572.902C312.573 602.901 270.191 621.344 223.5 621.344C127.679 621.344 50 543.665 50 447.844C50 369.041 102.536 302.509 174.494 281.361ZM174.27 280.385C171.475 267.986 170 255.087 170 241.844C170 145.47 248.126 67.3438 344.5 67.3438C440.874 67.3438 519 145.47 519 241.844C519 255.157 517.509 268.121 514.685 280.58C533.541 286.08 551.782 294.882 568.571 307.117C646.456 363.877 663.582 473.029 606.822 550.914C550.062 628.8 440.91 645.926 363.025 589.166C356.401 584.339 350.216 579.133 344.479 573.599C313.11 603.784 270.472 622.344 223.5 622.344C127.126 622.344 49 544.217 49 447.844C49 368.565 101.867 301.635 174.27 280.385ZM175.233 280.105C172.462 267.795 171 254.99 171 241.844C171 146.022 248.679 68.3438 344.5 68.3438C440.321 68.3438 518 146.022 518 241.844C518 255.06 516.522 267.932 513.723 280.302C454.757 263.471 389.931 278.833 344.782 322.381C313.384 292.023 270.624 273.344 223.5 273.344C206.755 273.344 190.562 275.702 175.233 280.105ZM514.461 281.557C533.189 287.026 551.306 295.772 567.982 307.925C645.421 364.36 662.449 472.886 606.014 550.325C549.579 627.765 441.053 644.793 363.614 588.358C357.037 583.565 350.896 578.396 345.198 572.903C377.769 541.202 398 496.885 398 447.844C398 434.6 396.525 421.702 393.73 409.303C453.656 391.714 500.2 342.832 514.461 281.557Z" fill="#484848"/>
<line x1="345.5" y1="-48" x2="345.5" y2="739" stroke="#E1E1E1"/>
<line x1="0.5" y1="-48" x2="0.500034" y2="739" stroke="#E1E1E1"/>
<line x1="739" y1="345.5" y2="345.5" stroke="#E1E1E1"/>
<circle cx="345.5" cy="345.844" r="3.5" fill="black"/>
<path d="M345.5 349.344V678.344" stroke="#484848" stroke-dasharray="6 6"/>
<path d="M179.728 446.344V429.544H182.128V446.344H179.728ZM185.361 446.344V434.44H187.497L187.665 436.528C188.049 435.792 188.593 435.216 189.297 434.8C190.001 434.368 190.817 434.152 191.745 434.152C192.705 434.152 193.529 434.352 194.217 434.752C194.905 435.136 195.433 435.72 195.801 436.504C196.185 437.288 196.377 438.28 196.377 439.48V446.344H194.001V439.72C194.001 438.568 193.753 437.696 193.257 437.104C192.777 436.496 192.057 436.192 191.097 436.192C190.457 436.192 189.881 436.352 189.369 436.672C188.873 436.976 188.481 437.424 188.193 438.016C187.905 438.608 187.761 439.328 187.761 440.176V446.344H185.361ZM203.949 446.632C202.973 446.632 202.093 446.464 201.309 446.128C200.541 445.792 199.925 445.328 199.461 444.736C198.997 444.128 198.717 443.416 198.621 442.6H201.045C201.141 442.984 201.309 443.336 201.549 443.656C201.789 443.96 202.109 444.208 202.509 444.4C202.925 444.592 203.405 444.688 203.949 444.688C204.477 444.688 204.909 444.616 205.245 444.472C205.581 444.312 205.829 444.104 205.989 443.848C206.149 443.592 206.229 443.32 206.229 443.032C206.229 442.6 206.117 442.272 205.893 442.048C205.669 441.824 205.341 441.648 204.909 441.52C204.493 441.392 203.989 441.264 203.397 441.136C202.917 441.024 202.421 440.888 201.909 440.728C201.397 440.568 200.933 440.368 200.517 440.128C200.101 439.872 199.765 439.56 199.509 439.192C199.253 438.808 199.125 438.336 199.125 437.776C199.125 437.088 199.301 436.472 199.653 435.928C200.021 435.368 200.541 434.936 201.213 434.632C201.885 434.312 202.685 434.152 203.613 434.152C204.925 434.152 205.989 434.472 206.805 435.112C207.637 435.736 208.117 436.64 208.245 437.824H205.941C205.861 437.28 205.621 436.856 205.221 436.552C204.821 436.248 204.277 436.096 203.589 436.096C202.917 436.096 202.397 436.232 202.029 436.504C201.677 436.776 201.501 437.136 201.501 437.584C201.501 437.856 201.605 438.104 201.813 438.328C202.037 438.536 202.349 438.712 202.749 438.856C203.165 439 203.653 439.136 204.213 439.264C204.997 439.424 205.717 439.624 206.373 439.864C207.045 440.104 207.589 440.448 208.005 440.896C208.437 441.344 208.653 442 208.653 442.864C208.669 443.6 208.485 444.256 208.101 444.832C207.717 445.392 207.173 445.832 206.469 446.152C205.765 446.472 204.925 446.632 203.949 446.632ZM211.517 446.344V434.44H213.917V446.344H211.517ZM212.717 432.088C212.253 432.088 211.869 431.944 211.565 431.656C211.277 431.368 211.133 431 211.133 430.552C211.133 430.12 211.277 429.768 211.565 429.496C211.869 429.208 212.253 429.064 212.717 429.064C213.165 429.064 213.541 429.208 213.845 429.496C214.149 429.768 214.301 430.12 214.301 430.552C214.301 431 214.149 431.368 213.845 431.656C213.541 431.944 213.165 432.088 212.717 432.088ZM222.066 451.912C220.962 451.912 219.994 451.768 219.162 451.48C218.33 451.208 217.674 450.784 217.194 450.208C216.73 449.632 216.498 448.928 216.498 448.096C216.498 447.68 216.594 447.248 216.786 446.8C216.994 446.368 217.314 445.952 217.746 445.552C218.178 445.152 218.754 444.8 219.474 444.496L220.77 445.552C219.986 445.872 219.458 446.24 219.186 446.656C218.914 447.072 218.778 447.472 218.778 447.856C218.778 448.336 218.922 448.736 219.21 449.056C219.498 449.376 219.89 449.616 220.386 449.776C220.882 449.936 221.442 450.016 222.066 450.016C222.674 450.016 223.202 449.92 223.65 449.728C224.114 449.552 224.466 449.304 224.706 448.984C224.962 448.68 225.09 448.312 225.09 447.88C225.09 447.384 224.906 446.968 224.538 446.632C224.17 446.296 223.45 446.096 222.378 446.032C221.482 445.968 220.714 445.88 220.074 445.768C219.45 445.64 218.922 445.504 218.49 445.36C218.058 445.2 217.69 445.024 217.386 444.832C217.098 444.624 216.842 444.416 216.618 444.208V443.656L219.042 441.184L220.914 441.856L218.37 444.28L218.874 443.224C219.05 443.352 219.218 443.464 219.378 443.56C219.538 443.656 219.746 443.744 220.002 443.824C220.274 443.904 220.634 443.976 221.082 444.04C221.546 444.104 222.154 444.16 222.906 444.208C223.962 444.304 224.818 444.504 225.474 444.808C226.146 445.112 226.634 445.52 226.938 446.032C227.242 446.528 227.394 447.12 227.394 447.808C227.394 448.496 227.202 449.152 226.818 449.776C226.434 450.4 225.85 450.912 225.066 451.312C224.282 451.712 223.282 451.912 222.066 451.912ZM222.042 442.672C221.034 442.672 220.17 442.48 219.45 442.096C218.746 441.712 218.202 441.2 217.818 440.56C217.45 439.92 217.266 439.2 217.266 438.4C217.266 437.616 217.45 436.904 217.818 436.264C218.202 435.624 218.746 435.112 219.45 434.728C220.17 434.344 221.034 434.152 222.042 434.152C223.05 434.152 223.906 434.344 224.61 434.728C225.33 435.112 225.874 435.624 226.242 436.264C226.626 436.904 226.818 437.616 226.818 438.4C226.818 439.2 226.626 439.92 226.242 440.56C225.874 441.2 225.33 441.712 224.61 442.096C223.906 442.48 223.05 442.672 222.042 442.672ZM222.042 440.752C222.826 440.752 223.45 440.552 223.914 440.152C224.378 439.752 224.61 439.176 224.61 438.424C224.61 437.672 224.378 437.096 223.914 436.696C223.45 436.296 222.826 436.096 222.042 436.096C221.274 436.096 220.65 436.296 220.17 436.696C219.706 437.096 219.474 437.672 219.474 438.424C219.474 439.176 219.706 439.752 220.17 440.152C220.65 440.552 221.274 440.752 222.042 440.752ZM223.986 436.336L223.41 434.44H228.354V436.072L223.986 436.336ZM230.657 446.344V429.064H233.057V436.408C233.457 435.704 234.009 435.152 234.713 434.752C235.417 434.352 236.217 434.152 237.113 434.152C238.041 434.152 238.849 434.352 239.537 434.752C240.225 435.136 240.753 435.728 241.121 436.528C241.489 437.312 241.673 438.296 241.673 439.48V446.344H239.297V439.72C239.297 438.568 239.065 437.696 238.601 437.104C238.137 436.496 237.425 436.192 236.465 436.192C235.825 436.192 235.241 436.352 234.713 436.672C234.201 436.976 233.793 437.424 233.489 438.016C233.201 438.608 233.057 439.328 233.057 440.176V446.344H230.657ZM249.486 446.344C248.718 446.344 248.054 446.224 247.494 445.984C246.934 445.744 246.502 445.344 246.198 444.784C245.894 444.224 245.742 443.464 245.742 442.504V436.456H243.702V434.44H245.742L246.054 431.464H248.142V434.44H251.55V436.456H248.142V442.528C248.142 443.216 248.286 443.688 248.574 443.944C248.862 444.184 249.358 444.304 250.062 444.304H251.406V446.344H249.486ZM258.701 446.632C257.725 446.632 256.845 446.464 256.061 446.128C255.293 445.792 254.677 445.328 254.213 444.736C253.749 444.128 253.469 443.416 253.373 442.6H255.797C255.893 442.984 256.061 443.336 256.301 443.656C256.541 443.96 256.861 444.208 257.261 444.4C257.677 444.592 258.157 444.688 258.701 444.688C259.229 444.688 259.661 444.616 259.997 444.472C260.333 444.312 260.581 444.104 260.741 443.848C260.901 443.592 260.981 443.32 260.981 443.032C260.981 442.6 260.869 442.272 260.645 442.048C260.421 441.824 260.093 441.648 259.661 441.52C259.245 441.392 258.741 441.264 258.149 441.136C257.669 441.024 257.173 440.888 256.661 440.728C256.149 440.568 255.685 440.368 255.269 440.128C254.853 439.872 254.517 439.56 254.261 439.192C254.005 438.808 253.877 438.336 253.877 437.776C253.877 437.088 254.053 436.472 254.405 435.928C254.773 435.368 255.293 434.936 255.965 434.632C256.637 434.312 257.437 434.152 258.365 434.152C259.677 434.152 260.741 434.472 261.557 435.112C262.389 435.736 262.869 436.64 262.997 437.824H260.693C260.613 437.28 260.373 436.856 259.973 436.552C259.573 436.248 259.029 436.096 258.341 436.096C257.669 436.096 257.149 436.232 256.781 436.504C256.429 436.776 256.253 437.136 256.253 437.584C256.253 437.856 256.357 438.104 256.565 438.328C256.789 438.536 257.101 438.712 257.501 438.856C257.917 439 258.405 439.136 258.965 439.264C259.749 439.424 260.469 439.624 261.125 439.864C261.797 440.104 262.341 440.448 262.757 440.896C263.189 441.344 263.405 442 263.405 442.864C263.421 443.6 263.237 444.256 262.853 444.832C262.469 445.392 261.925 445.832 261.221 446.152C260.517 446.472 259.677 446.632 258.701 446.632Z" fill="black"/>
<path d="M312 215.632C310.416 215.632 309.032 215.272 307.848 214.552C306.664 213.832 305.744 212.824 305.088 211.528C304.432 210.232 304.104 208.72 304.104 206.992C304.104 205.28 304.44 203.768 305.112 202.456C305.784 201.144 306.736 200.12 307.968 199.384C309.2 198.632 310.664 198.256 312.36 198.256C314.28 198.256 315.872 198.72 317.136 199.648C318.416 200.56 319.24 201.832 319.608 203.464H316.872C316.648 202.536 316.144 201.808 315.36 201.28C314.592 200.736 313.592 200.464 312.36 200.464C311.176 200.464 310.144 200.728 309.264 201.256C308.4 201.784 307.728 202.536 307.248 203.512C306.784 204.488 306.552 205.648 306.552 206.992C306.552 208.352 306.784 209.52 307.248 210.496C307.728 211.472 308.384 212.216 309.216 212.728C310.064 213.24 311.04 213.496 312.144 213.496C313.84 213.496 315.12 213.008 315.984 212.032C316.848 211.056 317.344 209.752 317.472 208.12H312.864V206.272H319.92V215.344H317.712L317.52 212.776C317.136 213.4 316.688 213.928 316.176 214.36C315.68 214.776 315.088 215.096 314.4 215.32C313.728 215.528 312.928 215.632 312 215.632ZM322.806 215.344V203.44H324.966L325.158 205.72C325.43 205.192 325.774 204.736 326.19 204.352C326.606 203.968 327.094 203.672 327.654 203.464C328.23 203.256 328.878 203.152 329.598 203.152V205.672H328.926C328.414 205.672 327.926 205.736 327.462 205.864C327.014 205.992 326.614 206.2 326.262 206.488C325.926 206.776 325.662 207.176 325.47 207.688C325.294 208.184 325.206 208.808 325.206 209.56V215.344H322.806ZM336.819 215.632C335.699 215.632 334.683 215.376 333.771 214.864C332.875 214.336 332.163 213.608 331.635 212.68C331.107 211.736 330.843 210.64 330.843 209.392C330.843 208.144 331.107 207.056 331.635 206.128C332.179 205.184 332.907 204.456 333.819 203.944C334.731 203.416 335.747 203.152 336.867 203.152C338.003 203.152 339.019 203.416 339.915 203.944C340.827 204.456 341.547 205.176 342.075 206.104C342.603 207.032 342.867 208.128 342.867 209.392C342.867 210.64 342.595 211.736 342.051 212.68C341.523 213.608 340.803 214.336 339.891 214.864C338.979 215.376 337.955 215.632 336.819 215.632ZM336.843 213.568C337.467 213.568 338.051 213.416 338.595 213.112C339.139 212.792 339.579 212.32 339.915 211.696C340.251 211.072 340.419 210.304 340.419 209.392C340.419 208.464 340.251 207.696 339.915 207.088C339.595 206.464 339.163 206 338.619 205.696C338.075 205.376 337.491 205.216 336.867 205.216C336.259 205.216 335.675 205.376 335.115 205.696C334.571 206 334.131 206.464 333.795 207.088C333.475 207.696 333.315 208.464 333.315 209.392C333.315 210.304 333.475 211.072 333.795 211.696C334.131 212.32 334.563 212.792 335.091 213.112C335.635 213.416 336.219 213.568 336.843 213.568ZM347.467 215.344L343.963 203.44H346.363L349.003 213.616L348.403 213.592L351.355 203.44H354.043L357.019 213.592L356.419 213.616L359.059 203.44H361.459L357.979 215.344H355.507L352.387 204.76H353.035L349.939 215.344H347.467ZM368.419 215.344C367.651 215.344 366.987 215.224 366.427 214.984C365.867 214.744 365.435 214.344 365.131 213.784C364.827 213.224 364.675 212.464 364.675 211.504V205.456H362.635V203.44H364.675L364.987 200.464H367.075V203.44H370.483V205.456H367.075V211.528C367.075 212.216 367.219 212.688 367.507 212.944C367.795 213.184 368.291 213.304 368.995 213.304H370.339V215.344H368.419ZM372.954 215.344V198.064H375.354V205.408C375.754 204.704 376.306 204.152 377.01 203.752C377.714 203.352 378.514 203.152 379.41 203.152C380.338 203.152 381.146 203.352 381.834 203.752C382.522 204.136 383.05 204.728 383.418 205.528C383.786 206.312 383.97 207.296 383.97 208.48V215.344H381.594V208.72C381.594 207.568 381.362 206.696 380.898 206.104C380.434 205.496 379.722 205.192 378.762 205.192C378.122 205.192 377.538 205.352 377.01 205.672C376.498 205.976 376.09 206.424 375.786 207.016C375.498 207.608 375.354 208.328 375.354 209.176V215.344H372.954Z" fill="black"/>
<path d="M430.728 446.344V429.544H436.488C437.816 429.544 438.912 429.768 439.776 430.216C440.64 430.648 441.28 431.24 441.696 431.992C442.112 432.744 442.32 433.592 442.32 434.536C442.32 435.448 442.112 436.28 441.696 437.032C441.296 437.784 440.664 438.392 439.8 438.856C438.936 439.304 437.832 439.528 436.488 439.528H433.128V446.344H430.728ZM433.128 437.536H436.392C437.624 437.536 438.512 437.264 439.056 436.72C439.6 436.176 439.872 435.448 439.872 434.536C439.872 433.576 439.6 432.84 439.056 432.328C438.512 431.8 437.624 431.536 436.392 431.536H433.128V437.536ZM444.634 446.344V434.44H446.794L446.986 436.72C447.258 436.192 447.602 435.736 448.018 435.352C448.434 434.968 448.922 434.672 449.482 434.464C450.058 434.256 450.706 434.152 451.426 434.152V436.672H450.754C450.242 436.672 449.754 436.736 449.29 436.864C448.842 436.992 448.442 437.2 448.09 437.488C447.754 437.776 447.49 438.176 447.298 438.688C447.122 439.184 447.034 439.808 447.034 440.56V446.344H444.634ZM458.648 446.632C457.528 446.632 456.512 446.376 455.6 445.864C454.704 445.336 453.992 444.608 453.464 443.68C452.936 442.736 452.672 441.64 452.672 440.392C452.672 439.144 452.936 438.056 453.464 437.128C454.008 436.184 454.736 435.456 455.648 434.944C456.56 434.416 457.576 434.152 458.696 434.152C459.832 434.152 460.848 434.416 461.744 434.944C462.656 435.456 463.376 436.176 463.904 437.104C464.432 438.032 464.696 439.128 464.696 440.392C464.696 441.64 464.424 442.736 463.88 443.68C463.352 444.608 462.632 445.336 461.72 445.864C460.808 446.376 459.784 446.632 458.648 446.632ZM458.672 444.568C459.296 444.568 459.88 444.416 460.424 444.112C460.968 443.792 461.408 443.32 461.744 442.696C462.08 442.072 462.248 441.304 462.248 440.392C462.248 439.464 462.08 438.696 461.744 438.088C461.424 437.464 460.992 437 460.448 436.696C459.904 436.376 459.32 436.216 458.696 436.216C458.088 436.216 457.504 436.376 456.944 436.696C456.4 437 455.96 437.464 455.624 438.088C455.304 438.696 455.144 439.464 455.144 440.392C455.144 441.304 455.304 442.072 455.624 442.696C455.96 443.32 456.392 443.792 456.92 444.112C457.464 444.416 458.048 444.568 458.672 444.568ZM472.765 446.632C471.597 446.632 470.565 446.36 469.669 445.816C468.789 445.272 468.101 444.528 467.605 443.584C467.109 442.64 466.861 441.568 466.861 440.368C466.861 439.168 467.109 438.104 467.605 437.176C468.101 436.232 468.797 435.496 469.693 434.968C470.589 434.424 471.613 434.152 472.765 434.152C473.725 434.152 474.565 434.344 475.285 434.728C476.021 435.096 476.589 435.616 476.989 436.288V429.064H479.389V446.344H477.229L476.989 444.472C476.733 444.84 476.413 445.192 476.029 445.528C475.645 445.848 475.181 446.112 474.637 446.32C474.093 446.528 473.469 446.632 472.765 446.632ZM473.125 444.544C473.877 444.544 474.541 444.368 475.117 444.016C475.693 443.664 476.141 443.176 476.461 442.552C476.797 441.928 476.965 441.208 476.965 440.392C476.965 439.56 476.797 438.84 476.461 438.232C476.141 437.608 475.693 437.12 475.117 436.768C474.541 436.416 473.877 436.24 473.125 436.24C472.389 436.24 471.733 436.416 471.157 436.768C470.581 437.12 470.133 437.608 469.813 438.232C469.493 438.84 469.333 439.56 469.333 440.392C469.333 441.208 469.493 441.928 469.813 442.552C470.133 443.176 470.581 443.664 471.157 444.016C471.733 444.368 472.389 444.544 473.125 444.544ZM486.859 446.632C485.915 446.632 485.091 446.44 484.387 446.056C483.699 445.656 483.171 445.064 482.803 444.28C482.435 443.496 482.251 442.504 482.251 441.304V434.44H484.627V441.064C484.627 442.232 484.867 443.112 485.347 443.704C485.843 444.296 486.563 444.592 487.507 444.592C488.147 444.592 488.723 444.44 489.235 444.136C489.747 443.816 490.147 443.36 490.435 442.768C490.723 442.176 490.867 441.456 490.867 440.608V434.44H493.267V446.344H491.131L490.963 444.256C490.579 444.992 490.027 445.576 489.307 446.008C488.603 446.424 487.787 446.632 486.859 446.632ZM501.992 446.632C500.824 446.632 499.784 446.368 498.872 445.84C497.96 445.312 497.24 444.584 496.712 443.656C496.184 442.712 495.92 441.624 495.92 440.392C495.92 439.16 496.184 438.08 496.712 437.152C497.24 436.208 497.96 435.472 498.872 434.944C499.784 434.416 500.824 434.152 501.992 434.152C503.464 434.152 504.688 434.536 505.664 435.304C506.656 436.056 507.28 437.072 507.536 438.352H505.064C504.904 437.68 504.536 437.16 503.96 436.792C503.4 436.408 502.736 436.216 501.968 436.216C501.328 436.216 500.736 436.376 500.192 436.696C499.648 437 499.208 437.464 498.872 438.088C498.552 438.712 498.392 439.48 498.392 440.392C498.392 441.064 498.488 441.664 498.68 442.192C498.872 442.72 499.128 443.16 499.448 443.512C499.784 443.864 500.168 444.136 500.6 444.328C501.048 444.504 501.504 444.592 501.968 444.592C502.48 444.592 502.944 444.512 503.36 444.352C503.792 444.176 504.152 443.928 504.44 443.608C504.744 443.288 504.952 442.896 505.064 442.432H507.536C507.28 443.696 506.656 444.712 505.664 445.48C504.672 446.248 503.448 446.632 501.992 446.632ZM514.876 446.344C514.108 446.344 513.444 446.224 512.884 445.984C512.324 445.744 511.892 445.344 511.588 444.784C511.284 444.224 511.132 443.464 511.132 442.504V436.456H509.092V434.44H511.132L511.444 431.464H513.532V434.44H516.94V436.456H513.532V442.528C513.532 443.216 513.676 443.688 513.964 443.944C514.252 444.184 514.748 444.304 515.452 444.304H516.796V446.344H514.876Z" fill="black"/>
</g>
<defs>
<clipPath id="clip0_1608_4008">
<rect width="690" height="690" fill="white" transform="translate(0 0.34375)"/>
</clipPath>
</defs>
</svg>
