<svg width="130" height="40" viewBox="0 0 130 40" fill="none" xmlns="http://www.w3.org/2000/svg">
<path d="M21.5946 6.03781C21.5859 6.01625 21.5825 5.99379 21.5846 5.97315C21.5867 5.9525 21.5943 5.93455 21.6065 5.92145C21.655 5.86944 21.7149 5.8928 21.7864 5.99153C21.8992 6.14845 22.1394 6.38029 22.507 6.68707C22.9354 7.04409 23.1898 7.25831 23.27 7.32971C24.4812 8.39373 25.6621 9.49125 26.8125 10.6223C26.8263 10.6355 26.8367 10.6519 26.8428 10.6701C26.8488 10.6883 26.8504 10.7076 26.8472 10.7265C26.8441 10.7454 26.8364 10.7633 26.8248 10.7785C26.8132 10.7938 26.7981 10.8059 26.7808 10.814L24.2987 11.9539C24.2808 11.962 24.2604 11.9628 24.2415 11.9562C24.2226 11.9495 24.2067 11.936 24.1969 11.9181C23.1683 10.0486 22.4055 8.03811 21.5946 6.03781Z" fill="#3298C9"/>
<path d="M28.4673 19.2565C28.4374 19.2641 28.406 19.2618 28.3776 19.2502C28.3492 19.2385 28.3255 19.218 28.3099 19.1917C27.0093 16.9883 25.8072 14.6008 24.4778 12.5511C24.4636 12.5291 24.4544 12.5043 24.4509 12.4784C24.4473 12.4524 24.4495 12.4259 24.4573 12.4006C24.4651 12.3754 24.4783 12.352 24.496 12.3321C24.5137 12.3122 24.5355 12.2962 24.5598 12.2853L27.1251 11.1415C27.1571 11.1273 27.1925 11.1234 27.2262 11.1303C27.26 11.1371 27.2904 11.1545 27.3129 11.1798C28.1098 12.0702 28.8512 12.9579 29.5371 13.843C30.5676 15.1732 31.4368 16.577 32.1446 18.0545C32.2249 18.222 32.18 18.3432 32.0098 18.4182C30.8144 18.9472 29.676 18.9496 28.4673 19.2565Z" fill="#3298C9"/>
<path d="M33.2106 20.8983C33.3887 21.7499 33.4728 22.5525 33.4631 23.3062C33.4605 23.5181 33.4631 23.6595 33.3706 23.7822C33.3572 23.7964 33.3401 23.8078 33.3203 23.8158C33.3006 23.8237 33.2785 23.828 33.2555 23.8285C32.2797 23.8506 31.3038 23.8281 30.3279 23.7611C30.2947 23.7588 30.2632 23.7461 30.2375 23.7247C30.2119 23.7034 30.1936 23.6744 30.1851 23.6421C29.8122 22.2104 29.2603 20.8683 28.5296 19.6156C28.459 19.494 28.4938 19.4349 28.634 19.4384C29.7912 19.4646 31.2305 19.2218 32.2466 18.6715C32.2662 18.661 32.2879 18.6549 32.3101 18.6536C32.3322 18.6523 32.3544 18.6558 32.375 18.6638C32.3957 18.6719 32.4143 18.6843 32.4295 18.7002C32.4448 18.7162 32.4564 18.7352 32.4634 18.7561L33.2106 20.8983Z" fill="#3298C9"/>
<path d="M33.4347 24.0334C33.41 24.6769 33.3034 25.3023 33.1147 25.9097C33.0187 26.1169 32.934 26.328 32.8608 26.5431C32.7683 26.8146 32.6832 27.0235 32.6056 27.1699C32.1895 27.958 31.6818 28.6848 31.0823 29.3504C30.1947 30.3146 29.111 31.3713 28.1124 31.9672C28.0689 31.9349 29.3997 30.667 30.2836 26.6449L30.3498 25.4879C30.3595 24.9986 30.3211 24.5134 30.2347 24.032C30.2332 24.0246 30.2335 24.0168 30.2356 24.0095C30.2378 24.0022 30.2416 23.9954 30.2468 23.9897C30.2521 23.9841 30.2587 23.9797 30.266 23.9769C30.2733 23.9742 30.2811 23.9732 30.2889 23.9738C31.3353 24.0814 32.3839 24.1013 33.4347 24.0334Z" fill="#3298C9"/>
<path d="M26.7767 9.89217C25.6165 8.7885 24.4273 7.71743 23.209 6.67897C22.9066 6.42067 22.487 6.12536 21.9502 5.79301C21.8479 5.72954 21.8528 5.67753 21.9647 5.63698C22 5.62464 22.0405 5.62112 22.0864 5.6264C23.3946 5.77891 24.4842 5.99973 25.3551 6.28888C25.7783 6.42993 26.1089 6.74949 26.3469 7.24756C26.4273 7.4167 27.6321 10.7107 26.7767 9.89217Z" fill="#76C4DC"/>
<path d="M26.5611 6.86554C26.4456 6.70333 26.4795 6.6619 26.6629 6.74124C27.2165 6.97925 27.7516 7.26576 28.2682 7.60074C28.7045 7.88372 29.1964 8.23589 29.7439 8.65727C30.6307 9.33873 31.4369 10.1078 32.1625 10.9647C32.3167 11.1463 32.4445 11.3534 32.5459 11.5862C32.6112 11.737 32.676 11.8881 32.7403 12.0397C32.8055 12.1931 32.8483 12.3488 32.8685 12.5065C32.9691 13.3008 33.0131 14.1347 33.0008 15.0083C32.9902 15.77 32.8549 16.488 32.5948 17.1624C32.5789 17.2029 32.5582 17.2056 32.5327 17.1704C32.1924 16.6996 31.868 16.2187 31.5595 15.7277C31.1584 15.0894 30.8353 14.6077 30.5902 14.2824C29.6134 12.9839 28.5789 11.7471 27.4867 10.572C27.3897 10.4671 27.3518 10.3441 27.373 10.203C27.5282 9.16372 27.1636 7.70913 26.5611 6.86554Z" fill="#76C4DC"/>
<path d="M33.6761 20.4094C33.4927 19.5773 33.2151 18.7759 32.843 18.0055C32.7637 17.8415 32.7659 17.6784 32.8496 17.5162C33.0824 17.0666 33.2362 16.5959 33.3111 16.104C33.357 15.7998 33.387 15.3114 33.4011 14.6389C33.4143 13.9715 33.3724 13.309 33.2755 12.6514C33.2631 12.5677 33.2786 12.5619 33.3218 12.6342C34.4439 14.511 35.1166 16.539 35.3396 18.7182C35.4454 19.7522 35.426 20.6924 35.2814 21.5387C35.2056 21.9794 35.0822 22.3554 34.9112 22.6666C34.7102 23.0333 34.4563 23.3458 34.1495 23.6041C34.027 23.7081 33.9732 23.6804 33.9882 23.5208C34.0787 22.5164 33.9219 21.3926 33.6761 20.4094Z" fill="#76C4DC"/>
<path d="M31.8431 29.1626C31.7814 29.1485 31.7374 29.1119 31.7109 29.0528C32.7692 27.853 33.8734 26.0439 33.8915 24.3904C33.8932 24.2176 33.9677 24.0849 34.1149 23.9923C34.3847 23.8222 34.5985 23.6018 34.7563 23.3312C34.81 23.2386 34.8506 23.1747 34.8779 23.1394C35.0798 22.8811 35.1543 22.9415 35.1014 23.3206C35.0917 23.392 35.074 23.47 35.0485 23.5546C34.4094 25.6686 33.3409 27.5379 31.8431 29.1626Z" fill="#76C4DC"/>
<path d="M20.2719 6.04985C20.2719 6.04985 20.4702 5.91762 20.4319 6.25613C19.717 8.20346 18.8671 10.0909 17.8825 11.9183C17.8789 11.9245 17.8507 11.9866 17.7978 12.1047C17.7026 12.3136 17.5594 12.3551 17.3681 12.229C17.2182 12.1303 17.138 12.0783 17.1274 12.073C16.4777 11.7283 15.8258 11.3871 15.1717 11.0495C15.1479 11.0373 15.1274 11.0195 15.1118 10.9977C15.0962 10.976 15.086 10.9509 15.082 10.9245C15.078 10.898 15.0803 10.871 15.0888 10.8456C15.0972 10.8202 15.1116 10.7972 15.1307 10.7784C16.5897 9.34596 18.1077 7.94869 19.6847 6.58671C20.2719 6.04985 20.2719 6.04985 20.2719 6.04985Z" fill="#498047"/>
<path d="M16.5909 14.338L13.7122 19.101C13.6993 19.1222 13.6804 19.1391 13.6578 19.1496C13.6352 19.1602 13.61 19.164 13.5852 19.1605C12.4018 18.9898 11.2638 18.837 10.1115 18.4795C9.92019 18.4204 9.8554 18.2957 9.91711 18.1053C9.9841 17.9017 10.0925 17.6769 10.2424 17.4309C10.4152 17.1479 10.5042 17.0016 10.5095 16.9919C11.6899 14.9617 13.0801 13.0849 14.6801 11.3615C14.7038 11.3359 14.7353 11.3188 14.7699 11.3129C14.8045 11.307 14.8403 11.3124 14.8719 11.3284L17.3962 12.6071C17.4118 12.6153 17.4237 12.6293 17.4291 12.6461C17.4345 12.663 17.4332 12.6812 17.4253 12.697L16.5909 14.338Z" fill="#498047"/>
<path d="M13.3964 19.3511C13.4141 19.3528 13.4312 19.3589 13.4459 19.3688C13.4607 19.3787 13.4727 19.3921 13.4809 19.4078C13.4891 19.4235 13.4931 19.441 13.4927 19.4586C13.4923 19.4762 13.4873 19.4934 13.4784 19.5085C12.6718 20.8934 12.0635 22.3334 11.6536 23.8285C11.6486 23.847 11.6375 23.8633 11.6222 23.8748C11.6068 23.8863 11.5881 23.8923 11.569 23.892C8.2813 23.84 7.88236 24.1391 9.08827 20.3283C9.25577 19.8011 9.4215 19.2929 9.58547 18.8037C9.59344 18.78 9.60628 18.7583 9.62317 18.7399C9.64006 18.7215 9.6606 18.7069 9.68345 18.697C9.7063 18.6872 9.73095 18.6823 9.75577 18.6826C9.78058 18.683 9.80501 18.6887 9.82745 18.6992C10.7802 19.146 12.3926 19.2605 13.3964 19.3511Z" fill="#498047"/>
<path d="M8.87502 23.9905C9.76274 24.0778 10.6496 24.1139 11.5356 24.099C11.5493 24.0989 11.5629 24.1018 11.5753 24.1077C11.5877 24.1135 11.5987 24.1219 11.6073 24.1325C11.6159 24.1431 11.6221 24.1554 11.6252 24.1686C11.6284 24.1818 11.6284 24.1955 11.6254 24.2087C11.1327 28.1331 12.3327 30.3998 13.666 31.7331C10.8263 30.7606 7.84228 23.7683 8.87502 23.9905Z" fill="#498047"/>
<path d="M20.016 5.92562C19.503 6.20771 18.9723 6.59118 18.424 7.07603C17.3132 8.05895 16.1928 9.07184 15.0626 10.1147C15.0574 10.1195 15.0511 10.1229 15.0441 10.1245C15.0373 10.1261 15.0301 10.1259 15.0233 10.1239C15.0165 10.1219 15.0103 10.1182 15.0054 10.1131C15.0005 10.108 14.997 10.1017 14.9952 10.0949C14.9361 9.86301 14.9158 9.6572 14.9344 9.47736C14.9405 9.41299 14.9881 9.21554 15.0772 8.88496C15.205 8.41245 15.4245 7.88353 15.7357 7.29818C15.9129 6.9632 16.1258 6.69785 16.3744 6.50215C16.5683 6.34876 16.8711 6.22049 17.2828 6.11736C17.9757 5.94457 18.818 5.78986 19.8098 5.65322C20.5526 5.5517 20.234 5.80712 20.016 5.92562Z" fill="#96C14F"/>
<path d="M9.24373 13.1388C9.25078 12.3753 9.4509 11.6926 9.84407 11.0905C10.0671 10.7485 10.5317 10.2411 11.2378 9.56851C12.5072 8.35993 13.9503 7.39817 15.5671 6.68324C15.687 6.63035 15.7108 6.65811 15.6385 6.76655C15.4093 7.11123 15.2074 7.46913 15.0328 7.84026C14.8645 8.19905 14.7472 8.58913 14.6811 9.01051C14.6 9.52621 14.5555 10.0459 14.5476 10.5695C14.5467 10.6129 14.5297 10.6544 14.5 10.6859C12.8576 12.434 11.3863 14.3157 10.0861 16.3309C9.93972 16.5583 9.81894 16.795 9.72374 17.0409C9.64351 17.2446 9.57872 17.2397 9.52935 17.0264C9.29486 16.0126 9.19657 14.9874 9.23447 13.9507C9.23536 13.9418 9.23844 13.6712 9.24373 13.1388Z" fill="#96C14F"/>
<path d="M7.08318 22.2745C6.65342 21.7852 6.61507 20.1729 6.7526 18.9423C7.00825 16.6626 7.6844 14.5174 8.78104 12.5065C8.8119 12.4501 8.84981 12.4219 8.89477 12.4219C8.90302 12.4217 8.91115 12.4238 8.91863 12.428C8.92611 12.4321 8.93275 12.4383 8.93813 12.446C8.94351 12.4538 8.94749 12.463 8.94982 12.4729C8.95214 12.4829 8.95276 12.4935 8.95162 12.5039C8.92342 12.7348 8.89344 12.9658 8.8617 13.1968C8.65366 14.6804 8.81057 16.1226 9.33245 17.5234C9.39857 17.7006 9.38799 17.8733 9.30072 18.0417C8.51702 19.565 8.07713 21.2285 7.98104 23.0322C7.97222 23.1908 7.91492 23.2107 7.80913 23.0916C7.68181 22.9498 7.51294 22.7637 7.08318 22.2745Z" fill="#96C14F"/>
<path d="M6.97831 22.4795C7.24955 23.0301 7.92906 23.3721 8.10097 24.0676C8.76874 26.4134 9.80271 28.3082 11.2798 30.1489C10.512 29.5107 9.83145 28.7984 9.23816 28.0121C8.72599 27.3342 8.28962 26.5712 7.92906 25.7232C7.52355 24.7693 7.19473 23.7458 6.94261 22.6527C6.92321 22.5717 6.93512 22.5139 6.97831 22.4795Z" fill="#96C14F"/>
<path d="M26.7697 17.5712C40.8911 40.3784 0.231607 39.639 15.3665 17.5712C17.7988 13.3515 19.0693 10.8517 21.1681 6.13379C23.0247 10.6877 24.2262 13.1985 26.7697 17.5712Z" fill="url(#paint0_linear_1863_15633)"/>
<path d="M15.5762 30.1335V27.9829H17.0176V28.3259H15.9714V28.8722H16.8868V29.2064H15.9714V29.7906H17.0322V30.1335H15.5762ZM17.389 30.1335V28.5932H17.7726V28.8054H17.7872C17.8143 28.7453 17.8588 28.6901 17.9208 28.6397C17.9828 28.5893 18.0759 28.5642 18.1999 28.5642C18.2386 28.5642 18.2706 28.5671 18.2957 28.5729C18.3209 28.5768 18.3335 28.5787 18.3335 28.5787V28.9536C18.3335 28.9536 18.319 28.9516 18.2899 28.9478C18.2628 28.9439 18.2289 28.942 18.1882 28.942C18.0526 28.942 17.9499 28.9797 17.8802 29.0553C17.8104 29.1309 17.7755 29.2529 17.7755 29.4215V30.1335H17.389ZM19.0863 30.1626C18.9255 30.1626 18.8034 30.1132 18.7201 30.0144C18.6387 29.9155 18.598 29.7886 18.598 29.6337V28.5932H18.9816V29.5697C18.9816 29.653 19.0039 29.7198 19.0485 29.7702C19.093 29.8187 19.156 29.8429 19.2374 29.8429C19.3091 29.8429 19.3672 29.8245 19.4117 29.7877C19.4563 29.7508 19.4883 29.7034 19.5076 29.6453C19.529 29.5872 19.5396 29.5271 19.5396 29.4651V28.5932H19.9261V30.1335H19.5396V29.9126H19.5222C19.5028 29.9475 19.4747 29.9843 19.4379 30.023C19.4031 30.0618 19.3565 30.0947 19.2984 30.1219C19.2422 30.149 19.1715 30.1626 19.0863 30.1626ZM20.8029 30.1335L20.2304 28.5932H20.6227L21.0092 29.6917L21.3899 28.5932H21.7823L21.2068 30.1335H20.8029ZM22.6293 28.5642C22.7281 28.5642 22.8095 28.5806 22.8735 28.6136C22.9374 28.6446 22.9877 28.6795 23.0245 28.7182C23.0614 28.755 23.0866 28.785 23.1001 28.8083H23.1176V28.5932H23.5041V30.1335H23.1176V29.9185H23.1001C23.0866 29.9417 23.0614 29.9727 23.0245 30.0114C22.9877 30.0502 22.9374 30.0851 22.8735 30.1161C22.8095 30.147 22.7281 30.1626 22.6293 30.1626C22.515 30.1626 22.4153 30.1403 22.33 30.0957C22.2448 30.0492 22.1731 29.9882 22.1149 29.9126C22.0587 29.8352 22.0161 29.7489 21.9871 29.654C21.96 29.559 21.9464 29.4622 21.9464 29.3634C21.9464 29.2645 21.96 29.1677 21.9871 29.0728C22.0161 28.9778 22.0587 28.8925 22.1149 28.817C22.1731 28.7395 22.2448 28.6785 22.33 28.6339C22.4153 28.5874 22.515 28.5642 22.6293 28.5642ZM22.7311 28.881C22.6439 28.881 22.5703 28.9052 22.5102 28.9536C22.4521 29.0001 22.4084 29.0602 22.3794 29.1338C22.3504 29.2074 22.3358 29.284 22.3358 29.3634C22.3358 29.4428 22.3504 29.5193 22.3794 29.593C22.4084 29.6666 22.4521 29.7276 22.5102 29.7761C22.5703 29.8226 22.6439 29.8458 22.7311 29.8458C22.8183 29.8458 22.8909 29.8226 22.949 29.7761C23.0071 29.7276 23.0507 29.6666 23.0798 29.593C23.1089 29.5193 23.1234 29.4428 23.1234 29.3634C23.1234 29.284 23.1089 29.2074 23.0798 29.1338C23.0507 29.0602 23.0071 29.0001 22.949 28.9536C22.8909 28.9052 22.8183 28.881 22.7311 28.881ZM23.9002 30.1335V27.9248H24.2867V29.2035L24.8301 28.5932H25.2864L24.6471 29.2965L25.3068 30.1335H24.8447L24.2867 29.4244V30.1335H23.9002ZM26.1088 28.5642C26.2076 28.5642 26.289 28.5806 26.3529 28.6136C26.4168 28.6446 26.4672 28.6795 26.504 28.7182C26.5408 28.755 26.566 28.785 26.5796 28.8083H26.597V28.5932H26.9835V30.1335H26.597V29.9185H26.5796C26.566 29.9417 26.5408 29.9727 26.504 30.0114C26.4672 30.0502 26.4168 30.0851 26.3529 30.1161C26.289 30.147 26.2076 30.1626 26.1088 30.1626C25.9945 30.1626 25.8947 30.1403 25.8095 30.0957C25.7242 30.0492 25.6525 29.9882 25.5944 29.9126C25.5382 29.8352 25.4956 29.7489 25.4665 29.654C25.4394 29.559 25.4258 29.4622 25.4258 29.3634C25.4258 29.2645 25.4394 29.1677 25.4665 29.0728C25.4956 28.9778 25.5382 28.8925 25.5944 28.817C25.6525 28.7395 25.7242 28.6785 25.8095 28.6339C25.8947 28.5874 25.9945 28.5642 26.1088 28.5642ZM26.2105 28.881C26.1233 28.881 26.0497 28.9052 25.9896 28.9536C25.9315 29.0001 25.8879 29.0602 25.8588 29.1338C25.8298 29.2074 25.8153 29.284 25.8153 29.3634C25.8153 29.4428 25.8298 29.5193 25.8588 29.593C25.8879 29.6666 25.9315 29.7276 25.9896 29.7761C26.0497 29.8226 26.1233 29.8458 26.2105 29.8458C26.2977 29.8458 26.3704 29.8226 26.4284 29.7761C26.4866 29.7276 26.5302 29.6666 26.5593 29.593C26.5883 29.5193 26.6028 29.4428 26.6028 29.3634C26.6028 29.284 26.5883 29.2074 26.5593 29.1338C26.5302 29.0602 26.4866 29.0001 26.4284 28.9536C26.3704 28.9052 26.2977 28.881 26.2105 28.881Z" fill="white"/>
<path d="M46.6055 27.4666V12.5097H56.6306V14.8947H49.3543V18.6946H55.721V21.019H49.3543V25.0816H56.7317V27.4666H46.6055ZM58.9104 27.4666V16.7542H61.5781V18.2297H61.6794C61.8677 17.812 62.1781 17.428 62.609 17.0776C63.0405 16.7273 63.6869 16.5521 64.5493 16.5521C64.8192 16.5521 65.041 16.5723 65.2165 16.6127C65.3914 16.6397 65.4794 16.6531 65.4794 16.6531V19.2605C65.4794 19.2605 65.3781 19.2471 65.176 19.2201C64.9872 19.1931 64.7514 19.1797 64.4688 19.1797C63.5253 19.1797 62.8112 19.4424 62.3264 19.9679C61.841 20.4935 61.5984 21.3424 61.5984 22.5146V27.4666H58.9104ZM70.4112 27.6687C69.2928 27.6687 68.4437 27.3251 67.8645 26.6379C67.2986 25.9507 67.0154 25.0681 67.0154 23.9901V16.7542H69.6837V23.5455C69.6837 24.1249 69.8384 24.5897 70.1482 24.9401C70.4586 25.2769 70.8965 25.4454 71.4624 25.4454C71.961 25.4454 72.3653 25.3174 72.6752 25.0614C72.985 24.8054 73.2074 24.4752 73.3418 24.071C73.4901 23.6667 73.5642 23.249 73.5642 22.8178V16.7542H76.2522V27.4666H73.5642V25.9305H73.4432C73.3082 26.173 73.113 26.429 72.857 26.6985C72.6144 26.968 72.2912 27.1971 71.8869 27.3857C71.496 27.5744 71.0042 27.6687 70.4112 27.6687ZM82.0469 27.4666L78.065 16.7542H80.7936L83.4821 24.3944L86.1296 16.7542H88.8581L84.8565 27.4666H82.0469ZM94.4464 16.5521C95.1338 16.5521 95.6997 16.6666 96.1445 16.8957C96.5888 17.1113 96.9392 17.3538 97.1952 17.6233C97.4512 17.8794 97.6266 18.0882 97.721 18.2499H97.8421V16.7542H100.53V27.4666H97.8421V25.9709H97.721C97.6266 26.1326 97.4512 26.3482 97.1952 26.6177C96.9392 26.8872 96.5888 27.1297 96.1445 27.3453C95.6997 27.5609 95.1338 27.6687 94.4464 27.6687C93.6512 27.6687 92.9573 27.5137 92.3648 27.2038C91.7717 26.8805 91.273 26.456 90.8688 25.9305C90.4784 25.3915 90.1818 24.7919 89.9797 24.1316C89.7909 23.4713 89.6965 22.7976 89.6965 22.1104C89.6965 21.4232 89.7909 20.7495 89.9797 20.0892C90.1818 19.4289 90.4784 18.8361 90.8688 18.3105C91.273 17.7715 91.7717 17.3471 92.3648 17.0372C92.9573 16.7138 93.6512 16.5521 94.4464 16.5521ZM95.1541 18.7552C94.5477 18.7552 94.0357 18.9237 93.6176 19.2605C93.2133 19.5839 92.9104 20.0016 92.7082 20.5137C92.5061 21.0257 92.4048 21.5579 92.4048 22.1104C92.4048 22.6629 92.5061 23.1951 92.7082 23.7072C92.9104 24.2192 93.2133 24.6437 93.6176 24.9805C94.0357 25.3039 94.5477 25.4656 95.1541 25.4656C95.76 25.4656 96.2656 25.3039 96.6698 24.9805C97.0741 24.6437 97.377 24.2192 97.5792 23.7072C97.7813 23.1951 97.8826 22.6629 97.8826 22.1104C97.8826 21.5579 97.7813 21.0257 97.5792 20.5137C97.377 20.0016 97.0741 19.5839 96.6698 19.2605C96.2656 18.9237 95.76 18.7552 95.1541 18.7552ZM102.982 27.4666V12.1055H105.67V20.9987L109.45 16.7542H112.623L108.177 21.6455L112.765 27.4666H109.551L105.67 22.5349V27.4666H102.982ZM118.039 16.5521C118.726 16.5521 119.292 16.6666 119.737 16.8957C120.182 17.1113 120.532 17.3538 120.788 17.6233C121.044 17.8794 121.219 18.0882 121.314 18.2499H121.435V16.7542H124.123V27.4666H121.435V25.9709H121.314C121.219 26.1326 121.044 26.3482 120.788 26.6177C120.532 26.8872 120.182 27.1297 119.737 27.3453C119.292 27.5609 118.726 27.6687 118.039 27.6687C117.244 27.6687 116.55 27.5137 115.957 27.2038C115.364 26.8805 114.866 26.456 114.462 25.9305C114.071 25.3915 113.774 24.7919 113.572 24.1316C113.384 23.4713 113.29 22.7976 113.29 22.1104C113.29 21.4232 113.384 20.7495 113.572 20.0892C113.774 19.4289 114.071 18.8361 114.462 18.3105C114.866 17.7715 115.364 17.3471 115.957 17.0372C116.55 16.7138 117.244 16.5521 118.039 16.5521ZM118.747 18.7552C118.14 18.7552 117.628 18.9237 117.211 19.2605C116.806 19.5839 116.503 20.0016 116.301 20.5137C116.099 21.0257 115.998 21.5579 115.998 22.1104C115.998 22.6629 116.099 23.1951 116.301 23.7072C116.503 24.2192 116.806 24.6437 117.211 24.9805C117.628 25.3039 118.14 25.4656 118.747 25.4656C119.353 25.4656 119.858 25.3039 120.262 24.9805C120.667 24.6437 120.97 24.2192 121.172 23.7072C121.374 23.1951 121.475 22.6629 121.475 22.1104C121.475 21.5579 121.374 21.0257 121.172 20.5137C120.97 20.0016 120.667 19.5839 120.262 19.2605C119.858 18.9237 119.353 18.7552 118.747 18.7552Z" fill="#5FD8FF"/>
<defs>
<linearGradient id="paint0_linear_1863_15633" x1="21.068" y1="6.13379" x2="21.6519" y2="35.0315" gradientUnits="userSpaceOnUse">
<stop stop-color="white"/>
<stop offset="1" stop-color="#85D0E3"/>
</linearGradient>
</defs>
</svg>
