<svg width="130" height="40" viewBox="0 0 130 40" fill="none" xmlns="http://www.w3.org/2000/svg">
<path d="M5.77765 24.5075C8.2987 24.5075 10.3424 22.4637 10.3424 19.9427C10.3424 17.4216 8.2987 15.3779 5.77765 15.3779C3.2566 15.3779 1.21289 17.4216 1.21289 19.9427C1.21289 22.4637 3.2566 24.5075 5.77765 24.5075Z" fill="url(#paint0_linear_1863_15581)"/>
<path d="M42.7718 25.3034C45.2928 25.3034 47.3366 23.2596 47.3366 20.7386C47.3366 18.2175 45.2928 16.1738 42.7718 16.1738C40.2507 16.1738 38.207 18.2175 38.207 20.7386C38.207 23.2596 40.2507 25.3034 42.7718 25.3034Z" fill="url(#paint1_linear_1863_15581)"/>
<path d="M5.06152 12.9094C4.42458 13.8011 4.99074 14.0594 5.35345 14.0771H9.17512C13.3789 10.5314 17.9685 12.299 19.7377 13.6259C20.7356 14.4115 21.7989 13.9533 22.2059 13.6259C23.2675 12.2671 22.6482 11.1843 22.2059 10.8128C14.4989 5.1015 7.56507 9.8308 5.06152 12.9094Z" fill="url(#paint2_linear_1863_15581)"/>
<path d="M43.5931 27.7872C44.2315 26.8964 43.6657 26.6372 43.303 26.6189L39.4814 26.6128C35.2719 30.1517 30.6852 28.3768 28.918 27.047C27.9214 26.2599 26.8573 26.7164 26.4499 27.0431C25.3861 28.4002 26.0036 29.484 26.4454 29.8562C34.1432 35.5798 41.0846 30.8617 43.5931 27.7872Z" fill="url(#paint3_linear_1863_15581)"/>
<path d="M5.06122 25.808C3.91472 25.8717 4.22966 26.6307 4.53044 27.0022C7.77882 31.928 13.0141 32.7171 15.2257 32.4959C13.7484 32.4516 11.7385 32.3897 15.5177 32.4959C19.2969 32.602 22.8779 29.4969 24.196 27.9311L31.6536 18.8547C32.2905 17.8781 31.919 16.8908 31.6536 16.5193C30.8892 15.3303 29.4419 15.7585 28.8139 16.1211L22.816 23.6318C21.6695 25.2453 19.9852 26.6926 19.2863 27.2146C14.5516 30.4842 9.98866 27.6392 8.29903 25.808C7.69746 25.7814 6.20772 25.7443 5.06122 25.808Z" fill="url(#paint4_linear_1863_15581)"/>
<path d="M43.0731 14.7097C44.2196 14.6447 43.9037 13.8861 43.6025 13.5149C40.3483 8.59302 35.1121 7.81008 32.9008 8.03384C34.3781 8.07633 36.3881 8.13589 32.6088 8.03418C28.8295 7.93248 25.2521 11.0418 23.9359 12.6092L16.489 21.6944C15.8532 22.6717 16.2259 23.6586 16.4917 24.0298C17.2575 25.2179 18.7042 24.788 19.3319 24.4245L25.321 16.9069C26.4655 15.292 28.1482 13.8427 28.8464 13.3199C33.5772 10.0447 38.1435 12.8844 39.8353 14.7136C40.4369 14.7394 41.9267 14.7748 43.0731 14.7097Z" fill="url(#paint5_linear_1863_15581)"/>
<path d="M63.9186 16.7878H57.4436V20.2544H63.0603V22.1044H57.4436V27.2711H55.127V14.9378H63.9186V16.7878ZM66.2723 27.2711V18.1794H68.5389V27.2711H66.2723ZM67.4056 16.6294C66.928 16.6294 66.5697 16.5267 66.3306 16.3211C66.0973 16.1155 65.9806 15.8211 65.9806 15.4378C65.9806 15.0544 66.0973 14.76 66.3306 14.5544C66.5697 14.3489 66.928 14.2461 67.4056 14.2461C67.8832 14.2461 68.2389 14.3489 68.4723 14.5544C68.7113 14.76 68.8306 15.0544 68.8306 15.4378C68.8306 15.8211 68.7113 16.1155 68.4723 16.3211C68.2389 16.5267 67.8832 16.6294 67.4056 16.6294ZM74.9113 31.1044C74.378 31.1044 73.8363 31.0683 73.2863 30.9961C72.7421 30.9294 72.2197 30.8267 71.7197 30.6878V28.9044C72.7921 29.21 73.803 29.3628 74.753 29.3628C75.4306 29.3628 75.978 29.2794 76.3947 29.1128C76.8113 28.9517 77.1171 28.6933 77.3113 28.3378C77.5113 27.9878 77.6113 27.5211 77.6113 26.9378V26.2794H77.503C77.1863 26.6128 76.803 26.8711 76.353 27.0544C75.9087 27.2378 75.4113 27.3294 74.8613 27.3294C74.1556 27.3294 73.5197 27.1711 72.953 26.8544C72.3863 26.5322 71.9337 26.0405 71.5947 25.3794C71.2613 24.7183 71.0947 23.8961 71.0947 22.9128C71.0947 21.3294 71.5363 20.1211 72.4197 19.2878C73.3087 18.4544 74.6171 18.0378 76.3447 18.0378C76.9447 18.0378 77.5587 18.0822 78.1863 18.1711C78.8139 18.2544 79.378 18.3739 79.878 18.5294V26.5294C79.878 27.5961 79.6973 28.4655 79.3363 29.1378C78.9754 29.8155 78.4306 30.3128 77.703 30.6294C76.9754 30.9461 76.0447 31.1044 74.9113 31.1044ZM75.6447 25.4878C76.0171 25.4878 76.3754 25.4239 76.7197 25.2961C77.0639 25.1683 77.3613 24.9767 77.6113 24.7211V19.9378C77.1447 19.8267 76.6587 19.7711 76.153 19.7711C75.2306 19.7711 74.5363 20.0128 74.0697 20.4961C73.603 20.9739 73.3697 21.7155 73.3697 22.7211C73.3697 23.7155 73.5671 24.4267 73.9613 24.8544C74.3613 25.2767 74.9223 25.4878 75.6447 25.4878Z" fill="#235BD4"/>
<path d="M83.0391 27.2704V14.937H85.3557V25.387H91.5807V27.2704H83.0391ZM93.6635 27.2704V18.1787H95.9302V27.2704H93.6635ZM94.7969 16.6287C94.3193 16.6287 93.9609 16.526 93.7219 16.3204C93.4885 16.1148 93.3719 15.8204 93.3719 15.437C93.3719 15.0537 93.4885 14.7593 93.7219 14.5537C93.9609 14.3481 94.3193 14.2454 94.7969 14.2454C95.2745 14.2454 95.6302 14.3481 95.8635 14.5537C96.1026 14.7593 96.2219 15.0537 96.2219 15.437C96.2219 15.8204 96.1026 16.1148 95.8635 16.3204C95.6302 16.526 95.2745 16.6287 94.7969 16.6287ZM98.9526 18.1787H100.819L100.969 19.1287H101.086C101.464 18.7787 101.905 18.5093 102.411 18.3204C102.917 18.1315 103.455 18.037 104.028 18.037C105.05 18.037 105.853 18.3315 106.436 18.9204C107.025 19.5037 107.319 20.4204 107.319 21.6704V27.2704H105.053V21.787C105.053 21.137 104.911 20.6731 104.628 20.3954C104.35 20.1176 103.939 19.9787 103.394 19.9787C102.989 19.9787 102.592 20.0565 102.203 20.212C101.814 20.3676 101.486 20.601 101.219 20.912V27.2704H98.9526V18.1787ZM116.855 27.2704L113.98 23.5287H112.53V27.2704H110.264V13.8037H112.53V21.687H113.964L116.614 18.1787H119.064L115.83 22.562L119.355 27.2704H116.855ZM123.608 27.437C122.486 27.437 121.478 27.3037 120.583 27.037V25.4037C121.522 25.6815 122.525 25.8204 123.592 25.8204C124.297 25.8204 124.806 25.726 125.117 25.537C125.428 25.3481 125.583 25.0704 125.583 24.7037C125.583 24.4148 125.503 24.1954 125.342 24.0454C125.181 23.8898 124.897 23.7731 124.492 23.6954L122.95 23.4454C122.044 23.2898 121.389 23.001 120.983 22.5787C120.583 22.1565 120.383 21.587 120.383 20.8704C120.383 20.2981 120.539 19.801 120.85 19.3787C121.161 18.951 121.636 18.6204 122.275 18.387C122.919 18.1537 123.725 18.037 124.692 18.037C125.142 18.037 125.586 18.0648 126.025 18.1204C126.464 18.176 126.864 18.2537 127.225 18.3537V19.987C126.436 19.7648 125.603 19.6537 124.725 19.6537C123.919 19.6537 123.35 19.7565 123.017 19.962C122.689 20.162 122.525 20.4398 122.525 20.7954C122.525 21.0565 122.603 21.2676 122.758 21.4287C122.919 21.5843 123.197 21.6981 123.592 21.7704L125.133 22.0287C126.028 22.1843 126.683 22.462 127.1 22.862C127.517 23.2565 127.725 23.8343 127.725 24.5954C127.725 25.1843 127.567 25.6926 127.25 26.1204C126.939 26.5426 126.475 26.8676 125.858 27.0954C125.242 27.3231 124.492 27.437 123.608 27.437Z" fill="black"/>
<defs>
<linearGradient id="paint0_linear_1863_15581" x1="12.6789" y1="19.3334" x2="1.27837" y2="19.1806" gradientUnits="userSpaceOnUse">
<stop stop-color="#0644CD"/>
<stop offset="1" stop-color="#2158D5"/>
</linearGradient>
<linearGradient id="paint1_linear_1863_15581" x1="47.3879" y1="20.222" x2="35.4434" y2="19.9442" gradientUnits="userSpaceOnUse">
<stop stop-color="#DC984D"/>
<stop offset="1" stop-color="#BF8243"/>
</linearGradient>
<linearGradient id="paint2_linear_1863_15581" x1="30.1676" y1="11.0551" x2="6.00096" y2="12.3051" gradientUnits="userSpaceOnUse">
<stop stop-color="#0644CD"/>
<stop offset="1" stop-color="#2158D5"/>
</linearGradient>
<linearGradient id="paint3_linear_1863_15581" x1="25.255" y1="28.514" x2="50.8613" y2="28.2086" gradientUnits="userSpaceOnUse">
<stop stop-color="#DC984D"/>
<stop offset="1" stop-color="#BF8243"/>
</linearGradient>
<linearGradient id="paint4_linear_1863_15581" x1="41.5124" y1="20.7501" x2="4.19517" y2="26.3334" gradientUnits="userSpaceOnUse">
<stop stop-color="#0644CD"/>
<stop offset="1" stop-color="#2158D5"/>
</linearGradient>
<linearGradient id="paint5_linear_1863_15581" x1="53.4304" y1="8" x2="13.0136" y2="9.73611" gradientUnits="userSpaceOnUse">
<stop stop-color="#BF8243"/>
<stop offset="1" stop-color="#DC984D"/>
</linearGradient>
</defs>
</svg>
