<svg width="40" height="40" viewBox="0 0 40 40" fill="none" xmlns="http://www.w3.org/2000/svg">
<g clip-path="url(#clip0_1863_15596)">
<path d="M2.08193 30.7628V32.613H1V27.3613H3.04756C3.44128 27.3613 3.78912 27.4339 4.08788 27.5779C4.38664 27.7219 4.61709 27.9279 4.77821 28.1925C4.93933 28.4582 5.01936 28.7612 5.01936 29.0994C5.01936 29.6137 4.84332 30.0202 4.49119 30.3169C4.13908 30.6135 3.65254 30.7628 3.02942 30.7628H2.08193ZM2.08193 29.8858H3.04756C3.33351 29.8858 3.55225 29.8186 3.70269 29.6841C3.85315 29.5497 3.92783 29.3566 3.92783 29.1069C3.92783 28.8498 3.85208 28.6417 3.70056 28.4827C3.54905 28.3237 3.33992 28.2426 3.0721 28.2384H2.08193V29.8858ZM7.49051 32.6856C6.91753 32.6856 6.45232 32.5095 6.09276 32.1585C5.73317 31.8074 5.55392 31.3401 5.55392 30.7554V30.654C5.55392 30.2624 5.62863 29.9125 5.78012 29.603C5.93164 29.2936 6.14717 29.0557 6.4246 28.8892C6.702 28.7217 7.01892 28.6385 7.3742 28.6385C7.90877 28.6385 8.32812 28.8071 8.63541 29.1432C8.94163 29.4803 9.09527 29.9562 9.09527 30.574V30.9997H6.61024C6.64438 31.2547 6.74574 31.4596 6.91542 31.6132C7.08507 31.7669 7.29953 31.8448 7.5588 31.8448C7.96 31.8448 8.27475 31.6997 8.49988 31.4073L9.01203 31.9813C8.85519 32.2022 8.64501 32.3751 8.37718 32.4988C8.11045 32.6237 7.81489 32.6856 7.49051 32.6856ZM7.37102 29.4825C7.16402 29.4825 6.99651 29.5529 6.86847 29.6916C6.73935 29.8303 6.65719 30.0298 6.6209 30.2902H8.07096V30.2069C8.06671 29.9765 8.00374 29.7972 7.88318 29.6724C7.76366 29.5454 7.59187 29.4825 7.37102 29.4825ZM11.4821 32.6856C10.9102 32.6856 10.444 32.5095 10.0844 32.1585C9.72587 31.8074 9.54555 31.3401 9.54555 30.7554V30.654C9.54555 30.2624 9.6213 29.9125 9.77282 29.603C9.92324 29.2936 10.1388 29.0557 10.4162 28.8892C10.6947 28.7217 11.0105 28.6385 11.3658 28.6385C11.9004 28.6385 12.3208 28.8071 12.627 29.1432C12.9332 29.4803 13.0869 29.9562 13.0869 30.574V30.9997H10.6019C10.636 31.2547 10.7374 31.4596 10.907 31.6132C11.0767 31.7669 11.2911 31.8448 11.5504 31.8448C11.9527 31.8448 12.2664 31.6997 12.4915 31.4073L13.0037 31.9813C12.8468 32.2022 12.6366 32.3751 12.3699 32.4988C12.1021 32.6237 11.8065 32.6856 11.4821 32.6856ZM11.3626 29.4825C11.1556 29.4825 10.9881 29.5529 10.8601 29.6916C10.731 29.8303 10.6488 30.0298 10.6125 30.2902H12.0626V30.2069C12.0583 29.9765 11.9954 29.7972 11.8748 29.6724C11.7553 29.5454 11.5846 29.4825 11.3626 29.4825ZM17.1906 30.6978C17.1906 31.2995 17.054 31.7807 16.7808 32.1425C16.5087 32.5042 16.1396 32.6856 15.6754 32.6856C15.2817 32.6856 14.9627 32.549 14.7204 32.2737V34.1132H13.678V28.711H14.6447L14.681 29.093C14.9339 28.7889 15.2625 28.6385 15.6679 28.6385C16.1492 28.6385 16.5237 28.8167 16.7904 29.172C17.0572 29.5283 17.1906 30.0181 17.1906 30.6434V30.6978ZM16.1481 30.6209C16.1481 30.2582 16.0841 29.9786 15.955 29.7802C15.8269 29.5838 15.6402 29.4846 15.3948 29.4846C15.0672 29.4846 14.8432 29.6105 14.7204 29.8602V31.4585C14.8474 31.7157 15.0747 31.8448 15.4023 31.8448C15.8995 31.8448 16.1481 31.4372 16.1481 30.6209ZM20.1728 32.2161C19.9146 32.5287 19.5593 32.6856 19.1047 32.6856C18.6865 32.6856 18.3674 32.565 18.1476 32.3249C17.9278 32.0848 17.8147 31.7317 17.8105 31.2675V28.711H18.8529V31.2313C18.8529 31.6378 19.0386 31.8405 19.4078 31.8405C19.7609 31.8405 20.0053 31.7178 20.1365 31.4724V28.711H21.1832V32.613H20.2016L20.1728 32.2161ZM23.0686 32.613H22.0219V27.0732H23.0686V32.613ZM28.7984 31.5311H26.9013L26.5406 32.613H25.3914L27.3451 27.3613H28.3481L30.3135 32.613H29.1633L28.7984 31.5311ZM27.1936 30.654H28.5071L27.8466 28.6886L27.1936 30.654ZM30.5834 30.6338C30.5834 30.0341 30.7264 29.5518 31.0101 29.1858C31.2961 28.8199 31.6804 28.6385 32.1625 28.6385C32.5904 28.6385 32.9245 28.7847 33.1624 29.0792L33.2051 28.711H34.1504V32.4818C34.1504 32.8242 34.0724 33.1209 33.9179 33.3738C33.763 33.6256 33.5443 33.8176 33.2626 33.951C32.9811 34.0822 32.6523 34.1484 32.2746 34.1484C31.9886 34.1484 31.7091 34.0918 31.4391 33.9777C31.1672 33.8635 30.9612 33.7163 30.8224 33.5359L31.2835 32.9022C31.5438 33.1924 31.8574 33.3375 32.2276 33.3375C32.5051 33.3375 32.7196 33.2639 32.8744 33.1156C33.0278 32.9683 33.1038 32.7581 33.1038 32.4871V32.278C32.8637 32.5501 32.5479 32.6856 32.1561 32.6856C31.6877 32.6856 31.308 32.502 31.0177 32.135C30.7287 31.768 30.5834 31.2825 30.5834 30.6764V30.6338ZM31.6257 30.7084C31.6257 31.0616 31.6972 31.339 31.8383 31.5396C31.9801 31.7402 32.1744 31.8405 32.4218 31.8405C32.7399 31.8405 32.967 31.721 33.1038 31.4841V29.842C32.965 29.6041 32.7399 29.4846 32.4294 29.4846C32.1797 29.4846 31.9824 29.587 31.8402 29.7919C31.6972 29.9957 31.6257 30.3008 31.6257 30.7084ZM37.1433 29.6863C37.0015 29.6681 36.8754 29.6585 36.7687 29.6585C36.3729 29.6585 36.1148 29.7919 35.9932 30.0586V32.613H34.9506V28.711H35.9355L35.9631 29.1762C36.1722 28.8178 36.4616 28.6385 36.8329 28.6385C36.948 28.6385 37.0569 28.6545 37.1571 28.6844L37.1433 29.6863ZM38.7438 32.613H37.6981V28.711H38.7438V32.613ZM37.6362 27.7017C37.6362 27.5448 37.6897 27.4157 37.7941 27.3144C37.8988 27.2141 38.0418 27.1639 38.2209 27.1639C38.399 27.1639 38.5412 27.2141 38.6467 27.3144C38.7523 27.4157 38.8058 27.5448 38.8058 27.7017C38.8058 27.8585 38.7512 27.9898 38.6445 28.0901C38.5378 28.1914 38.3971 28.2416 38.2209 28.2416C38.0449 28.2416 37.905 28.1914 37.7975 28.0901C37.6905 27.9898 37.6362 27.8585 37.6362 27.7017Z" fill="#05A155"/>
<path fill-rule="evenodd" clip-rule="evenodd" d="M14.3172 14.1278C13.7826 14.4361 13.1029 14.4586 12.5289 14.1278C11.9559 13.797 11.6358 13.1963 11.6348 12.5796C12.1704 12.2712 12.8501 12.2488 13.423 12.5796C13.996 12.9104 14.3172 13.5111 14.3172 14.1278Z" fill="#05A155"/>
<path fill-rule="evenodd" clip-rule="evenodd" d="M13.1541 17.3677C12.8458 17.9022 12.2675 18.2618 11.6059 18.2618C10.9444 18.2618 10.3661 17.9022 10.0566 17.3677C10.3661 16.8342 10.9444 16.4746 11.6059 16.4746C12.2675 16.4746 12.8458 16.8342 13.1541 17.3677Z" fill="#05A155"/>
<path fill-rule="evenodd" clip-rule="evenodd" d="M19.9025 10.8095C20.5021 10.4617 20.9065 9.81296 20.9065 9.06926C20.9065 8.32664 20.5021 7.67792 19.9025 7.33008C19.3017 7.67792 18.8984 8.32664 18.8984 9.06926C18.8984 9.81296 19.3017 10.4617 19.9025 10.8095Z" fill="#05A155"/>
<path fill-rule="evenodd" clip-rule="evenodd" d="M25.75 13.993C26.2846 14.3014 26.9642 14.3238 27.5383 13.993C28.1113 13.6623 28.4313 13.0616 28.4324 12.4448C27.8968 12.1365 27.2171 12.1141 26.6441 12.4448C26.0712 12.7756 25.75 13.3763 25.75 13.993Z" fill="#05A155"/>
<path fill-rule="evenodd" clip-rule="evenodd" d="M26.6543 17.3677C26.9637 17.9022 27.541 18.2618 28.2036 18.2618C28.8651 18.2618 29.4425 17.9022 29.7518 17.3677C29.4425 16.8342 28.8651 16.4746 28.2036 16.4746C27.541 16.4746 26.9637 16.8342 26.6543 17.3677Z" fill="#05A155"/>
<path fill-rule="evenodd" clip-rule="evenodd" d="M17.6595 8.99181C18.0959 8.55542 18.2933 7.9035 18.1226 7.26438C17.9508 6.62525 17.4546 6.16005 16.8582 6C16.4218 6.43746 16.2244 7.08832 16.3951 7.72745C16.5669 8.36657 17.0641 8.83176 17.6595 8.99181Z" fill="#05A155"/>
<path fill-rule="evenodd" clip-rule="evenodd" d="M13.7725 11.2374C13.9315 10.6399 13.7778 9.97733 13.3094 9.51002C12.8421 9.04161 12.1784 8.88794 11.5819 9.04693C11.4229 9.64338 11.5777 10.306 12.045 10.7744C12.5134 11.2417 13.176 11.3964 13.7725 11.2374Z" fill="#05A155"/>
<path fill-rule="evenodd" clip-rule="evenodd" d="M11.527 15.1238C11.3659 14.5273 10.9007 14.0301 10.2615 13.8594C9.62241 13.6876 8.97157 13.8861 8.53516 14.3225C8.69521 14.9178 9.16041 15.415 9.79954 15.5868C10.4387 15.7576 11.0895 15.5601 11.527 15.1238Z" fill="#05A155"/>
<path fill-rule="evenodd" clip-rule="evenodd" d="M11.527 19.6121C11.0895 19.1757 10.4387 18.9783 9.79954 19.149C9.16041 19.3208 8.69521 19.8169 8.53516 20.4134C8.97157 20.8498 9.62241 21.0472 10.2615 20.8764C10.9007 20.7047 11.3659 20.2085 11.527 19.6121Z" fill="#05A155"/>
<path fill-rule="evenodd" clip-rule="evenodd" d="M22.1466 8.99181C22.7431 8.83176 23.2403 8.36657 23.411 7.72745C23.5828 7.08832 23.3843 6.43746 22.949 6C22.3525 6.16005 21.8553 6.62525 21.6846 7.26438C21.5128 7.9035 21.7113 8.55542 22.1466 8.99181Z" fill="#05A155"/>
<path fill-rule="evenodd" clip-rule="evenodd" d="M26.0357 11.2374C26.6321 11.3964 27.2947 11.2417 27.7621 10.7744C28.2305 10.306 28.3841 9.64338 28.2251 9.04693C27.6287 8.88794 26.9661 9.04161 26.4977 9.51002C26.0303 9.97733 25.8756 10.6399 26.0357 11.2374Z" fill="#05A155"/>
<path fill-rule="evenodd" clip-rule="evenodd" d="M28.2793 15.1238C28.7167 15.5601 29.3678 15.7576 30.0067 15.5858C30.646 15.415 31.111 14.9178 31.2711 14.3225C30.8348 13.8861 30.1829 13.6876 29.5437 13.8594C28.9046 14.0301 28.4393 14.5273 28.2793 15.1238Z" fill="#05A155"/>
<path fill-rule="evenodd" clip-rule="evenodd" d="M28.2793 19.6121C28.4393 20.2085 28.9046 20.7047 29.5437 20.8764C30.1829 21.0472 30.8348 20.8498 31.2711 20.4134C31.111 19.8169 30.646 19.3208 30.0067 19.149C29.3678 18.9783 28.7167 19.1757 28.2793 19.6121Z" fill="#05A155"/>
<path fill-rule="evenodd" clip-rule="evenodd" d="M17.0997 12.6592C16.3464 12.6592 15.6144 12.2676 15.2111 11.5687C14.8067 10.8698 14.8344 10.0397 15.21 9.38672C15.9633 9.38779 16.6963 9.77832 17.0997 10.4782C17.503 11.1771 17.4763 12.0073 17.0997 12.6592Z" fill="#05A155"/>
<path fill-rule="evenodd" clip-rule="evenodd" d="M22.7061 12.6592C23.4594 12.6592 24.1924 12.2676 24.5957 11.5687C24.9991 10.8698 24.9724 10.0397 24.5957 9.38672C23.8425 9.38779 23.1105 9.77832 22.7072 10.4782C22.3028 11.1771 22.3305 12.0073 22.7061 12.6592Z" fill="#05A155"/>
<path fill-rule="evenodd" clip-rule="evenodd" d="M25.75 20.7437C25.75 21.3604 26.0712 21.9611 26.6441 22.2918C27.2171 22.6226 27.8968 22.6002 28.4324 22.2918C28.4313 21.6741 28.1113 21.0744 27.5383 20.7437C26.9642 20.4129 26.2846 20.4353 25.75 20.7437Z" fill="#05A155"/>
<path fill-rule="evenodd" clip-rule="evenodd" d="M14.0574 20.7437C14.0563 21.3604 13.7363 21.9611 13.1633 22.2918C12.5903 22.6226 11.9096 22.6002 11.375 22.2918C11.375 21.6741 11.6962 21.0744 12.2691 20.7437C12.8421 20.4129 13.5228 20.4353 14.0574 20.7437Z" fill="#05A155"/>
<path d="M23.979 20.1111H22.8896L21.781 21.2186V24.4793H27.6804V25.2486H21.0117V20.9006L22.5706 19.3418H23.979V20.1111Z" fill="#A05148"/>
<path d="M19.6348 19.398L21.1819 17.8508V15.8033L22.0056 14.9785L22.5466 15.5227L21.9512 16.1181V18.0098L21.8381 18.2819L20.179 19.9421L19.6348 19.398Z" fill="#A05148"/>
<path d="M24.9264 16.882L23.4134 18.3949H21.5664V17.6256H23.0954L24.3822 16.3389L24.9264 16.882Z" fill="#A05148"/>
<path d="M24.6568 19.3287C24.6024 19.3287 24.5512 19.3383 24.5064 19.3575C24.4595 19.3767 24.4168 19.4055 24.3794 19.4428C24.3079 19.5143 24.2642 19.6125 24.2642 19.7202C24.2642 19.7757 24.2749 19.8269 24.293 19.8717C24.3122 19.9176 24.3421 19.9614 24.3794 19.9987C24.4168 20.035 24.4595 20.0649 24.5064 20.0841C24.5512 20.1022 24.6024 20.1129 24.6568 20.1129C24.7123 20.1129 24.7625 20.1022 24.8084 20.0841C24.8542 20.0649 24.8969 20.035 24.9343 19.9987C24.9716 19.9614 25.0015 19.9176 25.0207 19.8717C25.0388 19.8269 25.0495 19.7757 25.0495 19.7202C25.0495 19.6669 25.0388 19.6157 25.0207 19.5709V19.5698C25.0015 19.5239 24.9716 19.4802 24.9343 19.4428C24.8969 19.4055 24.8542 19.3767 24.8084 19.3575C24.7625 19.3383 24.7123 19.3287 24.6568 19.3287ZM24.2898 18.8314C24.404 18.7834 24.5288 18.7578 24.6568 18.7578C24.786 18.7578 24.9097 18.7834 25.0239 18.8314C25.1434 18.8805 25.2501 18.952 25.3376 19.0395C25.4251 19.127 25.4966 19.2326 25.5456 19.3521H25.5467C25.5937 19.4663 25.6204 19.5911 25.6204 19.7202C25.6204 19.8493 25.5937 19.9731 25.5467 20.0883C25.4966 20.2078 25.4251 20.3145 25.3376 20.402C25.2501 20.4895 25.1445 20.561 25.0239 20.6101C24.9097 20.6571 24.786 20.6837 24.6568 20.6837C24.5288 20.6837 24.404 20.6571 24.2898 20.6101C24.1703 20.561 24.0636 20.4895 23.9761 20.402C23.8886 20.3145 23.8171 20.2078 23.767 20.0883C23.72 19.9731 23.6934 19.8493 23.6934 19.7202C23.6934 19.4546 23.8011 19.2134 23.9761 19.0395C24.0636 18.952 24.1703 18.8805 24.2898 18.8314Z" fill="#A05148"/>
<path d="M25.1323 15.7388C25.0779 15.7388 25.0267 15.7495 24.9819 15.7687C24.936 15.7868 24.8923 15.8167 24.8549 15.8541C24.8176 15.8914 24.7888 15.9341 24.7696 15.981C24.7504 16.0258 24.7407 16.077 24.7407 16.1315C24.7407 16.187 24.7504 16.2371 24.7696 16.283C24.7888 16.3289 24.8176 16.3715 24.8549 16.4089C24.8923 16.4462 24.936 16.4761 24.9819 16.4953C25.0267 16.5135 25.0779 16.5241 25.1323 16.5241C25.1878 16.5241 25.239 16.5135 25.2839 16.4953C25.3297 16.4761 25.3724 16.4462 25.4098 16.4089C25.4471 16.3715 25.477 16.3289 25.4962 16.283C25.5143 16.2371 25.525 16.187 25.525 16.1315C25.525 16.077 25.5143 16.0258 25.4962 15.981C25.477 15.9341 25.4471 15.8914 25.4098 15.8541C25.3724 15.8167 25.3297 15.7868 25.2839 15.7687C25.239 15.7495 25.1878 15.7388 25.1323 15.7388ZM24.7653 15.2416C24.8795 15.1947 25.0043 15.168 25.1323 15.168C25.2615 15.168 25.3852 15.1947 25.5005 15.2416C25.6199 15.2917 25.7267 15.3632 25.8141 15.4507C25.9016 15.5382 25.9731 15.6449 26.0222 15.7644C26.0702 15.8786 26.0958 16.0034 26.0958 16.1315C26.0958 16.2606 26.0702 16.3843 26.0222 16.4985C25.9731 16.6191 25.9016 16.7247 25.8141 16.8122C25.7267 16.8997 25.6199 16.9712 25.5005 17.0213C25.3852 17.0683 25.2615 17.095 25.1323 17.095C25.0043 17.095 24.8795 17.0683 24.7653 17.0213C24.6458 16.9712 24.5391 16.8997 24.4516 16.8122C24.3641 16.7247 24.2926 16.6191 24.2435 16.4985C24.1955 16.3843 24.1699 16.2606 24.1699 16.1315C24.1699 16.0034 24.1955 15.8786 24.2435 15.7644C24.2926 15.6449 24.3641 15.5382 24.4516 15.4507C24.5391 15.3632 24.6458 15.2917 24.7653 15.2416Z" fill="#A05148"/>
<path d="M22.7545 14.3794C22.7001 14.3794 22.65 14.3901 22.6051 14.4082H22.6041C22.5571 14.4274 22.5145 14.4573 22.4771 14.4946C22.4397 14.532 22.4099 14.5747 22.3907 14.6206C22.3725 14.6664 22.3619 14.7166 22.3619 14.7721C22.3619 14.8265 22.3725 14.8777 22.3907 14.9225C22.4099 14.9695 22.4397 15.0122 22.4771 15.0495C22.5475 15.121 22.6457 15.1647 22.7545 15.1647C22.81 15.1647 22.8601 15.154 22.906 15.1359C22.9519 15.1167 22.9946 15.0868 23.0319 15.0495C23.0693 15.0122 23.0992 14.9695 23.1184 14.9225C23.1365 14.8777 23.1472 14.8265 23.1472 14.7721C23.1472 14.7166 23.1365 14.6664 23.1184 14.6206C23.0992 14.5747 23.0693 14.532 23.0319 14.4946C22.9946 14.4573 22.9519 14.4274 22.906 14.4082C22.8601 14.3901 22.81 14.3794 22.7545 14.3794ZM22.3864 13.8833V13.8822C22.5006 13.8352 22.6254 13.8086 22.7545 13.8086C22.8836 13.8086 23.0074 13.8352 23.1216 13.8822C23.2411 13.9324 23.3478 14.0038 23.4353 14.0913C23.5227 14.1788 23.5942 14.2855 23.6444 14.405C23.6913 14.5192 23.718 14.643 23.718 14.7721C23.718 14.9012 23.6913 15.0249 23.6444 15.1391C23.5942 15.2586 23.5227 15.3653 23.4353 15.4528C23.3478 15.5403 23.2421 15.6118 23.1216 15.6619C23.0074 15.7089 22.8836 15.7356 22.7545 15.7356C22.4888 15.7356 22.2477 15.6278 22.0738 15.4528C21.9863 15.3653 21.9148 15.2586 21.8647 15.1391C21.8177 15.0249 21.791 14.9012 21.791 14.7721C21.791 14.643 21.8177 14.5192 21.8647 14.405C21.9148 14.2845 21.9863 14.1788 22.0738 14.0913C22.1613 14.0038 22.2669 13.9324 22.3864 13.8833Z" fill="#A05148"/>
<path d="M19.8971 12.6031C19.8416 12.6031 19.7904 12.6137 19.7456 12.6319C19.6997 12.6511 19.657 12.681 19.6197 12.7183L19.6186 12.7172C19.5823 12.7546 19.5535 12.7973 19.5333 12.8442C19.5151 12.889 19.5044 12.9402 19.5044 12.9957C19.5044 13.0501 19.5151 13.1013 19.5333 13.1462C19.5525 13.1931 19.5823 13.2358 19.6197 13.2731C19.657 13.3105 19.6997 13.3393 19.7456 13.3585C19.7904 13.3777 19.8416 13.3884 19.8971 13.3884C19.9515 13.3884 20.0027 13.3777 20.0476 13.3585C20.0934 13.3404 20.1372 13.3105 20.1745 13.2731C20.2119 13.2358 20.2407 13.1931 20.2599 13.1462C20.2791 13.1013 20.2897 13.0501 20.2897 12.9957C20.2897 12.9402 20.2791 12.889 20.2599 12.8442C20.2407 12.7973 20.2119 12.7546 20.1745 12.7172V12.7183C20.1372 12.681 20.0934 12.6511 20.0476 12.6319C20.0027 12.6137 19.9515 12.6031 19.8971 12.6031ZM19.5301 12.1059C19.6442 12.0589 19.768 12.0322 19.8971 12.0322C20.0252 12.0322 20.15 12.0589 20.2642 12.1059C20.3836 12.1549 20.4904 12.2275 20.5778 12.3139V12.315C20.6653 12.4035 20.7379 12.5102 20.7859 12.6287C20.8339 12.7428 20.8595 12.8666 20.8595 12.9957C20.8595 13.1238 20.8339 13.2486 20.7859 13.3628C20.7368 13.4823 20.6653 13.589 20.5778 13.6764C20.4904 13.7639 20.3836 13.8354 20.2642 13.8845C20.15 13.9325 20.0252 13.9581 19.8971 13.9581C19.768 13.9581 19.6442 13.9325 19.5301 13.8845C19.4095 13.8354 19.3039 13.7639 19.2164 13.6764C19.1278 13.589 19.0574 13.4823 19.0072 13.3628C18.9603 13.2486 18.9336 13.1238 18.9336 12.9957C18.9336 12.8666 18.9603 12.7428 19.0072 12.6287C19.0563 12.5102 19.1278 12.4035 19.2164 12.315V12.3139C19.3039 12.2275 19.4095 12.1549 19.5301 12.1059Z" fill="#A05148"/>
<path d="M19.5117 25.2486V13.6729H20.2831V25.2486H19.5117Z" fill="#A05148"/>
<path d="M12.125 24.4797H18.0137V22.5346L17.1068 21.6277H16.4154V20.8584H17.4258L18.783 22.2167V25.249H12.125V24.4797Z" fill="#A05148"/>
<path d="M15.7389 20.8414C15.6845 20.8414 15.6332 20.852 15.5884 20.8712C15.5415 20.8894 15.4988 20.9192 15.4614 20.9566C15.4241 20.9939 15.3942 21.0366 15.375 21.0836C15.3569 21.1284 15.3462 21.1796 15.3462 21.234C15.3462 21.2895 15.3569 21.3396 15.375 21.3855C15.3942 21.4314 15.4241 21.4741 15.4614 21.5114C15.4988 21.5488 15.5415 21.5786 15.5884 21.5978C15.6332 21.616 15.6845 21.6267 15.7389 21.6267C15.7944 21.6267 15.8445 21.616 15.8904 21.5978C15.9363 21.5786 15.9789 21.5488 16.0163 21.5114C16.0536 21.4741 16.0835 21.4314 16.1027 21.3855C16.1208 21.3396 16.1315 21.2895 16.1315 21.234C16.1315 21.1796 16.1208 21.1284 16.1027 21.0836C16.0835 21.0366 16.0536 20.9939 16.0163 20.9566C15.9789 20.9192 15.9363 20.8894 15.8904 20.8712C15.8445 20.852 15.7944 20.8414 15.7389 20.8414ZM15.3718 20.3441C15.486 20.2972 15.6098 20.2705 15.7389 20.2705C15.868 20.2705 15.9918 20.2972 16.1059 20.3441C16.2254 20.3943 16.3321 20.4658 16.4196 20.5533C16.5071 20.6408 16.5786 20.7474 16.6287 20.867C16.6757 20.9811 16.7024 21.106 16.7024 21.234C16.7024 21.3631 16.6757 21.4869 16.6287 21.601C16.5786 21.7216 16.5071 21.8272 16.4196 21.9147C16.3321 22.0022 16.2254 22.0737 16.1059 22.1239C15.9918 22.1708 15.868 22.1975 15.7389 22.1975C15.6098 22.1975 15.486 22.1708 15.3718 22.1239C15.2523 22.0737 15.1456 22.0022 15.0581 21.9147C14.9706 21.8272 14.8992 21.7216 14.849 21.601C14.802 21.4869 14.7754 21.3631 14.7754 21.234C14.7754 21.106 14.802 20.9811 14.849 20.867C14.8992 20.7474 14.9706 20.6408 15.0581 20.5533C15.1456 20.4658 15.2523 20.3943 15.3718 20.3441Z" fill="#A05148"/>
<path d="M19.6183 21.5085L17.6806 19.4503L17.576 19.1878V17.0101L16.6211 15.6615L17.2463 15.2197L18.3453 16.7722V19.0363L20.1774 20.9825L19.6183 21.5085Z" fill="#A05148"/>
<path d="M15.6632 18.0918L16.2863 18.8035H17.9594V19.5728H15.9406L15.0859 18.5965L15.6632 18.0918Z" fill="#A05148"/>
<path d="M14.9933 16.8722C15.1234 16.8807 15.2461 16.9159 15.3561 16.9704C15.4702 17.0269 15.5705 17.1048 15.6537 17.1997C15.7359 17.2936 15.801 17.4046 15.8415 17.5263C15.881 17.6425 15.8991 17.7685 15.8906 17.8976C15.8821 18.0267 15.8468 18.1494 15.7924 18.2593C15.7359 18.3734 15.658 18.4748 15.563 18.557C15.4681 18.6402 15.3582 18.7053 15.2376 18.7458H15.2365C15.1202 18.7842 14.9943 18.8024 14.8652 18.7938C14.7361 18.7853 14.6134 18.7512 14.5035 18.6967C14.3893 18.6402 14.288 18.5612 14.2058 18.4663C14.1226 18.3724 14.0586 18.2625 14.018 18.1408L14.017 18.1419C13.9775 18.0245 13.9604 17.8986 13.9689 17.7695C13.9775 17.6394 14.0116 17.5166 14.0661 17.4067C14.1226 17.2926 14.2016 17.1912 14.2955 17.1091C14.3904 17.0258 14.5014 16.9618 14.6209 16.9213H14.622C14.7393 16.8818 14.8642 16.8637 14.9933 16.8722ZM15.1042 17.4804C15.0594 17.459 15.0093 17.4441 14.9559 17.4409C14.9026 17.4377 14.8514 17.4441 14.8044 17.4601C14.7542 17.4772 14.7084 17.5039 14.671 17.5369C14.6326 17.5711 14.6006 17.6116 14.5771 17.6586C14.5547 17.7034 14.5409 17.7535 14.5376 17.8069C14.5345 17.8602 14.5409 17.9114 14.5569 17.9584V17.9594C14.5739 18.0085 14.5995 18.0533 14.6337 18.0918C14.6668 18.1302 14.7084 18.1622 14.7553 18.1856C14.8001 18.208 14.8503 18.2219 14.9036 18.2251C14.957 18.2283 15.0082 18.2219 15.0552 18.2059C15.1053 18.1888 15.1501 18.1622 15.1885 18.1291C15.2269 18.096 15.2589 18.0544 15.2824 18.0075C15.3038 17.9626 15.3176 17.9125 15.3219 17.8591C15.3251 17.8058 15.3176 17.7535 15.3016 17.7066C15.2856 17.6575 15.2589 17.6127 15.2259 17.5743C15.1917 17.5359 15.1512 17.5039 15.1042 17.4804Z" fill="#A05148"/>
<path d="M16.7049 13.9388C16.8329 13.9602 16.9513 14.0071 17.0559 14.0733C17.1626 14.1405 17.2554 14.229 17.328 14.3325C17.4005 14.435 17.4539 14.5523 17.4816 14.6751C17.5094 14.7956 17.5136 14.9226 17.4923 15.0496C17.4699 15.1776 17.4229 15.296 17.3578 15.4006C17.2895 15.5083 17.201 15.6001 17.0996 15.6727H17.0986C16.9951 15.7452 16.8788 15.7986 16.755 15.8263C16.6355 15.8541 16.5085 15.8583 16.3805 15.837C16.2524 15.8146 16.134 15.7676 16.0305 15.7015C15.9217 15.6332 15.8288 15.5446 15.7563 15.4422H15.7574C15.6848 15.3408 15.6325 15.2235 15.6037 15.0997C15.577 14.9791 15.5717 14.8522 15.5941 14.7252C15.6154 14.5972 15.6624 14.4787 15.7285 14.3741C15.7958 14.2675 15.8843 14.1746 15.9878 14.1021V14.101C16.0892 14.0295 16.2055 13.9772 16.3303 13.9484C16.4509 13.9218 16.5779 13.9164 16.7049 13.9388ZM16.7528 14.5545C16.7112 14.5278 16.6622 14.5097 16.6099 14.5001C16.5555 14.4915 16.5042 14.4926 16.4562 14.5043C16.4061 14.515 16.3581 14.5374 16.3154 14.5673L16.3143 14.5662C16.2738 14.595 16.2386 14.6334 16.2098 14.6782C16.1841 14.7199 16.1649 14.7679 16.1564 14.8212C16.1468 14.8746 16.1489 14.9269 16.1596 14.9749C16.1703 15.025 16.1916 15.072 16.2215 15.1136L16.2226 15.1146C16.2524 15.1573 16.2898 15.1925 16.3335 15.2203C16.3751 15.2469 16.4231 15.2651 16.4765 15.2747C16.5299 15.2832 16.5821 15.2822 16.6301 15.2715C16.6814 15.2597 16.7283 15.2384 16.7699 15.2096V15.2085C16.8115 15.1787 16.8478 15.1403 16.8756 15.0965C16.9022 15.0549 16.9214 15.0069 16.93 14.9535C16.9396 14.9002 16.9374 14.8479 16.9268 14.7999C16.915 14.7487 16.8937 14.7006 16.8638 14.6601C16.835 14.6185 16.7977 14.5822 16.7528 14.5545Z" fill="#A05148"/>
</g>
<defs>
<clipPath id="clip0_1863_15596">
<rect width="38" height="28.1481" fill="white" transform="translate(1 6)"/>
</clipPath>
</defs>
</svg>
